<svg id="svg" version="1.1" xmlns="http://www.w3.org/2000/svg" xmlns:xlink="http://www.w3.org/1999/xlink" width="400" height="400" viewBox="0, 0, 400,400"><g id="svgg"><path id="path0" d="M199.700 0.282 C 199.205 0.378,198.800 0.623,198.800 0.828 C 198.800 1.033,198.429 1.200,197.976 1.200 C 197.523 1.200,197.252 1.361,197.374 1.558 C 197.496 1.755,197.326 2.019,196.998 2.146 C 196.669 2.272,196.400 2.661,196.400 3.011 C 196.400 3.361,196.220 3.536,196.000 3.400 C 195.780 3.264,195.600 3.433,195.600 3.776 C 195.600 4.119,195.382 4.355,195.115 4.300 C 194.848 4.245,194.445 4.605,194.220 5.100 C 193.995 5.595,193.553 6.000,193.238 6.000 C 192.924 6.000,192.758 6.091,192.869 6.202 C 193.146 6.479,189.498 10.284,189.000 10.237 C 188.780 10.217,188.645 10.425,188.700 10.700 C 188.755 10.975,188.575 11.155,188.300 11.100 C 188.025 11.045,187.849 11.238,187.910 11.530 C 187.970 11.821,187.858 11.960,187.661 11.838 C 187.464 11.716,186.830 12.187,186.251 12.885 C 185.673 13.583,185.200 14.026,185.200 13.869 C 185.200 13.712,184.237 14.533,183.059 15.692 C 181.882 16.851,180.981 17.916,181.057 18.058 C 181.133 18.200,180.926 18.419,180.598 18.546 C 180.269 18.672,180.000 19.061,180.000 19.411 C 180.000 19.761,179.820 19.936,179.600 19.800 C 179.380 19.664,179.200 19.833,179.200 20.176 C 179.200 20.519,178.990 20.755,178.733 20.700 C 178.476 20.645,178.048 21.016,177.783 21.525 C 177.518 22.034,177.188 22.439,177.051 22.425 C 176.913 22.411,176.837 22.445,176.883 22.500 C 177.025 22.670,173.016 26.671,172.740 26.635 C 172.597 26.616,172.427 26.780,172.362 27.000 C 172.173 27.643,171.433 28.329,171.000 28.262 C 170.780 28.228,170.645 28.425,170.700 28.700 C 170.755 28.975,170.519 29.200,170.176 29.200 C 169.833 29.200,169.664 29.380,169.800 29.600 C 169.936 29.820,169.761 30.000,169.411 30.000 C 169.061 30.000,168.672 30.269,168.546 30.598 C 168.419 30.926,168.200 31.133,168.058 31.057 C 167.916 30.981,166.851 31.882,165.692 33.059 C 164.533 34.237,163.712 35.200,163.869 35.200 C 164.026 35.200,163.583 35.673,162.885 36.251 C 162.187 36.830,161.716 37.464,161.838 37.661 C 161.960 37.858,161.821 37.970,161.530 37.910 C 161.238 37.849,161.045 38.025,161.100 38.300 C 161.155 38.575,160.975 38.755,160.700 38.700 C 160.425 38.645,160.217 38.780,160.237 39.000 C 160.284 39.498,156.479 43.146,156.202 42.869 C 156.091 42.758,156.000 42.924,156.000 43.238 C 156.000 43.553,155.595 43.995,155.100 44.220 C 154.605 44.445,154.245 44.848,154.300 45.115 C 154.355 45.382,154.119 45.600,153.776 45.600 C 153.433 45.600,153.264 45.780,153.400 46.000 C 153.536 46.220,153.376 46.400,153.043 46.400 C 152.711 46.400,152.256 46.715,152.032 47.100 C 151.808 47.485,151.619 47.661,151.612 47.492 C 151.605 47.323,150.637 48.133,149.459 49.292 C 148.282 50.451,147.381 51.516,147.457 51.658 C 147.533 51.800,147.326 52.019,146.998 52.146 C 146.669 52.272,146.400 52.661,146.400 53.011 C 146.400 53.361,146.220 53.536,146.000 53.400 C 145.780 53.264,145.600 53.433,145.600 53.776 C 145.600 54.119,145.382 54.355,145.115 54.300 C 144.848 54.245,144.445 54.605,144.220 55.100 C 143.995 55.595,143.553 56.000,143.238 56.000 C 142.924 56.000,142.758 56.091,142.869 56.202 C 143.146 56.479,139.498 60.284,139.000 60.237 C 138.780 60.217,138.645 60.425,138.700 60.700 C 138.755 60.975,138.575 61.155,138.300 61.100 C 138.025 61.045,137.849 61.238,137.910 61.530 C 137.970 61.821,137.858 61.960,137.661 61.838 C 137.464 61.716,136.830 62.187,136.251 62.885 C 135.673 63.583,135.200 64.026,135.200 63.869 C 135.200 63.712,134.237 64.533,133.059 65.692 C 131.882 66.851,130.981 67.916,131.057 68.058 C 131.133 68.200,130.926 68.419,130.598 68.546 C 130.269 68.672,130.000 69.061,130.000 69.411 C 130.000 69.761,129.820 69.936,129.600 69.800 C 129.380 69.664,129.200 69.833,129.200 70.176 C 129.200 70.519,128.975 70.755,128.700 70.700 C 128.425 70.645,128.228 70.780,128.262 71.000 C 128.324 71.401,127.484 72.337,126.908 72.508 C 126.739 72.559,126.616 72.690,126.635 72.800 C 126.674 73.029,123.161 76.498,122.583 76.800 C 122.372 76.910,122.228 77.090,122.262 77.200 C 122.334 77.433,121.359 78.374,120.908 78.508 C 120.739 78.559,120.645 78.735,120.700 78.900 C 120.755 79.065,120.519 79.200,120.176 79.200 C 119.833 79.200,119.664 79.380,119.800 79.600 C 119.936 79.820,119.761 80.000,119.411 80.000 C 119.061 80.000,118.672 80.269,118.546 80.598 C 118.419 80.926,118.200 81.133,118.058 81.057 C 117.916 80.981,116.851 81.882,115.692 83.059 C 114.533 84.237,113.712 85.200,113.869 85.200 C 114.026 85.200,113.583 85.673,112.885 86.251 C 112.187 86.830,111.716 87.464,111.838 87.661 C 111.960 87.858,111.821 87.970,111.530 87.910 C 111.238 87.849,111.045 88.025,111.100 88.300 C 111.155 88.575,110.975 88.755,110.700 88.700 C 110.425 88.645,110.217 88.780,110.237 89.000 C 110.284 89.498,106.479 93.146,106.202 92.869 C 106.091 92.758,106.000 92.924,106.000 93.238 C 106.000 93.553,105.595 93.995,105.100 94.220 C 104.605 94.445,104.245 94.848,104.300 95.115 C 104.355 95.382,104.119 95.600,103.776 95.600 C 103.433 95.600,103.264 95.780,103.400 96.000 C 103.536 96.220,103.376 96.400,103.043 96.400 C 102.711 96.400,102.256 96.715,102.032 97.100 C 101.808 97.485,101.619 97.661,101.612 97.492 C 101.605 97.323,100.637 98.133,99.459 99.292 C 98.282 100.451,97.381 101.516,97.457 101.658 C 97.533 101.800,97.326 102.019,96.998 102.146 C 96.669 102.272,96.400 102.661,96.400 103.011 C 96.400 103.361,96.220 103.536,96.000 103.400 C 95.780 103.264,95.600 103.433,95.600 103.776 C 95.600 104.119,95.382 104.355,95.115 104.300 C 94.848 104.245,94.445 104.605,94.220 105.100 C 93.995 105.595,93.553 106.000,93.238 106.000 C 92.924 106.000,92.758 106.091,92.869 106.202 C 93.146 106.479,89.498 110.284,89.000 110.237 C 88.780 110.217,88.645 110.425,88.700 110.700 C 88.755 110.975,88.575 111.155,88.300 111.100 C 88.025 111.045,87.849 111.238,87.910 111.530 C 87.970 111.821,87.858 111.960,87.661 111.838 C 87.464 111.716,86.830 112.187,86.251 112.885 C 85.673 113.583,85.200 114.026,85.200 113.869 C 85.200 113.712,84.237 114.533,83.059 115.692 C 81.882 116.851,80.981 117.916,81.057 118.058 C 81.133 118.200,80.926 118.419,80.598 118.546 C 80.269 118.672,80.000 119.061,80.000 119.411 C 80.000 119.761,79.820 119.936,79.600 119.800 C 79.380 119.664,79.200 119.833,79.200 120.176 C 79.200 120.519,78.975 120.755,78.700 120.700 C 78.425 120.645,78.228 120.780,78.262 121.000 C 78.324 121.401,77.484 122.337,76.908 122.508 C 76.739 122.559,76.616 122.690,76.635 122.800 C 76.674 123.029,73.161 126.498,72.583 126.800 C 72.372 126.910,72.228 127.090,72.262 127.200 C 72.334 127.433,71.359 128.374,70.908 128.508 C 70.739 128.559,70.645 128.735,70.700 128.900 C 70.755 129.065,70.519 129.200,70.176 129.200 C 69.833 129.200,69.664 129.380,69.800 129.600 C 69.936 129.820,69.761 130.000,69.411 130.000 C 69.061 130.000,68.672 130.269,68.546 130.598 C 68.419 130.926,68.200 131.133,68.058 131.057 C 67.916 130.981,66.851 131.882,65.692 133.059 C 64.533 134.237,63.712 135.200,63.869 135.200 C 64.026 135.200,63.583 135.673,62.885 136.251 C 62.187 136.830,61.716 137.464,61.838 137.661 C 61.960 137.858,61.821 137.970,61.530 137.910 C 61.238 137.849,61.045 138.025,61.100 138.300 C 61.155 138.575,60.975 138.755,60.700 138.700 C 60.425 138.645,60.217 138.780,60.237 139.000 C 60.284 139.498,56.479 143.146,56.202 142.869 C 56.091 142.758,56.000 142.924,56.000 143.238 C 56.000 143.553,55.595 143.995,55.100 144.220 C 54.605 144.445,54.245 144.848,54.300 145.115 C 54.355 145.382,54.119 145.600,53.776 145.600 C 53.433 145.600,53.264 145.780,53.400 146.000 C 53.536 146.220,53.376 146.400,53.043 146.400 C 52.711 146.400,52.256 146.715,52.032 147.100 C 51.808 147.485,51.619 147.661,51.612 147.492 C 51.605 147.323,50.637 148.133,49.459 149.292 C 48.282 150.451,47.381 151.516,47.457 151.658 C 47.533 151.800,47.326 152.019,46.998 152.146 C 46.669 152.272,46.400 152.661,46.400 153.011 C 46.400 153.361,46.220 153.536,46.000 153.400 C 45.780 153.264,45.600 153.433,45.600 153.776 C 45.600 154.119,45.382 154.355,45.115 154.300 C 44.848 154.245,44.445 154.605,44.220 155.100 C 43.995 155.595,43.553 156.000,43.238 156.000 C 42.924 156.000,42.758 156.091,42.869 156.202 C 43.146 156.479,39.498 160.284,39.000 160.237 C 38.780 160.217,38.645 160.425,38.700 160.700 C 38.755 160.975,38.575 161.155,38.300 161.100 C 38.025 161.045,37.849 161.238,37.910 161.530 C 37.970 161.821,37.858 161.960,37.661 161.838 C 37.464 161.716,36.830 162.187,36.251 162.885 C 35.673 163.583,35.200 164.026,35.200 163.869 C 35.200 163.712,34.237 164.533,33.059 165.692 C 31.882 166.851,30.981 167.916,31.057 168.058 C 31.133 168.200,30.926 168.419,30.598 168.546 C 30.269 168.672,30.000 169.061,30.000 169.411 C 30.000 169.761,29.820 169.936,29.600 169.800 C 29.380 169.664,29.200 169.833,29.200 170.176 C 29.200 170.519,28.975 170.755,28.700 170.700 C 28.425 170.645,28.228 170.780,28.262 171.000 C 28.322 171.391,27.225 172.600,26.810 172.600 C 26.694 172.600,26.616 172.690,26.635 172.800 C 26.675 173.032,22.649 177.008,22.500 176.883 C 22.445 176.837,22.411 176.913,22.425 177.051 C 22.439 177.188,22.034 177.518,21.525 177.783 C 21.016 178.048,20.645 178.476,20.700 178.733 C 20.755 178.990,20.519 179.200,20.176 179.200 C 19.833 179.200,19.664 179.380,19.800 179.600 C 19.936 179.820,19.761 180.000,19.411 180.000 C 19.061 180.000,18.672 180.269,18.546 180.598 C 18.419 180.926,18.200 181.133,18.058 181.057 C 17.916 180.981,16.851 181.882,15.692 183.059 C 14.533 184.237,13.712 185.200,13.869 185.200 C 14.026 185.200,13.583 185.673,12.885 186.251 C 12.187 186.830,11.716 187.464,11.838 187.661 C 11.960 187.858,11.821 187.970,11.530 187.910 C 11.238 187.849,11.045 188.025,11.100 188.300 C 11.155 188.575,11.038 188.755,10.840 188.700 C 10.642 188.645,10.474 188.749,10.466 188.930 C 10.459 189.112,10.038 189.620,9.531 190.059 C 9.025 190.499,8.608 191.160,8.605 191.529 C 8.602 191.898,8.375 192.155,8.100 192.100 C 7.825 192.045,7.600 192.281,7.600 192.624 C 7.600 192.967,7.420 193.136,7.200 193.000 C 6.980 192.864,6.800 193.006,6.800 193.314 C 6.800 193.623,6.440 194.202,6.000 194.600 C 5.560 194.998,5.200 195.667,5.200 196.086 C 5.200 196.556,5.025 196.739,4.742 196.564 C 4.428 196.370,4.345 196.602,4.480 197.304 C 4.630 198.092,4.538 198.274,4.078 198.098 C 3.618 197.921,3.527 198.105,3.678 198.898 C 3.830 199.691,3.738 199.875,3.278 199.698 C 2.818 199.521,2.727 199.705,2.878 200.498 C 3.022 201.247,2.929 201.471,2.538 201.321 C 2.159 201.175,2.000 201.481,2.000 202.357 C 2.000 203.041,1.820 203.600,1.600 203.600 C 1.380 203.600,1.200 204.104,1.200 204.720 C 1.200 205.336,0.985 206.055,0.722 206.318 C -0.381 207.421,-0.157 230.299,0.953 229.874 C 1.281 229.748,1.379 230.114,1.270 231.050 C 1.151 232.074,1.245 232.357,1.656 232.200 C 2.049 232.049,2.190 232.347,2.162 233.279 C 2.140 234.022,2.436 234.902,2.862 235.359 C 3.268 235.794,3.600 236.663,3.600 237.288 C 3.600 238.049,3.857 238.521,4.376 238.713 C 5.159 239.003,5.200 239.078,5.200 240.243 C 5.200 240.617,5.425 240.799,5.738 240.679 C 6.129 240.529,6.222 240.753,6.078 241.502 C 5.922 242.322,6.012 242.481,6.520 242.286 C 6.990 242.106,7.093 242.213,6.910 242.690 C 6.729 243.162,6.831 243.274,7.285 243.099 C 7.741 242.924,7.858 243.055,7.720 243.584 C 7.475 244.521,11.685 249.042,12.395 248.603 C 12.767 248.373,12.777 248.496,12.439 249.128 C 11.961 250.021,13.294 251.437,14.127 250.922 C 14.345 250.787,14.405 250.869,14.260 251.103 C 13.909 251.671,16.815 254.880,17.457 254.633 C 17.739 254.525,17.876 254.659,17.768 254.938 C 17.520 255.585,19.500 257.309,20.079 256.951 C 20.345 256.787,20.411 256.858,20.245 257.128 C 19.874 257.727,25.873 263.726,26.472 263.355 C 26.753 263.182,26.812 263.256,26.629 263.554 C 26.226 264.205,35.795 273.774,36.446 273.371 C 36.744 273.188,36.818 273.247,36.645 273.528 C 36.274 274.127,42.273 280.126,42.872 279.755 C 43.142 279.589,43.213 279.655,43.049 279.921 C 42.691 280.500,44.415 282.480,45.062 282.232 C 45.341 282.124,45.475 282.261,45.367 282.543 C 45.120 283.185,48.329 286.091,48.897 285.740 C 49.154 285.581,49.206 285.666,49.027 285.956 C 48.620 286.614,52.975 290.986,53.633 290.579 C 53.943 290.388,54.021 290.442,53.844 290.728 C 53.474 291.328,58.672 296.526,59.272 296.156 C 59.558 295.979,59.612 296.057,59.421 296.367 C 59.014 297.025,63.386 301.380,64.044 300.973 C 64.334 300.794,64.419 300.846,64.260 301.103 C 63.909 301.671,66.815 304.880,67.457 304.633 C 67.739 304.525,67.876 304.659,67.768 304.938 C 67.520 305.585,69.500 307.309,70.079 306.951 C 70.347 306.785,70.411 306.858,70.240 307.135 C 69.951 307.603,71.654 309.600,72.342 309.600 C 72.980 309.600,133.200 370.036,133.200 370.676 C 133.200 371.005,133.560 371.369,134.000 371.484 C 134.440 371.599,134.800 371.865,134.800 372.075 C 134.800 372.673,135.877 373.600,136.571 373.600 C 136.917 373.600,137.200 373.878,137.200 374.218 C 137.200 374.907,138.937 376.800,139.569 376.800 C 140.193 376.800,149.244 386.063,149.641 387.108 C 149.944 387.906,150.109 387.970,150.844 387.576 C 151.503 387.224,151.628 387.230,151.397 387.605 C 150.958 388.315,155.479 392.525,156.416 392.280 C 156.945 392.142,157.076 392.259,156.901 392.715 C 156.726 393.169,156.838 393.271,157.310 393.090 C 157.787 392.907,157.894 393.010,157.714 393.480 C 157.519 393.988,157.678 394.078,158.498 393.922 C 159.247 393.778,159.471 393.871,159.321 394.262 C 159.138 394.739,159.910 394.993,160.654 394.700 C 160.794 394.645,161.058 395.005,161.241 395.500 C 161.480 396.144,161.897 396.400,162.712 396.400 C 163.337 396.400,164.206 396.732,164.641 397.138 C 165.098 397.564,165.978 397.860,166.721 397.838 C 167.653 397.810,167.951 397.951,167.800 398.344 C 167.643 398.755,167.926 398.849,168.950 398.730 C 169.886 398.621,170.252 398.719,170.126 399.047 C 169.701 400.155,192.594 400.366,193.696 399.264 C 193.951 399.009,194.664 398.800,195.280 398.800 C 195.896 398.800,196.400 398.620,196.400 398.400 C 196.400 398.180,196.959 398.000,197.643 398.000 C 198.519 398.000,198.825 397.841,198.679 397.462 C 198.529 397.071,198.753 396.978,199.502 397.122 C 200.295 397.273,200.479 397.182,200.302 396.722 C 200.125 396.262,200.309 396.170,201.102 396.322 C 201.895 396.473,202.079 396.382,201.902 395.922 C 201.726 395.462,201.908 395.370,202.696 395.520 C 203.398 395.655,203.630 395.572,203.436 395.258 C 203.261 394.975,203.444 394.800,203.914 394.800 C 204.333 394.800,205.002 394.440,205.400 394.000 C 205.798 393.560,206.377 393.200,206.686 393.200 C 206.994 393.200,207.136 393.020,207.000 392.800 C 206.864 392.580,207.033 392.400,207.376 392.400 C 207.719 392.400,207.955 392.175,207.900 391.900 C 207.845 391.625,208.102 391.398,208.471 391.395 C 208.840 391.392,209.501 390.975,209.941 390.469 C 210.380 389.962,210.888 389.514,211.070 389.474 C 211.251 389.433,211.355 389.265,211.300 389.100 C 211.245 388.935,211.425 388.845,211.700 388.900 C 211.975 388.955,212.151 388.762,212.090 388.470 C 212.030 388.179,212.142 388.040,212.339 388.162 C 212.536 388.284,213.170 387.813,213.749 387.115 C 214.327 386.417,214.800 385.974,214.800 386.131 C 214.800 386.288,215.763 385.467,216.941 384.308 C 218.118 383.149,219.019 382.084,218.943 381.942 C 218.867 381.800,219.074 381.581,219.402 381.454 C 219.731 381.328,220.000 380.939,220.000 380.589 C 220.000 380.239,220.180 380.064,220.400 380.200 C 220.620 380.336,220.800 380.167,220.800 379.824 C 220.800 379.481,220.962 379.245,221.160 379.300 C 221.358 379.355,221.573 379.220,221.638 379.000 C 221.791 378.477,222.545 377.659,222.800 377.738 C 222.910 377.772,223.049 377.669,223.109 377.509 C 223.272 377.070,226.970 373.325,227.200 373.365 C 227.310 373.384,227.480 373.220,227.578 373.000 C 227.892 372.293,228.589 371.675,229.000 371.738 C 229.220 371.772,229.355 371.575,229.300 371.300 C 229.245 371.025,229.481 370.800,229.824 370.800 C 230.167 370.800,230.336 370.620,230.200 370.400 C 230.064 370.180,230.239 370.000,230.589 370.000 C 230.939 370.000,231.328 369.731,231.454 369.402 C 231.581 369.074,231.800 368.867,231.942 368.943 C 232.084 369.019,233.149 368.118,234.308 366.941 C 235.467 365.763,236.288 364.800,236.131 364.800 C 235.974 364.800,236.417 364.327,237.115 363.749 C 237.813 363.170,238.284 362.536,238.162 362.339 C 238.040 362.142,238.179 362.030,238.470 362.090 C 238.762 362.151,238.955 361.975,238.900 361.700 C 238.845 361.425,239.025 361.245,239.300 361.300 C 239.575 361.355,239.783 361.220,239.763 361.000 C 239.716 360.502,243.521 356.854,243.798 357.131 C 243.909 357.242,244.000 357.076,244.000 356.762 C 244.000 356.447,244.405 356.005,244.900 355.780 C 245.395 355.555,245.755 355.152,245.700 354.885 C 245.645 354.618,245.881 354.400,246.224 354.400 C 246.567 354.400,246.736 354.220,246.600 354.000 C 246.464 353.780,246.639 353.600,246.989 353.600 C 247.339 353.600,247.728 353.331,247.854 353.002 C 247.981 352.674,248.200 352.467,248.342 352.543 C 248.484 352.619,249.549 351.718,250.708 350.541 C 251.867 349.363,252.677 348.395,252.508 348.388 C 252.339 348.381,252.515 348.192,252.900 347.968 C 253.285 347.744,253.600 347.289,253.600 346.957 C 253.600 346.624,253.780 346.464,254.000 346.600 C 254.220 346.736,254.400 346.567,254.400 346.224 C 254.400 345.881,254.618 345.645,254.885 345.700 C 255.152 345.755,255.555 345.395,255.780 344.900 C 256.005 344.405,256.447 344.000,256.762 344.000 C 257.076 344.000,257.242 343.909,257.131 343.798 C 256.854 343.521,260.502 339.716,261.000 339.763 C 261.220 339.783,261.355 339.575,261.300 339.300 C 261.245 339.025,261.425 338.845,261.700 338.900 C 261.975 338.955,262.151 338.762,262.090 338.470 C 262.030 338.179,262.142 338.040,262.339 338.162 C 262.536 338.284,263.170 337.813,263.749 337.115 C 264.327 336.417,264.800 335.974,264.800 336.131 C 264.800 336.288,265.763 335.467,266.941 334.308 C 268.118 333.149,269.019 332.084,268.943 331.942 C 268.867 331.800,269.074 331.581,269.402 331.454 C 269.731 331.328,270.000 330.939,270.000 330.589 C 270.000 330.239,270.180 330.064,270.400 330.200 C 270.620 330.336,270.800 330.167,270.800 329.824 C 270.800 329.481,270.935 329.245,271.100 329.300 C 271.265 329.355,271.400 329.306,271.400 329.190 C 271.400 328.878,272.568 327.667,272.800 327.738 C 272.910 327.772,273.090 327.628,273.200 327.417 C 273.502 326.839,276.971 323.326,277.200 323.365 C 277.310 323.384,277.480 323.220,277.578 323.000 C 277.892 322.293,278.589 321.675,279.000 321.738 C 279.220 321.772,279.355 321.575,279.300 321.300 C 279.245 321.025,279.481 320.800,279.824 320.800 C 280.167 320.800,280.336 320.620,280.200 320.400 C 280.064 320.180,280.239 320.000,280.589 320.000 C 280.939 320.000,281.328 319.731,281.454 319.402 C 281.581 319.074,281.800 318.867,281.942 318.943 C 282.084 319.019,283.149 318.118,284.308 316.941 C 285.467 315.763,286.288 314.800,286.131 314.800 C 285.974 314.800,286.417 314.327,287.115 313.749 C 287.813 313.170,288.284 312.536,288.162 312.339 C 288.040 312.142,288.179 312.030,288.470 312.090 C 288.762 312.151,288.955 311.975,288.900 311.700 C 288.845 311.425,289.025 311.245,289.300 311.300 C 289.575 311.355,289.783 311.220,289.763 311.000 C 289.716 310.502,293.521 306.854,293.798 307.131 C 293.909 307.242,294.000 307.076,294.000 306.762 C 294.000 306.447,294.405 306.005,294.900 305.780 C 295.395 305.555,295.755 305.152,295.700 304.885 C 295.645 304.618,295.881 304.400,296.224 304.400 C 296.567 304.400,296.736 304.220,296.600 304.000 C 296.464 303.780,296.639 303.600,296.989 303.600 C 297.339 303.600,297.728 303.331,297.854 303.002 C 297.981 302.674,298.200 302.467,298.342 302.543 C 298.484 302.619,299.549 301.718,300.708 300.541 C 301.867 299.363,302.677 298.395,302.508 298.388 C 302.339 298.381,302.515 298.192,302.900 297.968 C 303.285 297.744,303.600 297.289,303.600 296.957 C 303.600 296.624,303.780 296.464,304.000 296.600 C 304.220 296.736,304.400 296.567,304.400 296.224 C 304.400 295.881,304.618 295.645,304.885 295.700 C 305.152 295.755,305.555 295.395,305.780 294.900 C 306.005 294.405,306.447 294.000,306.762 294.000 C 307.076 294.000,307.242 293.909,307.131 293.798 C 306.854 293.521,310.502 289.716,311.000 289.763 C 311.220 289.783,311.355 289.575,311.300 289.300 C 311.245 289.025,311.425 288.845,311.700 288.900 C 311.975 288.955,312.151 288.762,312.090 288.470 C 312.030 288.179,312.142 288.040,312.339 288.162 C 312.536 288.284,313.170 287.813,313.749 287.115 C 314.327 286.417,314.800 285.974,314.800 286.131 C 314.800 286.288,315.763 285.467,316.941 284.308 C 318.118 283.149,319.019 282.084,318.943 281.942 C 318.867 281.800,319.074 281.581,319.402 281.454 C 319.731 281.328,320.000 280.939,320.000 280.589 C 320.000 280.239,320.180 280.064,320.400 280.200 C 320.620 280.336,320.800 280.167,320.800 279.824 C 320.800 279.481,321.025 279.245,321.300 279.300 C 321.575 279.355,321.772 279.220,321.738 279.000 C 321.674 278.581,322.828 277.356,323.190 277.460 C 323.306 277.493,323.384 277.403,323.365 277.260 C 323.324 276.952,327.085 273.239,327.509 273.169 C 327.669 273.142,327.772 273.003,327.738 272.860 C 327.665 272.550,328.436 271.804,329.000 271.638 C 329.220 271.573,329.355 271.358,329.300 271.160 C 329.245 270.962,329.481 270.800,329.824 270.800 C 330.167 270.800,330.336 270.620,330.200 270.400 C 330.064 270.180,330.239 270.000,330.589 270.000 C 330.939 270.000,331.328 269.731,331.454 269.402 C 331.581 269.074,331.800 268.867,331.942 268.943 C 332.084 269.019,333.149 268.118,334.308 266.941 C 335.467 265.763,336.288 264.800,336.131 264.800 C 335.974 264.800,336.417 264.327,337.115 263.749 C 337.813 263.170,338.284 262.536,338.162 262.339 C 338.040 262.142,338.179 262.030,338.470 262.090 C 338.762 262.151,338.955 261.975,338.900 261.700 C 338.845 261.425,339.025 261.245,339.300 261.300 C 339.575 261.355,339.783 261.220,339.763 261.000 C 339.716 260.502,343.521 256.854,343.798 257.131 C 343.909 257.242,344.000 257.076,344.000 256.762 C 344.000 256.447,344.405 256.005,344.900 255.780 C 345.395 255.555,345.755 255.152,345.700 254.885 C 345.645 254.618,345.881 254.400,346.224 254.400 C 346.567 254.400,346.736 254.220,346.600 254.000 C 346.464 253.780,346.639 253.600,346.989 253.600 C 347.339 253.600,347.728 253.331,347.854 253.002 C 347.981 252.674,348.200 252.467,348.342 252.543 C 348.484 252.619,349.549 251.718,350.708 250.541 C 351.867 249.363,352.677 248.395,352.508 248.388 C 352.339 248.381,352.515 248.192,352.900 247.968 C 353.285 247.744,353.600 247.289,353.600 246.957 C 353.600 246.624,353.780 246.464,354.000 246.600 C 354.220 246.736,354.400 246.567,354.400 246.224 C 354.400 245.881,354.618 245.645,354.885 245.700 C 355.152 245.755,355.555 245.395,355.780 244.900 C 356.005 244.405,356.447 244.000,356.762 244.000 C 357.076 244.000,357.242 243.909,357.131 243.798 C 356.854 243.521,360.502 239.716,361.000 239.763 C 361.220 239.783,361.355 239.575,361.300 239.300 C 361.245 239.025,361.425 238.845,361.700 238.900 C 361.975 238.955,362.151 238.762,362.090 238.470 C 362.030 238.179,362.142 238.040,362.339 238.162 C 362.536 238.284,363.170 237.813,363.749 237.115 C 364.327 236.417,364.800 235.974,364.800 236.131 C 364.800 236.288,365.763 235.467,366.941 234.308 C 368.118 233.149,369.019 232.084,368.943 231.942 C 368.867 231.800,369.074 231.581,369.402 231.454 C 369.731 231.328,370.000 230.939,370.000 230.589 C 370.000 230.239,370.180 230.064,370.400 230.200 C 370.620 230.336,370.800 230.167,370.800 229.824 C 370.800 229.481,371.025 229.245,371.300 229.300 C 371.575 229.355,371.772 229.220,371.738 229.000 C 371.671 228.567,372.357 227.827,373.000 227.638 C 373.220 227.573,373.384 227.403,373.365 227.260 C 373.324 226.951,377.310 223.014,377.600 223.077 C 377.710 223.101,377.772 223.003,377.738 222.860 C 377.665 222.552,378.887 221.373,379.190 221.460 C 379.306 221.493,379.355 221.358,379.300 221.160 C 379.245 220.962,379.481 220.800,379.824 220.800 C 380.167 220.800,380.336 220.620,380.200 220.400 C 380.064 220.180,380.239 220.000,380.589 220.000 C 380.939 220.000,381.328 219.731,381.454 219.402 C 381.581 219.074,381.800 218.867,381.942 218.943 C 382.084 219.019,383.149 218.118,384.308 216.941 C 385.467 215.763,386.288 214.800,386.131 214.800 C 385.974 214.800,386.417 214.327,387.115 213.749 C 387.813 213.170,388.284 212.536,388.162 212.339 C 388.040 212.142,388.179 212.030,388.470 212.090 C 388.762 212.151,388.955 211.975,388.900 211.700 C 388.845 211.425,389.025 211.245,389.300 211.300 C 389.575 211.355,389.783 211.220,389.763 211.000 C 389.716 210.502,393.521 206.854,393.798 207.131 C 393.909 207.242,394.000 207.076,394.000 206.762 C 394.000 206.447,394.405 206.005,394.900 205.780 C 395.395 205.555,395.755 205.152,395.700 204.885 C 395.645 204.618,395.881 204.400,396.224 204.400 C 396.567 204.400,396.736 204.220,396.600 204.000 C 396.464 203.780,396.639 203.600,396.989 203.600 C 397.339 203.600,397.728 203.331,397.854 203.002 C 397.981 202.674,398.245 202.504,398.442 202.626 C 398.639 202.748,398.800 202.492,398.800 202.057 C 398.800 201.622,399.025 201.192,399.300 201.100 C 399.697 200.968,399.825 184.258,399.922 119.767 C 400.039 41.492,399.949 30.937,399.163 31.423 C 398.963 31.546,398.800 31.017,398.800 30.247 C 398.800 29.477,398.620 28.736,398.400 28.600 C 398.180 28.464,398.000 27.913,398.000 27.376 C 398.000 26.839,397.820 26.400,397.600 26.400 C 397.380 26.400,397.200 26.040,397.200 25.600 C 397.200 25.160,397.020 24.800,396.800 24.800 C 396.580 24.800,396.400 24.440,396.400 24.000 C 396.400 23.560,396.220 23.200,396.000 23.200 C 395.780 23.200,395.600 22.840,395.600 22.400 C 395.600 21.960,395.420 21.600,395.200 21.600 C 394.980 21.600,394.800 21.352,394.800 21.049 C 394.800 20.746,394.511 20.258,394.158 19.965 C 393.805 19.673,393.356 19.010,393.159 18.492 C 392.962 17.975,392.623 17.662,392.405 17.797 C 392.178 17.937,392.111 17.777,392.247 17.421 C 392.406 17.009,392.255 16.800,391.800 16.800 C 391.341 16.800,391.194 16.592,391.356 16.170 C 391.610 15.510,390.675 14.258,390.248 14.686 C 390.111 14.822,390.000 14.710,390.000 14.438 C 390.000 13.746,388.961 12.779,388.583 13.119 C 388.412 13.274,388.386 13.199,388.526 12.953 C 388.849 12.389,387.462 11.095,386.968 11.499 C 386.765 11.665,386.726 11.644,386.881 11.452 C 387.214 11.040,386.270 10.000,385.562 10.000 C 385.290 10.000,385.178 9.889,385.314 9.752 C 385.742 9.325,384.490 8.390,383.830 8.644 C 383.408 8.806,383.200 8.659,383.200 8.200 C 383.200 7.745,382.991 7.594,382.579 7.753 C 382.223 7.889,382.063 7.822,382.203 7.595 C 382.338 7.377,382.025 7.038,381.508 6.841 C 380.990 6.644,380.327 6.195,380.035 5.842 C 379.742 5.489,379.254 5.200,378.951 5.200 C 378.648 5.200,378.400 5.020,378.400 4.800 C 378.400 4.580,378.040 4.400,377.600 4.400 C 377.160 4.400,376.800 4.220,376.800 4.000 C 376.800 3.780,376.440 3.600,376.000 3.600 C 375.560 3.600,375.200 3.420,375.200 3.200 C 375.200 2.980,374.840 2.800,374.400 2.800 C 373.960 2.800,373.600 2.620,373.600 2.400 C 373.600 2.180,373.161 2.000,372.624 2.000 C 372.087 2.000,371.536 1.820,371.400 1.600 C 371.264 1.380,370.523 1.200,369.753 1.200 C 368.983 1.200,368.448 1.046,368.565 0.857 C 369.040 0.088,203.632 -0.475,199.700 0.282 M300.542 90.993 C 300.672 91.331,301.035 91.485,301.385 91.350 C 301.781 91.198,302.000 91.343,302.000 91.757 C 302.000 92.111,302.274 92.400,302.609 92.400 C 303.401 92.400,307.600 96.599,307.600 97.391 C 307.600 97.726,307.889 98.000,308.243 98.000 C 308.657 98.000,308.802 98.219,308.650 98.615 C 308.515 98.965,308.669 99.328,309.007 99.458 C 309.473 99.637,309.600 100.490,309.600 103.430 C 309.600 106.482,309.496 107.135,309.038 106.959 C 308.618 106.798,308.492 107.080,308.538 108.072 C 308.579 108.946,308.429 109.366,308.100 109.300 C 307.825 109.245,307.645 109.425,307.700 109.700 C 307.755 109.975,307.552 110.147,307.249 110.083 C 306.875 110.004,306.765 110.224,306.908 110.769 C 307.034 111.250,306.934 111.538,306.659 111.486 C 306.407 111.439,306.249 111.638,306.310 111.930 C 306.370 112.221,306.234 112.345,306.007 112.204 C 305.780 112.064,305.484 112.236,305.350 112.587 C 305.182 113.024,304.838 113.142,304.253 112.962 C 303.784 112.818,303.533 112.841,303.697 113.014 C 304.172 113.516,303.187 114.400,302.151 114.400 C 301.628 114.400,301.200 114.580,301.200 114.800 C 301.200 115.020,300.761 115.200,300.224 115.200 C 299.687 115.200,299.136 115.380,299.000 115.600 C 298.864 115.820,297.863 116.000,296.776 116.000 C 295.689 116.000,294.800 115.820,294.800 115.600 C 294.800 115.380,294.260 115.200,293.600 115.200 C 292.940 115.200,292.400 115.020,292.400 114.800 C 292.400 114.580,292.040 114.400,291.600 114.400 C 291.160 114.400,290.800 114.220,290.800 114.000 C 290.800 113.780,290.440 113.600,290.000 113.600 C 289.560 113.600,289.200 113.409,289.200 113.176 C 289.200 112.943,288.975 112.882,288.700 113.041 C 288.425 113.199,288.335 113.179,288.501 112.997 C 288.904 112.552,287.603 111.151,287.085 111.471 C 286.851 111.616,286.798 111.526,286.962 111.262 C 287.119 111.008,287.057 110.800,286.824 110.800 C 286.591 110.800,286.400 110.440,286.400 110.000 C 286.400 109.560,286.220 109.200,286.000 109.200 C 285.780 109.200,285.600 108.840,285.600 108.400 C 285.600 107.960,285.420 107.600,285.200 107.600 C 284.980 107.600,284.800 107.060,284.800 106.400 C 284.800 105.740,284.620 105.200,284.400 105.200 C 284.180 105.200,284.000 104.311,284.000 103.224 C 284.000 102.137,284.180 101.136,284.400 101.000 C 284.620 100.864,284.800 100.313,284.800 99.776 C 284.800 99.239,284.980 98.800,285.200 98.800 C 285.420 98.800,285.600 98.395,285.601 97.900 C 285.601 97.405,286.131 96.381,286.778 95.624 C 287.424 94.868,287.861 94.098,287.747 93.914 C 287.633 93.731,287.779 93.630,288.070 93.690 C 288.362 93.751,288.561 93.593,288.514 93.341 C 288.462 93.066,288.750 92.966,289.231 93.092 C 289.776 93.235,289.996 93.125,289.917 92.751 C 289.853 92.448,290.025 92.245,290.300 92.300 C 290.575 92.355,290.755 92.175,290.700 91.900 C 290.634 91.571,291.054 91.421,291.928 91.462 C 292.920 91.508,293.202 91.382,293.041 90.962 C 292.865 90.504,293.518 90.400,296.570 90.400 C 299.510 90.400,300.363 90.527,300.542 90.993 M283.487 104.300 C 283.395 104.905,283.320 104.410,283.320 103.200 C 283.320 101.990,283.395 101.495,283.487 102.100 C 283.578 102.705,283.578 103.695,283.487 104.300 M297.900 116.687 C 297.295 116.778,296.305 116.778,295.700 116.687 C 295.095 116.595,295.590 116.520,296.800 116.520 C 298.010 116.520,298.505 116.595,297.900 116.687 " stroke="none" fill="#f4f4f4" fill-rule="evenodd"></path><path id="path1" d="M191.827 7.141 L 191.055 8.200 192.027 7.404 C 192.562 6.967,193.057 6.580,193.127 6.544 C 193.196 6.509,193.106 6.391,192.927 6.281 C 192.747 6.172,192.252 6.559,191.827 7.141 M189.668 9.141 C 189.199 9.548,188.928 9.995,189.067 10.133 C 189.205 10.272,189.652 10.001,190.059 9.532 C 191.229 8.183,191.017 7.971,189.668 9.141 M175.782 22.942 C 175.213 23.566,174.717 24.400,174.915 24.400 C 175.351 24.400,176.798 22.847,176.520 22.678 C 176.344 22.571,176.012 22.690,175.782 22.942 M173.268 25.541 C 172.799 25.948,172.528 26.395,172.667 26.533 C 172.805 26.672,173.252 26.401,173.659 25.932 C 174.829 24.583,174.617 24.371,173.268 25.541 M171.304 27.421 C 171.031 27.716,170.941 28.038,171.104 28.137 C 171.267 28.235,171.623 28.074,171.896 27.779 C 172.169 27.484,172.259 27.162,172.096 27.063 C 171.933 26.965,171.577 27.126,171.304 27.421 M159.382 39.342 C 158.813 39.966,158.317 40.800,158.515 40.800 C 158.951 40.800,160.398 39.247,160.120 39.078 C 159.944 38.971,159.612 39.090,159.382 39.342 M156.891 41.984 C 156.392 42.401,156.122 42.827,156.291 42.930 C 156.461 43.033,156.923 42.686,157.319 42.159 C 158.178 41.012,158.097 40.979,156.891 41.984 M141.827 57.141 L 141.055 58.200 142.027 57.404 C 142.562 56.967,143.057 56.580,143.127 56.544 C 143.196 56.509,143.106 56.391,142.927 56.281 C 142.747 56.172,142.252 56.559,141.827 57.141 M139.668 59.141 C 139.199 59.548,138.928 59.995,139.067 60.133 C 139.205 60.272,139.652 60.001,140.059 59.532 C 141.229 58.183,141.017 57.971,139.668 59.141 M127.304 71.421 C 127.031 71.716,126.941 72.038,127.104 72.137 C 127.267 72.235,127.623 72.074,127.896 71.779 C 128.169 71.484,128.259 71.162,128.096 71.063 C 127.933 70.965,127.577 71.126,127.304 71.421 M125.782 72.942 C 125.213 73.566,124.717 74.400,124.915 74.400 C 125.351 74.400,126.798 72.847,126.520 72.678 C 126.344 72.571,126.012 72.690,125.782 72.942 M123.268 75.541 C 122.799 75.948,122.528 76.395,122.667 76.533 C 122.805 76.672,123.252 76.401,123.659 75.932 C 124.829 74.583,124.617 74.371,123.268 75.541 M121.304 77.421 C 121.031 77.716,120.941 78.038,121.104 78.137 C 121.267 78.235,121.623 78.074,121.896 77.779 C 122.169 77.484,122.259 77.162,122.096 77.063 C 121.933 76.965,121.577 77.126,121.304 77.421 M109.382 89.342 C 108.813 89.966,108.317 90.800,108.515 90.800 C 108.951 90.800,110.398 89.247,110.120 89.078 C 109.944 88.971,109.612 89.090,109.382 89.342 M293.020 90.773 C 293.642 91.383,300.740 91.503,300.507 90.900 C 300.372 90.548,299.177 90.400,296.477 90.400 C 294.101 90.400,292.785 90.542,293.020 90.773 M106.891 91.984 C 106.392 92.401,106.122 92.827,106.291 92.930 C 106.461 93.033,106.923 92.686,107.319 92.159 C 108.178 91.012,108.097 90.979,106.891 91.984 M290.236 91.960 C 289.786 92.458,289.695 92.812,289.974 92.984 C 290.208 93.129,290.400 92.956,290.400 92.600 C 290.400 92.244,290.580 92.064,290.800 92.200 C 291.020 92.336,291.200 92.270,291.200 92.053 C 291.200 91.836,291.515 91.576,291.900 91.476 C 292.464 91.328,292.437 91.284,291.762 91.246 C 291.301 91.221,290.614 91.542,290.236 91.960 M284.000 99.776 C 284.000 100.313,284.147 100.844,284.328 100.955 C 284.508 101.067,284.577 100.627,284.482 99.979 C 284.272 98.549,284.000 98.435,284.000 99.776 M308.727 102.950 C 308.902 107.966,309.600 108.424,309.600 103.523 C 309.600 100.823,309.452 99.628,309.100 99.493 C 308.717 99.345,308.630 100.153,308.727 102.950 M283.320 103.200 C 283.320 104.410,283.395 104.905,283.487 104.300 C 283.578 103.695,283.578 102.705,283.487 102.100 C 283.395 101.495,283.320 101.990,283.320 103.200 M91.827 107.141 L 91.055 108.200 92.027 107.404 C 92.562 106.967,93.057 106.580,93.127 106.544 C 93.196 106.509,93.106 106.391,92.927 106.281 C 92.747 106.172,92.252 106.559,91.827 107.141 M308.446 108.100 C 308.421 108.485,308.209 108.800,307.976 108.800 C 307.743 108.800,307.664 108.980,307.800 109.200 C 307.936 109.420,307.756 109.600,307.400 109.600 C 307.031 109.600,306.870 109.789,307.025 110.040 C 307.444 110.719,308.915 109.044,308.685 108.150 C 308.516 107.491,308.487 107.485,308.446 108.100 M89.668 109.141 C 89.199 109.548,88.928 109.995,89.067 110.133 C 89.205 110.272,89.652 110.001,90.059 109.532 C 91.229 108.183,91.017 107.971,89.668 109.141 M299.141 115.701 C 299.343 115.903,299.933 116.001,300.454 115.919 C 301.255 115.793,301.198 115.737,300.087 115.552 C 299.293 115.421,298.919 115.479,299.141 115.701 M295.700 116.687 C 296.305 116.778,297.295 116.778,297.900 116.687 C 298.505 116.595,298.010 116.520,296.800 116.520 C 295.590 116.520,295.095 116.595,295.700 116.687 M77.304 121.421 C 77.031 121.716,76.941 122.038,77.104 122.137 C 77.267 122.235,77.623 122.074,77.896 121.779 C 78.169 121.484,78.259 121.162,78.096 121.063 C 77.933 120.965,77.577 121.126,77.304 121.421 M75.782 122.942 C 75.213 123.566,74.717 124.400,74.915 124.400 C 75.351 124.400,76.798 122.847,76.520 122.678 C 76.344 122.571,76.012 122.690,75.782 122.942 M73.268 125.541 C 72.799 125.948,72.528 126.395,72.667 126.533 C 72.805 126.672,73.252 126.401,73.659 125.932 C 74.829 124.583,74.617 124.371,73.268 125.541 M71.304 127.421 C 71.031 127.716,70.941 128.038,71.104 128.137 C 71.267 128.235,71.623 128.074,71.896 127.779 C 72.169 127.484,72.259 127.162,72.096 127.063 C 71.933 126.965,71.577 127.126,71.304 127.421 M59.382 139.342 C 58.813 139.966,58.317 140.800,58.515 140.800 C 58.951 140.800,60.398 139.247,60.120 139.078 C 59.944 138.971,59.612 139.090,59.382 139.342 M56.891 141.984 C 56.392 142.401,56.122 142.827,56.291 142.930 C 56.461 143.033,56.923 142.686,57.319 142.159 C 58.178 141.012,58.097 140.979,56.891 141.984 M41.827 157.141 L 41.055 158.200 42.027 157.404 C 42.562 156.967,43.057 156.580,43.127 156.544 C 43.196 156.509,43.106 156.391,42.927 156.281 C 42.747 156.172,42.252 156.559,41.827 157.141 M39.668 159.141 C 39.199 159.548,38.928 159.995,39.067 160.133 C 39.205 160.272,39.652 160.001,40.059 159.532 C 41.229 158.183,41.017 157.971,39.668 159.141 M27.304 171.421 C 27.031 171.716,26.941 172.038,27.104 172.137 C 27.267 172.235,27.623 172.074,27.896 171.779 C 28.169 171.484,28.259 171.162,28.096 171.063 C 27.933 170.965,27.577 171.126,27.304 171.421 M25.782 172.942 C 25.213 173.566,24.717 174.400,24.915 174.400 C 25.351 174.400,26.798 172.847,26.520 172.678 C 26.344 172.571,26.012 172.690,25.782 172.942 M23.268 175.541 C 22.799 175.948,22.528 176.395,22.667 176.533 C 22.805 176.672,23.252 176.401,23.659 175.932 C 24.829 174.583,24.617 174.371,23.268 175.541 M9.382 189.342 C 8.813 189.966,8.317 190.800,8.515 190.800 C 8.951 190.800,10.398 189.247,10.120 189.078 C 9.944 188.971,9.612 189.090,9.382 189.342 M392.627 207.941 L 391.855 209.000 392.827 208.204 C 393.362 207.767,393.857 207.380,393.927 207.344 C 393.996 207.309,393.906 207.191,393.727 207.081 C 393.547 206.972,393.052 207.359,392.627 207.941 M390.468 209.941 C 389.999 210.348,389.728 210.795,389.867 210.933 C 390.080 211.147,391.600 209.749,391.600 209.339 C 391.600 209.059,391.303 209.217,390.468 209.941 M378.104 222.221 C 377.831 222.516,377.741 222.838,377.904 222.937 C 378.067 223.035,378.423 222.874,378.696 222.579 C 378.969 222.284,379.059 221.962,378.896 221.863 C 378.733 221.765,378.377 221.926,378.104 222.221 M376.582 223.742 C 376.013 224.366,375.517 225.200,375.715 225.200 C 376.151 225.200,377.598 223.647,377.320 223.478 C 377.144 223.371,376.812 223.490,376.582 223.742 M374.068 226.341 C 373.599 226.748,373.328 227.195,373.467 227.333 C 373.680 227.547,375.200 226.149,375.200 225.739 C 375.200 225.459,374.903 225.617,374.068 226.341 M372.104 228.221 C 371.831 228.516,371.741 228.838,371.904 228.937 C 372.067 229.035,372.423 228.874,372.696 228.579 C 372.969 228.284,373.059 227.962,372.896 227.863 C 372.733 227.765,372.377 227.926,372.104 228.221 M360.182 240.142 C 359.613 240.766,359.117 241.600,359.315 241.600 C 359.751 241.600,361.198 240.047,360.920 239.878 C 360.744 239.771,360.412 239.890,360.182 240.142 M357.691 242.784 C 357.192 243.201,356.922 243.627,357.091 243.730 C 357.261 243.833,357.723 243.486,358.119 242.959 C 358.978 241.812,358.897 241.779,357.691 242.784 M13.367 251.425 C 14.078 252.135,14.267 252.147,14.267 251.480 C 14.267 251.194,13.935 250.935,13.529 250.905 C 12.888 250.856,12.867 250.924,13.367 251.425 M342.627 257.941 L 341.855 259.000 342.827 258.204 C 343.362 257.767,343.857 257.380,343.927 257.344 C 343.996 257.309,343.906 257.191,343.727 257.081 C 343.547 256.972,343.052 257.359,342.627 257.941 M340.468 259.941 C 339.999 260.348,339.728 260.795,339.867 260.933 C 340.080 261.147,341.600 259.749,341.600 259.339 C 341.600 259.059,341.303 259.217,340.468 259.941 M328.104 272.221 C 327.831 272.516,327.741 272.838,327.904 272.937 C 328.067 273.035,328.423 272.874,328.696 272.579 C 328.969 272.284,329.059 271.962,328.896 271.863 C 328.733 271.765,328.377 271.926,328.104 272.221 M326.582 273.742 C 326.013 274.366,325.517 275.200,325.715 275.200 C 326.151 275.200,327.598 273.647,327.320 273.478 C 327.144 273.371,326.812 273.490,326.582 273.742 M324.068 276.341 C 323.599 276.748,323.328 277.195,323.467 277.333 C 323.680 277.547,325.200 276.149,325.200 275.739 C 325.200 275.459,324.903 275.617,324.068 276.341 M322.104 278.221 C 321.831 278.516,321.741 278.838,321.904 278.937 C 322.067 279.035,322.423 278.874,322.696 278.579 C 322.969 278.284,323.059 277.962,322.896 277.863 C 322.733 277.765,322.377 277.926,322.104 278.221 M48.000 285.895 C 48.000 285.984,48.259 286.316,48.575 286.633 C 49.076 287.133,49.144 287.112,49.095 286.471 C 49.051 285.876,48.000 285.324,48.000 285.895 M310.182 290.142 C 309.613 290.766,309.117 291.600,309.315 291.600 C 309.751 291.600,311.198 290.047,310.920 289.878 C 310.744 289.771,310.412 289.890,310.182 290.142 M307.691 292.784 C 307.192 293.201,306.922 293.627,307.091 293.730 C 307.261 293.833,307.723 293.486,308.119 292.959 C 308.978 291.812,308.897 291.779,307.691 292.784 M63.367 301.425 C 64.078 302.135,64.267 302.147,64.267 301.480 C 64.267 301.194,63.935 300.935,63.529 300.905 C 62.888 300.856,62.867 300.924,63.367 301.425 M292.627 307.941 L 291.855 309.000 292.827 308.204 C 293.362 307.767,293.857 307.380,293.927 307.344 C 293.996 307.309,293.906 307.191,293.727 307.081 C 293.547 306.972,293.052 307.359,292.627 307.941 M290.468 309.941 C 289.999 310.348,289.728 310.795,289.867 310.933 C 290.080 311.147,291.600 309.749,291.600 309.339 C 291.600 309.059,291.303 309.217,290.468 309.941 M278.104 322.221 C 277.831 322.516,277.741 322.838,277.904 322.937 C 278.067 323.035,278.423 322.874,278.696 322.579 C 278.969 322.284,279.059 321.962,278.896 321.863 C 278.733 321.765,278.377 321.926,278.104 322.221 M276.582 323.742 C 276.013 324.366,275.517 325.200,275.715 325.200 C 276.151 325.200,277.598 323.647,277.320 323.478 C 277.144 323.371,276.812 323.490,276.582 323.742 M274.068 326.341 C 273.599 326.748,273.328 327.195,273.467 327.333 C 273.680 327.547,275.200 326.149,275.200 325.739 C 275.200 325.459,274.903 325.617,274.068 326.341 M272.104 328.221 C 271.831 328.516,271.741 328.838,271.904 328.937 C 272.067 329.035,272.423 328.874,272.696 328.579 C 272.969 328.284,273.059 327.962,272.896 327.863 C 272.733 327.765,272.377 327.926,272.104 328.221 M260.182 340.142 C 259.613 340.766,259.117 341.600,259.315 341.600 C 259.751 341.600,261.198 340.047,260.920 339.878 C 260.744 339.771,260.412 339.890,260.182 340.142 M257.691 342.784 C 257.192 343.201,256.922 343.627,257.091 343.730 C 257.261 343.833,257.723 343.486,258.119 342.959 C 258.978 341.812,258.897 341.779,257.691 342.784 M242.627 357.941 L 241.855 359.000 242.827 358.204 C 243.362 357.767,243.857 357.380,243.927 357.344 C 243.996 357.309,243.906 357.191,243.727 357.081 C 243.547 356.972,243.052 357.359,242.627 357.941 M240.468 359.941 C 239.999 360.348,239.728 360.795,239.867 360.933 C 240.080 361.147,241.600 359.749,241.600 359.339 C 241.600 359.059,241.303 359.217,240.468 359.941 M228.104 372.221 C 227.831 372.516,227.741 372.838,227.904 372.937 C 228.067 373.035,228.423 372.874,228.696 372.579 C 228.969 372.284,229.059 371.962,228.896 371.863 C 228.733 371.765,228.377 371.926,228.104 372.221 M226.582 373.742 C 226.013 374.366,225.517 375.200,225.715 375.200 C 226.151 375.200,227.598 373.647,227.320 373.478 C 227.144 373.371,226.812 373.490,226.582 373.742 M224.068 376.341 C 223.599 376.748,223.328 377.195,223.467 377.333 C 223.680 377.547,225.200 376.149,225.200 375.739 C 225.200 375.459,224.903 375.617,224.068 376.341 M222.104 378.221 C 221.831 378.516,221.741 378.838,221.904 378.937 C 222.067 379.035,222.423 378.874,222.696 378.579 C 222.969 378.284,223.059 377.962,222.896 377.863 C 222.733 377.765,222.377 377.926,222.104 378.221 M210.182 390.142 C 209.613 390.766,209.117 391.600,209.315 391.600 C 209.751 391.600,211.198 390.047,210.920 389.878 C 210.744 389.771,210.412 389.890,210.182 390.142 " stroke="none" fill="#f8f4f4" fill-rule="evenodd"></path><path id="path2" d="M191.827 7.141 L 191.055 8.200 192.027 7.404 C 192.562 6.967,193.057 6.580,193.127 6.544 C 193.196 6.509,193.106 6.391,192.927 6.281 C 192.747 6.172,192.252 6.559,191.827 7.141 M189.668 9.141 C 189.199 9.548,188.928 9.995,189.067 10.133 C 189.205 10.272,189.652 10.001,190.059 9.532 C 191.229 8.183,191.017 7.971,189.668 9.141 M175.782 22.942 C 175.213 23.566,174.717 24.400,174.915 24.400 C 175.351 24.400,176.798 22.847,176.520 22.678 C 176.344 22.571,176.012 22.690,175.782 22.942 M173.268 25.541 C 172.799 25.948,172.528 26.395,172.667 26.533 C 172.805 26.672,173.252 26.401,173.659 25.932 C 174.829 24.583,174.617 24.371,173.268 25.541 M171.304 27.421 C 171.031 27.716,170.941 28.038,171.104 28.137 C 171.267 28.235,171.623 28.074,171.896 27.779 C 172.169 27.484,172.259 27.162,172.096 27.063 C 171.933 26.965,171.577 27.126,171.304 27.421 M159.382 39.342 C 158.813 39.966,158.317 40.800,158.515 40.800 C 158.951 40.800,160.398 39.247,160.120 39.078 C 159.944 38.971,159.612 39.090,159.382 39.342 M156.891 41.984 C 156.392 42.401,156.122 42.827,156.291 42.930 C 156.461 43.033,156.923 42.686,157.319 42.159 C 158.178 41.012,158.097 40.979,156.891 41.984 M141.827 57.141 L 141.055 58.200 142.027 57.404 C 142.562 56.967,143.057 56.580,143.127 56.544 C 143.196 56.509,143.106 56.391,142.927 56.281 C 142.747 56.172,142.252 56.559,141.827 57.141 M139.668 59.141 C 139.199 59.548,138.928 59.995,139.067 60.133 C 139.205 60.272,139.652 60.001,140.059 59.532 C 141.229 58.183,141.017 57.971,139.668 59.141 M127.304 71.421 C 127.031 71.716,126.941 72.038,127.104 72.137 C 127.267 72.235,127.623 72.074,127.896 71.779 C 128.169 71.484,128.259 71.162,128.096 71.063 C 127.933 70.965,127.577 71.126,127.304 71.421 M125.782 72.942 C 125.213 73.566,124.717 74.400,124.915 74.400 C 125.351 74.400,126.798 72.847,126.520 72.678 C 126.344 72.571,126.012 72.690,125.782 72.942 M123.268 75.541 C 122.799 75.948,122.528 76.395,122.667 76.533 C 122.805 76.672,123.252 76.401,123.659 75.932 C 124.829 74.583,124.617 74.371,123.268 75.541 M121.304 77.421 C 121.031 77.716,120.941 78.038,121.104 78.137 C 121.267 78.235,121.623 78.074,121.896 77.779 C 122.169 77.484,122.259 77.162,122.096 77.063 C 121.933 76.965,121.577 77.126,121.304 77.421 M109.382 89.342 C 108.813 89.966,108.317 90.800,108.515 90.800 C 108.951 90.800,110.398 89.247,110.120 89.078 C 109.944 88.971,109.612 89.090,109.382 89.342 M293.020 90.773 C 293.642 91.383,300.740 91.503,300.507 90.900 C 300.372 90.548,299.177 90.400,296.477 90.400 C 294.101 90.400,292.785 90.542,293.020 90.773 M106.891 91.984 C 106.392 92.401,106.122 92.827,106.291 92.930 C 106.461 93.033,106.923 92.686,107.319 92.159 C 108.178 91.012,108.097 90.979,106.891 91.984 M290.236 91.960 C 289.786 92.458,289.695 92.812,289.974 92.984 C 290.208 93.129,290.400 92.956,290.400 92.600 C 290.400 92.244,290.580 92.064,290.800 92.200 C 291.020 92.336,291.200 92.270,291.200 92.053 C 291.200 91.836,291.515 91.576,291.900 91.476 C 292.464 91.328,292.437 91.284,291.762 91.246 C 291.301 91.221,290.614 91.542,290.236 91.960 M284.000 99.776 C 284.000 100.313,284.147 100.844,284.328 100.955 C 284.508 101.067,284.577 100.627,284.482 99.979 C 284.272 98.549,284.000 98.435,284.000 99.776 M308.727 102.950 C 308.902 107.966,309.600 108.424,309.600 103.523 C 309.600 100.823,309.452 99.628,309.100 99.493 C 308.717 99.345,308.630 100.153,308.727 102.950 M283.320 103.200 C 283.320 104.410,283.395 104.905,283.487 104.300 C 283.578 103.695,283.578 102.705,283.487 102.100 C 283.395 101.495,283.320 101.990,283.320 103.200 M91.827 107.141 L 91.055 108.200 92.027 107.404 C 92.562 106.967,93.057 106.580,93.127 106.544 C 93.196 106.509,93.106 106.391,92.927 106.281 C 92.747 106.172,92.252 106.559,91.827 107.141 M308.446 108.100 C 308.421 108.485,308.209 108.800,307.976 108.800 C 307.743 108.800,307.664 108.980,307.800 109.200 C 307.936 109.420,307.756 109.600,307.400 109.600 C 307.031 109.600,306.870 109.789,307.025 110.040 C 307.444 110.719,308.915 109.044,308.685 108.150 C 308.516 107.491,308.487 107.485,308.446 108.100 M89.668 109.141 C 89.199 109.548,88.928 109.995,89.067 110.133 C 89.205 110.272,89.652 110.001,90.059 109.532 C 91.229 108.183,91.017 107.971,89.668 109.141 M299.141 115.701 C 299.343 115.903,299.933 116.001,300.454 115.919 C 301.255 115.793,301.198 115.737,300.087 115.552 C 299.293 115.421,298.919 115.479,299.141 115.701 M295.700 116.687 C 296.305 116.778,297.295 116.778,297.900 116.687 C 298.505 116.595,298.010 116.520,296.800 116.520 C 295.590 116.520,295.095 116.595,295.700 116.687 M77.304 121.421 C 77.031 121.716,76.941 122.038,77.104 122.137 C 77.267 122.235,77.623 122.074,77.896 121.779 C 78.169 121.484,78.259 121.162,78.096 121.063 C 77.933 120.965,77.577 121.126,77.304 121.421 M75.782 122.942 C 75.213 123.566,74.717 124.400,74.915 124.400 C 75.351 124.400,76.798 122.847,76.520 122.678 C 76.344 122.571,76.012 122.690,75.782 122.942 M73.268 125.541 C 72.799 125.948,72.528 126.395,72.667 126.533 C 72.805 126.672,73.252 126.401,73.659 125.932 C 74.829 124.583,74.617 124.371,73.268 125.541 M71.304 127.421 C 71.031 127.716,70.941 128.038,71.104 128.137 C 71.267 128.235,71.623 128.074,71.896 127.779 C 72.169 127.484,72.259 127.162,72.096 127.063 C 71.933 126.965,71.577 127.126,71.304 127.421 M59.382 139.342 C 58.813 139.966,58.317 140.800,58.515 140.800 C 58.951 140.800,60.398 139.247,60.120 139.078 C 59.944 138.971,59.612 139.090,59.382 139.342 M56.891 141.984 C 56.392 142.401,56.122 142.827,56.291 142.930 C 56.461 143.033,56.923 142.686,57.319 142.159 C 58.178 141.012,58.097 140.979,56.891 141.984 M41.827 157.141 L 41.055 158.200 42.027 157.404 C 42.562 156.967,43.057 156.580,43.127 156.544 C 43.196 156.509,43.106 156.391,42.927 156.281 C 42.747 156.172,42.252 156.559,41.827 157.141 M39.668 159.141 C 39.199 159.548,38.928 159.995,39.067 160.133 C 39.205 160.272,39.652 160.001,40.059 159.532 C 41.229 158.183,41.017 157.971,39.668 159.141 M27.304 171.421 C 27.031 171.716,26.941 172.038,27.104 172.137 C 27.267 172.235,27.623 172.074,27.896 171.779 C 28.169 171.484,28.259 171.162,28.096 171.063 C 27.933 170.965,27.577 171.126,27.304 171.421 M25.782 172.942 C 25.213 173.566,24.717 174.400,24.915 174.400 C 25.351 174.400,26.798 172.847,26.520 172.678 C 26.344 172.571,26.012 172.690,25.782 172.942 M23.268 175.541 C 22.799 175.948,22.528 176.395,22.667 176.533 C 22.805 176.672,23.252 176.401,23.659 175.932 C 24.829 174.583,24.617 174.371,23.268 175.541 M9.382 189.342 C 8.813 189.966,8.317 190.800,8.515 190.800 C 8.951 190.800,10.398 189.247,10.120 189.078 C 9.944 188.971,9.612 189.090,9.382 189.342 M392.627 207.941 L 391.855 209.000 392.827 208.204 C 393.362 207.767,393.857 207.380,393.927 207.344 C 393.996 207.309,393.906 207.191,393.727 207.081 C 393.547 206.972,393.052 207.359,392.627 207.941 M390.468 209.941 C 389.999 210.348,389.728 210.795,389.867 210.933 C 390.080 211.147,391.600 209.749,391.600 209.339 C 391.600 209.059,391.303 209.217,390.468 209.941 M378.104 222.221 C 377.831 222.516,377.741 222.838,377.904 222.937 C 378.067 223.035,378.423 222.874,378.696 222.579 C 378.969 222.284,379.059 221.962,378.896 221.863 C 378.733 221.765,378.377 221.926,378.104 222.221 M376.582 223.742 C 376.013 224.366,375.517 225.200,375.715 225.200 C 376.151 225.200,377.598 223.647,377.320 223.478 C 377.144 223.371,376.812 223.490,376.582 223.742 M374.068 226.341 C 373.599 226.748,373.328 227.195,373.467 227.333 C 373.680 227.547,375.200 226.149,375.200 225.739 C 375.200 225.459,374.903 225.617,374.068 226.341 M372.104 228.221 C 371.831 228.516,371.741 228.838,371.904 228.937 C 372.067 229.035,372.423 228.874,372.696 228.579 C 372.969 228.284,373.059 227.962,372.896 227.863 C 372.733 227.765,372.377 227.926,372.104 228.221 M360.182 240.142 C 359.613 240.766,359.117 241.600,359.315 241.600 C 359.751 241.600,361.198 240.047,360.920 239.878 C 360.744 239.771,360.412 239.890,360.182 240.142 M357.691 242.784 C 357.192 243.201,356.922 243.627,357.091 243.730 C 357.261 243.833,357.723 243.486,358.119 242.959 C 358.978 241.812,358.897 241.779,357.691 242.784 M13.367 251.425 C 14.078 252.135,14.267 252.147,14.267 251.480 C 14.267 251.194,13.935 250.935,13.529 250.905 C 12.888 250.856,12.867 250.924,13.367 251.425 M342.627 257.941 L 341.855 259.000 342.827 258.204 C 343.362 257.767,343.857 257.380,343.927 257.344 C 343.996 257.309,343.906 257.191,343.727 257.081 C 343.547 256.972,343.052 257.359,342.627 257.941 M340.468 259.941 C 339.999 260.348,339.728 260.795,339.867 260.933 C 340.080 261.147,341.600 259.749,341.600 259.339 C 341.600 259.059,341.303 259.217,340.468 259.941 M328.104 272.221 C 327.831 272.516,327.741 272.838,327.904 272.937 C 328.067 273.035,328.423 272.874,328.696 272.579 C 328.969 272.284,329.059 271.962,328.896 271.863 C 328.733 271.765,328.377 271.926,328.104 272.221 M326.582 273.742 C 326.013 274.366,325.517 275.200,325.715 275.200 C 326.151 275.200,327.598 273.647,327.320 273.478 C 327.144 273.371,326.812 273.490,326.582 273.742 M324.068 276.341 C 323.599 276.748,323.328 277.195,323.467 277.333 C 323.680 277.547,325.200 276.149,325.200 275.739 C 325.200 275.459,324.903 275.617,324.068 276.341 M322.104 278.221 C 321.831 278.516,321.741 278.838,321.904 278.937 C 322.067 279.035,322.423 278.874,322.696 278.579 C 322.969 278.284,323.059 277.962,322.896 277.863 C 322.733 277.765,322.377 277.926,322.104 278.221 M48.000 285.895 C 48.000 285.984,48.259 286.316,48.575 286.633 C 49.076 287.133,49.144 287.112,49.095 286.471 C 49.051 285.876,48.000 285.324,48.000 285.895 M310.182 290.142 C 309.613 290.766,309.117 291.600,309.315 291.600 C 309.751 291.600,311.198 290.047,310.920 289.878 C 310.744 289.771,310.412 289.890,310.182 290.142 M307.691 292.784 C 307.192 293.201,306.922 293.627,307.091 293.730 C 307.261 293.833,307.723 293.486,308.119 292.959 C 308.978 291.812,308.897 291.779,307.691 292.784 M63.367 301.425 C 64.078 302.135,64.267 302.147,64.267 301.480 C 64.267 301.194,63.935 300.935,63.529 300.905 C 62.888 300.856,62.867 300.924,63.367 301.425 M292.627 307.941 L 291.855 309.000 292.827 308.204 C 293.362 307.767,293.857 307.380,293.927 307.344 C 293.996 307.309,293.906 307.191,293.727 307.081 C 293.547 306.972,293.052 307.359,292.627 307.941 M290.468 309.941 C 289.999 310.348,289.728 310.795,289.867 310.933 C 290.080 311.147,291.600 309.749,291.600 309.339 C 291.600 309.059,291.303 309.217,290.468 309.941 M278.104 322.221 C 277.831 322.516,277.741 322.838,277.904 322.937 C 278.067 323.035,278.423 322.874,278.696 322.579 C 278.969 322.284,279.059 321.962,278.896 321.863 C 278.733 321.765,278.377 321.926,278.104 322.221 M276.582 323.742 C 276.013 324.366,275.517 325.200,275.715 325.200 C 276.151 325.200,277.598 323.647,277.320 323.478 C 277.144 323.371,276.812 323.490,276.582 323.742 M274.068 326.341 C 273.599 326.748,273.328 327.195,273.467 327.333 C 273.680 327.547,275.200 326.149,275.200 325.739 C 275.200 325.459,274.903 325.617,274.068 326.341 M272.104 328.221 C 271.831 328.516,271.741 328.838,271.904 328.937 C 272.067 329.035,272.423 328.874,272.696 328.579 C 272.969 328.284,273.059 327.962,272.896 327.863 C 272.733 327.765,272.377 327.926,272.104 328.221 M260.182 340.142 C 259.613 340.766,259.117 341.600,259.315 341.600 C 259.751 341.600,261.198 340.047,260.920 339.878 C 260.744 339.771,260.412 339.890,260.182 340.142 M257.691 342.784 C 257.192 343.201,256.922 343.627,257.091 343.730 C 257.261 343.833,257.723 343.486,258.119 342.959 C 258.978 341.812,258.897 341.779,257.691 342.784 M242.627 357.941 L 241.855 359.000 242.827 358.204 C 243.362 357.767,243.857 357.380,243.927 357.344 C 243.996 357.309,243.906 357.191,243.727 357.081 C 243.547 356.972,243.052 357.359,242.627 357.941 M240.468 359.941 C 239.999 360.348,239.728 360.795,239.867 360.933 C 240.080 361.147,241.600 359.749,241.600 359.339 C 241.600 359.059,241.303 359.217,240.468 359.941 M228.104 372.221 C 227.831 372.516,227.741 372.838,227.904 372.937 C 228.067 373.035,228.423 372.874,228.696 372.579 C 228.969 372.284,229.059 371.962,228.896 371.863 C 228.733 371.765,228.377 371.926,228.104 372.221 M226.582 373.742 C 226.013 374.366,225.517 375.200,225.715 375.200 C 226.151 375.200,227.598 373.647,227.320 373.478 C 227.144 373.371,226.812 373.490,226.582 373.742 M224.068 376.341 C 223.599 376.748,223.328 377.195,223.467 377.333 C 223.680 377.547,225.200 376.149,225.200 375.739 C 225.200 375.459,224.903 375.617,224.068 376.341 M222.104 378.221 C 221.831 378.516,221.741 378.838,221.904 378.937 C 222.067 379.035,222.423 378.874,222.696 378.579 C 222.969 378.284,223.059 377.962,222.896 377.863 C 222.733 377.765,222.377 377.926,222.104 378.221 M210.182 390.142 C 209.613 390.766,209.117 391.600,209.315 391.600 C 209.751 391.600,211.198 390.047,210.920 389.878 C 210.744 389.771,210.412 389.890,210.182 390.142 " stroke="none" fill="#f8f4f4" fill-rule="evenodd"></path><path id="path3" d="M191.827 7.141 L 191.055 8.200 192.027 7.404 C 192.562 6.967,193.057 6.580,193.127 6.544 C 193.196 6.509,193.106 6.391,192.927 6.281 C 192.747 6.172,192.252 6.559,191.827 7.141 M189.668 9.141 C 189.199 9.548,188.928 9.995,189.067 10.133 C 189.205 10.272,189.652 10.001,190.059 9.532 C 191.229 8.183,191.017 7.971,189.668 9.141 M175.782 22.942 C 175.213 23.566,174.717 24.400,174.915 24.400 C 175.351 24.400,176.798 22.847,176.520 22.678 C 176.344 22.571,176.012 22.690,175.782 22.942 M173.268 25.541 C 172.799 25.948,172.528 26.395,172.667 26.533 C 172.805 26.672,173.252 26.401,173.659 25.932 C 174.829 24.583,174.617 24.371,173.268 25.541 M171.304 27.421 C 171.031 27.716,170.941 28.038,171.104 28.137 C 171.267 28.235,171.623 28.074,171.896 27.779 C 172.169 27.484,172.259 27.162,172.096 27.063 C 171.933 26.965,171.577 27.126,171.304 27.421 M159.382 39.342 C 158.813 39.966,158.317 40.800,158.515 40.800 C 158.951 40.800,160.398 39.247,160.120 39.078 C 159.944 38.971,159.612 39.090,159.382 39.342 M156.891 41.984 C 156.392 42.401,156.122 42.827,156.291 42.930 C 156.461 43.033,156.923 42.686,157.319 42.159 C 158.178 41.012,158.097 40.979,156.891 41.984 M141.827 57.141 L 141.055 58.200 142.027 57.404 C 142.562 56.967,143.057 56.580,143.127 56.544 C 143.196 56.509,143.106 56.391,142.927 56.281 C 142.747 56.172,142.252 56.559,141.827 57.141 M139.668 59.141 C 139.199 59.548,138.928 59.995,139.067 60.133 C 139.205 60.272,139.652 60.001,140.059 59.532 C 141.229 58.183,141.017 57.971,139.668 59.141 M127.304 71.421 C 127.031 71.716,126.941 72.038,127.104 72.137 C 127.267 72.235,127.623 72.074,127.896 71.779 C 128.169 71.484,128.259 71.162,128.096 71.063 C 127.933 70.965,127.577 71.126,127.304 71.421 M125.782 72.942 C 125.213 73.566,124.717 74.400,124.915 74.400 C 125.351 74.400,126.798 72.847,126.520 72.678 C 126.344 72.571,126.012 72.690,125.782 72.942 M123.268 75.541 C 122.799 75.948,122.528 76.395,122.667 76.533 C 122.805 76.672,123.252 76.401,123.659 75.932 C 124.829 74.583,124.617 74.371,123.268 75.541 M121.304 77.421 C 121.031 77.716,120.941 78.038,121.104 78.137 C 121.267 78.235,121.623 78.074,121.896 77.779 C 122.169 77.484,122.259 77.162,122.096 77.063 C 121.933 76.965,121.577 77.126,121.304 77.421 M109.382 89.342 C 108.813 89.966,108.317 90.800,108.515 90.800 C 108.951 90.800,110.398 89.247,110.120 89.078 C 109.944 88.971,109.612 89.090,109.382 89.342 M293.020 90.773 C 293.642 91.383,300.740 91.503,300.507 90.900 C 300.372 90.548,299.177 90.400,296.477 90.400 C 294.101 90.400,292.785 90.542,293.020 90.773 M106.891 91.984 C 106.392 92.401,106.122 92.827,106.291 92.930 C 106.461 93.033,106.923 92.686,107.319 92.159 C 108.178 91.012,108.097 90.979,106.891 91.984 M290.236 91.960 C 289.786 92.458,289.695 92.812,289.974 92.984 C 290.208 93.129,290.400 92.956,290.400 92.600 C 290.400 92.244,290.580 92.064,290.800 92.200 C 291.020 92.336,291.200 92.270,291.200 92.053 C 291.200 91.836,291.515 91.576,291.900 91.476 C 292.464 91.328,292.437 91.284,291.762 91.246 C 291.301 91.221,290.614 91.542,290.236 91.960 M284.000 99.776 C 284.000 100.313,284.147 100.844,284.328 100.955 C 284.508 101.067,284.577 100.627,284.482 99.979 C 284.272 98.549,284.000 98.435,284.000 99.776 M308.727 102.950 C 308.902 107.966,309.600 108.424,309.600 103.523 C 309.600 100.823,309.452 99.628,309.100 99.493 C 308.717 99.345,308.630 100.153,308.727 102.950 M283.320 103.200 C 283.320 104.410,283.395 104.905,283.487 104.300 C 283.578 103.695,283.578 102.705,283.487 102.100 C 283.395 101.495,283.320 101.990,283.320 103.200 M91.827 107.141 L 91.055 108.200 92.027 107.404 C 92.562 106.967,93.057 106.580,93.127 106.544 C 93.196 106.509,93.106 106.391,92.927 106.281 C 92.747 106.172,92.252 106.559,91.827 107.141 M308.446 108.100 C 308.421 108.485,308.209 108.800,307.976 108.800 C 307.743 108.800,307.664 108.980,307.800 109.200 C 307.936 109.420,307.756 109.600,307.400 109.600 C 307.031 109.600,306.870 109.789,307.025 110.040 C 307.444 110.719,308.915 109.044,308.685 108.150 C 308.516 107.491,308.487 107.485,308.446 108.100 M89.668 109.141 C 89.199 109.548,88.928 109.995,89.067 110.133 C 89.205 110.272,89.652 110.001,90.059 109.532 C 91.229 108.183,91.017 107.971,89.668 109.141 M299.141 115.701 C 299.343 115.903,299.933 116.001,300.454 115.919 C 301.255 115.793,301.198 115.737,300.087 115.552 C 299.293 115.421,298.919 115.479,299.141 115.701 M295.700 116.687 C 296.305 116.778,297.295 116.778,297.900 116.687 C 298.505 116.595,298.010 116.520,296.800 116.520 C 295.590 116.520,295.095 116.595,295.700 116.687 M77.304 121.421 C 77.031 121.716,76.941 122.038,77.104 122.137 C 77.267 122.235,77.623 122.074,77.896 121.779 C 78.169 121.484,78.259 121.162,78.096 121.063 C 77.933 120.965,77.577 121.126,77.304 121.421 M75.782 122.942 C 75.213 123.566,74.717 124.400,74.915 124.400 C 75.351 124.400,76.798 122.847,76.520 122.678 C 76.344 122.571,76.012 122.690,75.782 122.942 M73.268 125.541 C 72.799 125.948,72.528 126.395,72.667 126.533 C 72.805 126.672,73.252 126.401,73.659 125.932 C 74.829 124.583,74.617 124.371,73.268 125.541 M71.304 127.421 C 71.031 127.716,70.941 128.038,71.104 128.137 C 71.267 128.235,71.623 128.074,71.896 127.779 C 72.169 127.484,72.259 127.162,72.096 127.063 C 71.933 126.965,71.577 127.126,71.304 127.421 M59.382 139.342 C 58.813 139.966,58.317 140.800,58.515 140.800 C 58.951 140.800,60.398 139.247,60.120 139.078 C 59.944 138.971,59.612 139.090,59.382 139.342 M56.891 141.984 C 56.392 142.401,56.122 142.827,56.291 142.930 C 56.461 143.033,56.923 142.686,57.319 142.159 C 58.178 141.012,58.097 140.979,56.891 141.984 M41.827 157.141 L 41.055 158.200 42.027 157.404 C 42.562 156.967,43.057 156.580,43.127 156.544 C 43.196 156.509,43.106 156.391,42.927 156.281 C 42.747 156.172,42.252 156.559,41.827 157.141 M39.668 159.141 C 39.199 159.548,38.928 159.995,39.067 160.133 C 39.205 160.272,39.652 160.001,40.059 159.532 C 41.229 158.183,41.017 157.971,39.668 159.141 M27.304 171.421 C 27.031 171.716,26.941 172.038,27.104 172.137 C 27.267 172.235,27.623 172.074,27.896 171.779 C 28.169 171.484,28.259 171.162,28.096 171.063 C 27.933 170.965,27.577 171.126,27.304 171.421 M25.782 172.942 C 25.213 173.566,24.717 174.400,24.915 174.400 C 25.351 174.400,26.798 172.847,26.520 172.678 C 26.344 172.571,26.012 172.690,25.782 172.942 M23.268 175.541 C 22.799 175.948,22.528 176.395,22.667 176.533 C 22.805 176.672,23.252 176.401,23.659 175.932 C 24.829 174.583,24.617 174.371,23.268 175.541 M9.382 189.342 C 8.813 189.966,8.317 190.800,8.515 190.800 C 8.951 190.800,10.398 189.247,10.120 189.078 C 9.944 188.971,9.612 189.090,9.382 189.342 M392.627 207.941 L 391.855 209.000 392.827 208.204 C 393.362 207.767,393.857 207.380,393.927 207.344 C 393.996 207.309,393.906 207.191,393.727 207.081 C 393.547 206.972,393.052 207.359,392.627 207.941 M390.468 209.941 C 389.999 210.348,389.728 210.795,389.867 210.933 C 390.080 211.147,391.600 209.749,391.600 209.339 C 391.600 209.059,391.303 209.217,390.468 209.941 M378.104 222.221 C 377.831 222.516,377.741 222.838,377.904 222.937 C 378.067 223.035,378.423 222.874,378.696 222.579 C 378.969 222.284,379.059 221.962,378.896 221.863 C 378.733 221.765,378.377 221.926,378.104 222.221 M376.582 223.742 C 376.013 224.366,375.517 225.200,375.715 225.200 C 376.151 225.200,377.598 223.647,377.320 223.478 C 377.144 223.371,376.812 223.490,376.582 223.742 M374.068 226.341 C 373.599 226.748,373.328 227.195,373.467 227.333 C 373.680 227.547,375.200 226.149,375.200 225.739 C 375.200 225.459,374.903 225.617,374.068 226.341 M372.104 228.221 C 371.831 228.516,371.741 228.838,371.904 228.937 C 372.067 229.035,372.423 228.874,372.696 228.579 C 372.969 228.284,373.059 227.962,372.896 227.863 C 372.733 227.765,372.377 227.926,372.104 228.221 M360.182 240.142 C 359.613 240.766,359.117 241.600,359.315 241.600 C 359.751 241.600,361.198 240.047,360.920 239.878 C 360.744 239.771,360.412 239.890,360.182 240.142 M357.691 242.784 C 357.192 243.201,356.922 243.627,357.091 243.730 C 357.261 243.833,357.723 243.486,358.119 242.959 C 358.978 241.812,358.897 241.779,357.691 242.784 M13.367 251.425 C 14.078 252.135,14.267 252.147,14.267 251.480 C 14.267 251.194,13.935 250.935,13.529 250.905 C 12.888 250.856,12.867 250.924,13.367 251.425 M342.627 257.941 L 341.855 259.000 342.827 258.204 C 343.362 257.767,343.857 257.380,343.927 257.344 C 343.996 257.309,343.906 257.191,343.727 257.081 C 343.547 256.972,343.052 257.359,342.627 257.941 M340.468 259.941 C 339.999 260.348,339.728 260.795,339.867 260.933 C 340.080 261.147,341.600 259.749,341.600 259.339 C 341.600 259.059,341.303 259.217,340.468 259.941 M328.104 272.221 C 327.831 272.516,327.741 272.838,327.904 272.937 C 328.067 273.035,328.423 272.874,328.696 272.579 C 328.969 272.284,329.059 271.962,328.896 271.863 C 328.733 271.765,328.377 271.926,328.104 272.221 M326.582 273.742 C 326.013 274.366,325.517 275.200,325.715 275.200 C 326.151 275.200,327.598 273.647,327.320 273.478 C 327.144 273.371,326.812 273.490,326.582 273.742 M324.068 276.341 C 323.599 276.748,323.328 277.195,323.467 277.333 C 323.680 277.547,325.200 276.149,325.200 275.739 C 325.200 275.459,324.903 275.617,324.068 276.341 M322.104 278.221 C 321.831 278.516,321.741 278.838,321.904 278.937 C 322.067 279.035,322.423 278.874,322.696 278.579 C 322.969 278.284,323.059 277.962,322.896 277.863 C 322.733 277.765,322.377 277.926,322.104 278.221 M48.000 285.895 C 48.000 285.984,48.259 286.316,48.575 286.633 C 49.076 287.133,49.144 287.112,49.095 286.471 C 49.051 285.876,48.000 285.324,48.000 285.895 M310.182 290.142 C 309.613 290.766,309.117 291.600,309.315 291.600 C 309.751 291.600,311.198 290.047,310.920 289.878 C 310.744 289.771,310.412 289.890,310.182 290.142 M307.691 292.784 C 307.192 293.201,306.922 293.627,307.091 293.730 C 307.261 293.833,307.723 293.486,308.119 292.959 C 308.978 291.812,308.897 291.779,307.691 292.784 M63.367 301.425 C 64.078 302.135,64.267 302.147,64.267 301.480 C 64.267 301.194,63.935 300.935,63.529 300.905 C 62.888 300.856,62.867 300.924,63.367 301.425 M292.627 307.941 L 291.855 309.000 292.827 308.204 C 293.362 307.767,293.857 307.380,293.927 307.344 C 293.996 307.309,293.906 307.191,293.727 307.081 C 293.547 306.972,293.052 307.359,292.627 307.941 M290.468 309.941 C 289.999 310.348,289.728 310.795,289.867 310.933 C 290.080 311.147,291.600 309.749,291.600 309.339 C 291.600 309.059,291.303 309.217,290.468 309.941 M278.104 322.221 C 277.831 322.516,277.741 322.838,277.904 322.937 C 278.067 323.035,278.423 322.874,278.696 322.579 C 278.969 322.284,279.059 321.962,278.896 321.863 C 278.733 321.765,278.377 321.926,278.104 322.221 M276.582 323.742 C 276.013 324.366,275.517 325.200,275.715 325.200 C 276.151 325.200,277.598 323.647,277.320 323.478 C 277.144 323.371,276.812 323.490,276.582 323.742 M274.068 326.341 C 273.599 326.748,273.328 327.195,273.467 327.333 C 273.680 327.547,275.200 326.149,275.200 325.739 C 275.200 325.459,274.903 325.617,274.068 326.341 M272.104 328.221 C 271.831 328.516,271.741 328.838,271.904 328.937 C 272.067 329.035,272.423 328.874,272.696 328.579 C 272.969 328.284,273.059 327.962,272.896 327.863 C 272.733 327.765,272.377 327.926,272.104 328.221 M260.182 340.142 C 259.613 340.766,259.117 341.600,259.315 341.600 C 259.751 341.600,261.198 340.047,260.920 339.878 C 260.744 339.771,260.412 339.890,260.182 340.142 M257.691 342.784 C 257.192 343.201,256.922 343.627,257.091 343.730 C 257.261 343.833,257.723 343.486,258.119 342.959 C 258.978 341.812,258.897 341.779,257.691 342.784 M242.627 357.941 L 241.855 359.000 242.827 358.204 C 243.362 357.767,243.857 357.380,243.927 357.344 C 243.996 357.309,243.906 357.191,243.727 357.081 C 243.547 356.972,243.052 357.359,242.627 357.941 M240.468 359.941 C 239.999 360.348,239.728 360.795,239.867 360.933 C 240.080 361.147,241.600 359.749,241.600 359.339 C 241.600 359.059,241.303 359.217,240.468 359.941 M228.104 372.221 C 227.831 372.516,227.741 372.838,227.904 372.937 C 228.067 373.035,228.423 372.874,228.696 372.579 C 228.969 372.284,229.059 371.962,228.896 371.863 C 228.733 371.765,228.377 371.926,228.104 372.221 M226.582 373.742 C 226.013 374.366,225.517 375.200,225.715 375.200 C 226.151 375.200,227.598 373.647,227.320 373.478 C 227.144 373.371,226.812 373.490,226.582 373.742 M224.068 376.341 C 223.599 376.748,223.328 377.195,223.467 377.333 C 223.680 377.547,225.200 376.149,225.200 375.739 C 225.200 375.459,224.903 375.617,224.068 376.341 M222.104 378.221 C 221.831 378.516,221.741 378.838,221.904 378.937 C 222.067 379.035,222.423 378.874,222.696 378.579 C 222.969 378.284,223.059 377.962,222.896 377.863 C 222.733 377.765,222.377 377.926,222.104 378.221 M210.182 390.142 C 209.613 390.766,209.117 391.600,209.315 391.600 C 209.751 391.600,211.198 390.047,210.920 389.878 C 210.744 389.771,210.412 389.890,210.182 390.142 " stroke="none" fill="#f8f4f4" fill-rule="evenodd"></path><path id="path4" d="M191.827 7.141 L 191.055 8.200 192.027 7.404 C 192.562 6.967,193.057 6.580,193.127 6.544 C 193.196 6.509,193.106 6.391,192.927 6.281 C 192.747 6.172,192.252 6.559,191.827 7.141 M189.668 9.141 C 189.199 9.548,188.928 9.995,189.067 10.133 C 189.205 10.272,189.652 10.001,190.059 9.532 C 191.229 8.183,191.017 7.971,189.668 9.141 M175.782 22.942 C 175.213 23.566,174.717 24.400,174.915 24.400 C 175.351 24.400,176.798 22.847,176.520 22.678 C 176.344 22.571,176.012 22.690,175.782 22.942 M173.268 25.541 C 172.799 25.948,172.528 26.395,172.667 26.533 C 172.805 26.672,173.252 26.401,173.659 25.932 C 174.829 24.583,174.617 24.371,173.268 25.541 M171.304 27.421 C 171.031 27.716,170.941 28.038,171.104 28.137 C 171.267 28.235,171.623 28.074,171.896 27.779 C 172.169 27.484,172.259 27.162,172.096 27.063 C 171.933 26.965,171.577 27.126,171.304 27.421 M159.382 39.342 C 158.813 39.966,158.317 40.800,158.515 40.800 C 158.951 40.800,160.398 39.247,160.120 39.078 C 159.944 38.971,159.612 39.090,159.382 39.342 M156.891 41.984 C 156.392 42.401,156.122 42.827,156.291 42.930 C 156.461 43.033,156.923 42.686,157.319 42.159 C 158.178 41.012,158.097 40.979,156.891 41.984 M141.827 57.141 L 141.055 58.200 142.027 57.404 C 142.562 56.967,143.057 56.580,143.127 56.544 C 143.196 56.509,143.106 56.391,142.927 56.281 C 142.747 56.172,142.252 56.559,141.827 57.141 M139.668 59.141 C 139.199 59.548,138.928 59.995,139.067 60.133 C 139.205 60.272,139.652 60.001,140.059 59.532 C 141.229 58.183,141.017 57.971,139.668 59.141 M127.304 71.421 C 127.031 71.716,126.941 72.038,127.104 72.137 C 127.267 72.235,127.623 72.074,127.896 71.779 C 128.169 71.484,128.259 71.162,128.096 71.063 C 127.933 70.965,127.577 71.126,127.304 71.421 M125.782 72.942 C 125.213 73.566,124.717 74.400,124.915 74.400 C 125.351 74.400,126.798 72.847,126.520 72.678 C 126.344 72.571,126.012 72.690,125.782 72.942 M123.268 75.541 C 122.799 75.948,122.528 76.395,122.667 76.533 C 122.805 76.672,123.252 76.401,123.659 75.932 C 124.829 74.583,124.617 74.371,123.268 75.541 M121.304 77.421 C 121.031 77.716,120.941 78.038,121.104 78.137 C 121.267 78.235,121.623 78.074,121.896 77.779 C 122.169 77.484,122.259 77.162,122.096 77.063 C 121.933 76.965,121.577 77.126,121.304 77.421 M109.382 89.342 C 108.813 89.966,108.317 90.800,108.515 90.800 C 108.951 90.800,110.398 89.247,110.120 89.078 C 109.944 88.971,109.612 89.090,109.382 89.342 M293.020 90.773 C 293.642 91.383,300.740 91.503,300.507 90.900 C 300.372 90.548,299.177 90.400,296.477 90.400 C 294.101 90.400,292.785 90.542,293.020 90.773 M106.891 91.984 C 106.392 92.401,106.122 92.827,106.291 92.930 C 106.461 93.033,106.923 92.686,107.319 92.159 C 108.178 91.012,108.097 90.979,106.891 91.984 M290.236 91.960 C 289.786 92.458,289.695 92.812,289.974 92.984 C 290.208 93.129,290.400 92.956,290.400 92.600 C 290.400 92.244,290.580 92.064,290.800 92.200 C 291.020 92.336,291.200 92.270,291.200 92.053 C 291.200 91.836,291.515 91.576,291.900 91.476 C 292.464 91.328,292.437 91.284,291.762 91.246 C 291.301 91.221,290.614 91.542,290.236 91.960 M284.000 99.776 C 284.000 100.313,284.147 100.844,284.328 100.955 C 284.508 101.067,284.577 100.627,284.482 99.979 C 284.272 98.549,284.000 98.435,284.000 99.776 M308.727 102.950 C 308.902 107.966,309.600 108.424,309.600 103.523 C 309.600 100.823,309.452 99.628,309.100 99.493 C 308.717 99.345,308.630 100.153,308.727 102.950 M283.320 103.200 C 283.320 104.410,283.395 104.905,283.487 104.300 C 283.578 103.695,283.578 102.705,283.487 102.100 C 283.395 101.495,283.320 101.990,283.320 103.200 M91.827 107.141 L 91.055 108.200 92.027 107.404 C 92.562 106.967,93.057 106.580,93.127 106.544 C 93.196 106.509,93.106 106.391,92.927 106.281 C 92.747 106.172,92.252 106.559,91.827 107.141 M308.446 108.100 C 308.421 108.485,308.209 108.800,307.976 108.800 C 307.743 108.800,307.664 108.980,307.800 109.200 C 307.936 109.420,307.756 109.600,307.400 109.600 C 307.031 109.600,306.870 109.789,307.025 110.040 C 307.444 110.719,308.915 109.044,308.685 108.150 C 308.516 107.491,308.487 107.485,308.446 108.100 M89.668 109.141 C 89.199 109.548,88.928 109.995,89.067 110.133 C 89.205 110.272,89.652 110.001,90.059 109.532 C 91.229 108.183,91.017 107.971,89.668 109.141 M299.141 115.701 C 299.343 115.903,299.933 116.001,300.454 115.919 C 301.255 115.793,301.198 115.737,300.087 115.552 C 299.293 115.421,298.919 115.479,299.141 115.701 M295.700 116.687 C 296.305 116.778,297.295 116.778,297.900 116.687 C 298.505 116.595,298.010 116.520,296.800 116.520 C 295.590 116.520,295.095 116.595,295.700 116.687 M77.304 121.421 C 77.031 121.716,76.941 122.038,77.104 122.137 C 77.267 122.235,77.623 122.074,77.896 121.779 C 78.169 121.484,78.259 121.162,78.096 121.063 C 77.933 120.965,77.577 121.126,77.304 121.421 M75.782 122.942 C 75.213 123.566,74.717 124.400,74.915 124.400 C 75.351 124.400,76.798 122.847,76.520 122.678 C 76.344 122.571,76.012 122.690,75.782 122.942 M73.268 125.541 C 72.799 125.948,72.528 126.395,72.667 126.533 C 72.805 126.672,73.252 126.401,73.659 125.932 C 74.829 124.583,74.617 124.371,73.268 125.541 M71.304 127.421 C 71.031 127.716,70.941 128.038,71.104 128.137 C 71.267 128.235,71.623 128.074,71.896 127.779 C 72.169 127.484,72.259 127.162,72.096 127.063 C 71.933 126.965,71.577 127.126,71.304 127.421 M59.382 139.342 C 58.813 139.966,58.317 140.800,58.515 140.800 C 58.951 140.800,60.398 139.247,60.120 139.078 C 59.944 138.971,59.612 139.090,59.382 139.342 M56.891 141.984 C 56.392 142.401,56.122 142.827,56.291 142.930 C 56.461 143.033,56.923 142.686,57.319 142.159 C 58.178 141.012,58.097 140.979,56.891 141.984 M41.827 157.141 L 41.055 158.200 42.027 157.404 C 42.562 156.967,43.057 156.580,43.127 156.544 C 43.196 156.509,43.106 156.391,42.927 156.281 C 42.747 156.172,42.252 156.559,41.827 157.141 M39.668 159.141 C 39.199 159.548,38.928 159.995,39.067 160.133 C 39.205 160.272,39.652 160.001,40.059 159.532 C 41.229 158.183,41.017 157.971,39.668 159.141 M27.304 171.421 C 27.031 171.716,26.941 172.038,27.104 172.137 C 27.267 172.235,27.623 172.074,27.896 171.779 C 28.169 171.484,28.259 171.162,28.096 171.063 C 27.933 170.965,27.577 171.126,27.304 171.421 M25.782 172.942 C 25.213 173.566,24.717 174.400,24.915 174.400 C 25.351 174.400,26.798 172.847,26.520 172.678 C 26.344 172.571,26.012 172.690,25.782 172.942 M23.268 175.541 C 22.799 175.948,22.528 176.395,22.667 176.533 C 22.805 176.672,23.252 176.401,23.659 175.932 C 24.829 174.583,24.617 174.371,23.268 175.541 M9.382 189.342 C 8.813 189.966,8.317 190.800,8.515 190.800 C 8.951 190.800,10.398 189.247,10.120 189.078 C 9.944 188.971,9.612 189.090,9.382 189.342 M392.627 207.941 L 391.855 209.000 392.827 208.204 C 393.362 207.767,393.857 207.380,393.927 207.344 C 393.996 207.309,393.906 207.191,393.727 207.081 C 393.547 206.972,393.052 207.359,392.627 207.941 M390.468 209.941 C 389.999 210.348,389.728 210.795,389.867 210.933 C 390.080 211.147,391.600 209.749,391.600 209.339 C 391.600 209.059,391.303 209.217,390.468 209.941 M378.104 222.221 C 377.831 222.516,377.741 222.838,377.904 222.937 C 378.067 223.035,378.423 222.874,378.696 222.579 C 378.969 222.284,379.059 221.962,378.896 221.863 C 378.733 221.765,378.377 221.926,378.104 222.221 M376.582 223.742 C 376.013 224.366,375.517 225.200,375.715 225.200 C 376.151 225.200,377.598 223.647,377.320 223.478 C 377.144 223.371,376.812 223.490,376.582 223.742 M374.068 226.341 C 373.599 226.748,373.328 227.195,373.467 227.333 C 373.680 227.547,375.200 226.149,375.200 225.739 C 375.200 225.459,374.903 225.617,374.068 226.341 M372.104 228.221 C 371.831 228.516,371.741 228.838,371.904 228.937 C 372.067 229.035,372.423 228.874,372.696 228.579 C 372.969 228.284,373.059 227.962,372.896 227.863 C 372.733 227.765,372.377 227.926,372.104 228.221 M360.182 240.142 C 359.613 240.766,359.117 241.600,359.315 241.600 C 359.751 241.600,361.198 240.047,360.920 239.878 C 360.744 239.771,360.412 239.890,360.182 240.142 M357.691 242.784 C 357.192 243.201,356.922 243.627,357.091 243.730 C 357.261 243.833,357.723 243.486,358.119 242.959 C 358.978 241.812,358.897 241.779,357.691 242.784 M13.367 251.425 C 14.078 252.135,14.267 252.147,14.267 251.480 C 14.267 251.194,13.935 250.935,13.529 250.905 C 12.888 250.856,12.867 250.924,13.367 251.425 M342.627 257.941 L 341.855 259.000 342.827 258.204 C 343.362 257.767,343.857 257.380,343.927 257.344 C 343.996 257.309,343.906 257.191,343.727 257.081 C 343.547 256.972,343.052 257.359,342.627 257.941 M340.468 259.941 C 339.999 260.348,339.728 260.795,339.867 260.933 C 340.080 261.147,341.600 259.749,341.600 259.339 C 341.600 259.059,341.303 259.217,340.468 259.941 M328.104 272.221 C 327.831 272.516,327.741 272.838,327.904 272.937 C 328.067 273.035,328.423 272.874,328.696 272.579 C 328.969 272.284,329.059 271.962,328.896 271.863 C 328.733 271.765,328.377 271.926,328.104 272.221 M326.582 273.742 C 326.013 274.366,325.517 275.200,325.715 275.200 C 326.151 275.200,327.598 273.647,327.320 273.478 C 327.144 273.371,326.812 273.490,326.582 273.742 M324.068 276.341 C 323.599 276.748,323.328 277.195,323.467 277.333 C 323.680 277.547,325.200 276.149,325.200 275.739 C 325.200 275.459,324.903 275.617,324.068 276.341 M322.104 278.221 C 321.831 278.516,321.741 278.838,321.904 278.937 C 322.067 279.035,322.423 278.874,322.696 278.579 C 322.969 278.284,323.059 277.962,322.896 277.863 C 322.733 277.765,322.377 277.926,322.104 278.221 M48.000 285.895 C 48.000 285.984,48.259 286.316,48.575 286.633 C 49.076 287.133,49.144 287.112,49.095 286.471 C 49.051 285.876,48.000 285.324,48.000 285.895 M310.182 290.142 C 309.613 290.766,309.117 291.600,309.315 291.600 C 309.751 291.600,311.198 290.047,310.920 289.878 C 310.744 289.771,310.412 289.890,310.182 290.142 M307.691 292.784 C 307.192 293.201,306.922 293.627,307.091 293.730 C 307.261 293.833,307.723 293.486,308.119 292.959 C 308.978 291.812,308.897 291.779,307.691 292.784 M63.367 301.425 C 64.078 302.135,64.267 302.147,64.267 301.480 C 64.267 301.194,63.935 300.935,63.529 300.905 C 62.888 300.856,62.867 300.924,63.367 301.425 M292.627 307.941 L 291.855 309.000 292.827 308.204 C 293.362 307.767,293.857 307.380,293.927 307.344 C 293.996 307.309,293.906 307.191,293.727 307.081 C 293.547 306.972,293.052 307.359,292.627 307.941 M290.468 309.941 C 289.999 310.348,289.728 310.795,289.867 310.933 C 290.080 311.147,291.600 309.749,291.600 309.339 C 291.600 309.059,291.303 309.217,290.468 309.941 M278.104 322.221 C 277.831 322.516,277.741 322.838,277.904 322.937 C 278.067 323.035,278.423 322.874,278.696 322.579 C 278.969 322.284,279.059 321.962,278.896 321.863 C 278.733 321.765,278.377 321.926,278.104 322.221 M276.582 323.742 C 276.013 324.366,275.517 325.200,275.715 325.200 C 276.151 325.200,277.598 323.647,277.320 323.478 C 277.144 323.371,276.812 323.490,276.582 323.742 M274.068 326.341 C 273.599 326.748,273.328 327.195,273.467 327.333 C 273.680 327.547,275.200 326.149,275.200 325.739 C 275.200 325.459,274.903 325.617,274.068 326.341 M272.104 328.221 C 271.831 328.516,271.741 328.838,271.904 328.937 C 272.067 329.035,272.423 328.874,272.696 328.579 C 272.969 328.284,273.059 327.962,272.896 327.863 C 272.733 327.765,272.377 327.926,272.104 328.221 M260.182 340.142 C 259.613 340.766,259.117 341.600,259.315 341.600 C 259.751 341.600,261.198 340.047,260.920 339.878 C 260.744 339.771,260.412 339.890,260.182 340.142 M257.691 342.784 C 257.192 343.201,256.922 343.627,257.091 343.730 C 257.261 343.833,257.723 343.486,258.119 342.959 C 258.978 341.812,258.897 341.779,257.691 342.784 M242.627 357.941 L 241.855 359.000 242.827 358.204 C 243.362 357.767,243.857 357.380,243.927 357.344 C 243.996 357.309,243.906 357.191,243.727 357.081 C 243.547 356.972,243.052 357.359,242.627 357.941 M240.468 359.941 C 239.999 360.348,239.728 360.795,239.867 360.933 C 240.080 361.147,241.600 359.749,241.600 359.339 C 241.600 359.059,241.303 359.217,240.468 359.941 M228.104 372.221 C 227.831 372.516,227.741 372.838,227.904 372.937 C 228.067 373.035,228.423 372.874,228.696 372.579 C 228.969 372.284,229.059 371.962,228.896 371.863 C 228.733 371.765,228.377 371.926,228.104 372.221 M226.582 373.742 C 226.013 374.366,225.517 375.200,225.715 375.200 C 226.151 375.200,227.598 373.647,227.320 373.478 C 227.144 373.371,226.812 373.490,226.582 373.742 M224.068 376.341 C 223.599 376.748,223.328 377.195,223.467 377.333 C 223.680 377.547,225.200 376.149,225.200 375.739 C 225.200 375.459,224.903 375.617,224.068 376.341 M222.104 378.221 C 221.831 378.516,221.741 378.838,221.904 378.937 C 222.067 379.035,222.423 378.874,222.696 378.579 C 222.969 378.284,223.059 377.962,222.896 377.863 C 222.733 377.765,222.377 377.926,222.104 378.221 M210.182 390.142 C 209.613 390.766,209.117 391.600,209.315 391.600 C 209.751 391.600,211.198 390.047,210.920 389.878 C 210.744 389.771,210.412 389.890,210.182 390.142 " stroke="none" fill="#f8f4f4" fill-rule="evenodd"></path></g></svg>