<svg enable-background="new 0 0 600 600" version="1.1" viewBox="0 0 600 600" xmlns="http://www.w3.org/2000/svg">
 <g fill="#fff">
  <path d="m178.4 293.4h-17.4v-18.1h17.5v18.1zm-0.2 81.9h-17v-69.8h17v69.8z"/>
  <path d="m245.1 312.9-9 14.7c-1.6-1.8-3.4-3.5-5.4-4.9s-4-2.1-6-2.1c-1.1 0-2.3 0.3-3.5 0.8-1.3 0.5-2.5 1.4-3.6 2.6s-2.1 2.8-2.9 4.8-1.2 4.4-1.2 7.3v39.3h-16.8v-69.7h16.8v7.5c2-3 4.2-5.3 6.7-6.9 2.4-1.6 5.2-2.4 8.2-2.4 2.9 0 5.8 0.8 8.7 2.5 2.9 1.5 5.5 3.7 8 6.5z"/>
  <path d="M309.5,295.6h-25.7v79.7h-18.3v-79.7h-25.7V279h69.7V295.6z"/>
  <path d="m356.8 312.9-9 14.7c-1.6-1.8-3.4-3.5-5.4-4.9s-4-2.1-6-2.1c-1.1 0-2.3 0.3-3.5 0.8-1.3 0.5-2.5 1.4-3.6 2.6s-2.1 2.8-2.9 4.8-1.2 4.4-1.2 7.3v39.3h-16.8v-69.7h16.8v7.5c2-3 4.2-5.3 6.7-6.9 2.4-1.6 5.2-2.4 8.2-2.4 2.9 0 5.8 0.8 8.7 2.5 2.8 1.5 5.5 3.7 8 6.5z"/>
  <path d="m419.9 375.3h-16.8v-3.7c-2.9 2.1-6.1 3.5-9.4 4.3s-6.7 1.2-10.2 1.2c-3.3 0-6.2-0.5-8.8-1.5s-4.9-2.5-6.9-4.3c-1.9-1.9-3.4-4.1-4.5-6.7-1-2.6-1.6-5.4-1.6-8.6 0-3.9 0.8-7.4 2.5-10.3s3.9-5.4 6.8-7.4 6.2-3.4 10.1-4.4c3.8-1 8-1.4 12.4-1.4h9.7c0-4.1-1.3-7.4-3.8-9.8-2.6-2.4-6.2-3.6-11.1-3.6-2.3 0-4.7 0.4-7.2 1.3s-5 2.5-7.4 4.8l-9.9-10.4c3.6-3.5 7.7-6.3 12.4-8.2s9.5-2.9 14.5-2.9c4.7 0 8.8 0.8 12.4 2.3s6.6 3.5 8.8 5.9c2.9 3.1 5 6.5 6.2 10.2 1.2 3.8 1.8 8.6 1.8 14.5v38.7zm-16.8-17.4v-12.9h-7.7c-2.3 0-4.5 0.2-6.6 0.5s-3.8 0.9-5.4 1.6c-1.5 0.8-2.7 1.7-3.6 3-0.9 1.2-1.3 2.7-1.3 4.3 0 2.4 0.9 4.4 2.7 5.9s4.2 2.3 7 2.3c2.5 0 4.9-0.4 7.4-1.2 2.6-0.8 5-1.9 7.5-3.5z"/>
  <path d="m499.1 375.3h-17.1v-3.6c-2.2 1.8-4.5 3.2-7.1 4s-5.3 1.3-8.1 1.3c-4.7 0-9.1-1-13-3-4-2-7.4-4.6-10.2-8-2.9-3.3-5.1-7.2-6.7-11.6s-2.4-9.1-2.4-14c0-5.2 0.9-10.1 2.7-14.5 1.8-4.5 4.2-8.3 7.3-11.6 3-3.3 6.5-5.9 10.4-7.8s7.9-2.8 12-2.8c2.9 0 5.7 0.4 8.4 1.2s5 1.9 7 3.4v-33h17v100zm-16.9-18.7v-33.5c-0.8-0.6-1.7-1.1-2.7-1.6s-2.1-1-3.2-1.3c-1.1-0.4-2.2-0.6-3.3-0.8s-2.1-0.3-2.9-0.3c-2.8 0-5.4 0.5-7.7 1.5s-4.3 2.5-6 4.3c-1.7 1.9-3 4.2-4 6.8-0.9 2.7-1.4 5.6-1.4 8.8 0 3.1 0.5 6 1.4 8.6s2.2 4.9 3.9 6.8c1.6 1.9 3.6 3.4 5.9 4.4s4.8 1.6 7.5 1.6c4.6-0.1 8.7-1.8 12.5-5.3z"/>
  <path d="m582.5 340.3c0 1.1-0.1 2.3-0.2 3.5s-0.3 2.5-0.4 3.7h-53.8c0.6 2 1.5 3.9 2.6 5.7s2.5 3.4 4.1 4.7 3.5 2.4 5.5 3.1c2.1 0.8 4.3 1.1 6.8 1.1 3 0 6.1-0.5 9.1-1.6s5.5-2.6 7.6-4.4l10.6 11c-4.7 3.6-9.2 6.2-13.7 7.7s-9.2 2.2-14.1 2.2c-5 0-9.8-1-14.1-2.9-4.4-1.9-8.2-4.5-11.4-7.8s-5.8-7.2-7.6-11.6c-1.9-4.5-2.8-9.2-2.8-14.3s0.9-9.8 2.8-14.3 4.4-8.3 7.7-11.6 7.1-5.9 11.4-7.8 9-2.9 14-2.9c4.7 0 9.3 0.9 13.6 2.7s8.2 4.3 11.5 7.5 6 7.1 7.9 11.5c2 4.5 2.9 9.5 2.9 14.8zm-17.5-6.7c-1.3-4.4-3.7-8-7-10.7-3.4-2.7-7.2-4-11.5-4-4.2 0-8 1.3-11.3 4s-5.7 6.3-7 10.7h36.8z"/>
 </g>
 <polygon points="93.2 375.2 21.5 234.6 56.5 234.6 70.3 261.3 65.8 270.4 51.4 243.1 35.2 243.1 93.3 356.8 152.6 243.9 136.3 243.6 122.6 269.9 117.9 261.2 131 235.5 166.6 235.5" fill="#fff"/>
 <polygon points="94 232.6 69.7 279.3 94 326.7 118.1 279.6" fill="#E7AA0F"/>
 <g fill="#fe3b3b" stroke-width=".71685">
  <path d="m82.243 302.88c-6.3987-12.516-11.634-23.145-11.634-23.62s5.2553-10.974 11.678-23.332l11.678-22.468 23.711 46.106-9.6841 18.996c-5.3262 10.448-10.681 20.814-11.9 23.035l-2.216 4.0385z" fill-opacity=".0080321"/>
  <path d="m82.243 302.88c-6.3987-12.516-11.634-23.145-11.634-23.62s5.2553-10.974 11.678-23.332l11.678-22.468 23.711 46.106-9.6841 18.996c-5.3262 10.448-10.681 20.814-11.9 23.035l-2.216 4.0385z"/>
  <path d="m82.596 302.52c-6.1984-12.355-11.264-22.896-11.256-23.424 0.02045-1.4057 21.732-43.491 22.505-43.622 0.36018-0.0611 5.7769 9.8297 12.037 21.98l11.382 22.091-7.5227 14.708c-4.1375 8.0894-9.4021 18.313-11.699 22.72l-4.1765 8.0121z"/>
  <path d="m82.584 302.62c-6.2052-12.284-11.271-22.819-11.257-23.41 0.03513-1.5278 21.819-43.87 22.565-43.861 0.33941 4e-3 5.7626 9.9525 12.052 22.108l11.434 22.1-8.83 17.21c-4.8565 9.4655-10.146 19.68-11.756 22.699l-2.9256 5.4889z"/>
  <path d="m82.557 302.65c-6.2121-12.302-11.275-22.851-11.25-23.442 0.0653-1.579 21.837-43.879 22.579-43.867 0.34648 6e-3 5.7895 9.9496 12.096 22.098l11.466 22.088-9.4108 18.3c-5.1759 10.065-10.485 20.3-11.797 22.745l-2.3867 4.4456z"/>
  <path d="m82.575 302.87c-6.1867-12.238-11.243-22.808-11.236-23.49 0.01833-1.7732 21.866-44.29 22.641-44.059 0.35418 0.10528 5.7889 10.097 12.077 22.205l11.433 22.013-8.2074 16.018c-4.5141 8.8102-9.8391 19.066-11.833 22.791l-3.626 6.7724z"/>
  <path d="m82.549 302.93c-6.1728-12.258-11.217-22.851-11.209-23.541 0.01871-1.6951 21.805-44.293 22.583-44.157 0.33878 0.0594 5.7824 10.047 12.097 22.195l11.481 22.087-8.9298 17.459c-4.9114 9.6025-10.25 19.885-11.864 22.851l-2.9344 5.3919z"/>
 </g>
</svg>
