<svg enable-background="new 0 0 600 600" version="1.1" viewBox="0 0 250 230" xmlns="http://www.w3.org/2000/svg">

  <polygon
     transform="translate(33.09702,-181.76944)"
     id="polygon18"
     fill="#ffffff"
     points="65.8,270.4 51.4,243.1 35.2,243.1 93.3,356.8 152.6,243.9 136.3,243.6 122.6,269.9 117.9,261.2 131,235.5 166.6,235.5 93.2,375.2 21.5,234.6 56.5,234.6 70.3,261.3 " />
  <polygon
     transform="translate(33.09702,-181.76944)"
     id="polygon20"
     fill="#e7aa0f"
     points="94,232.6 69.7,279.3 94,326.7 118.1,279.6 " />
  <g
     transform="translate(33.09702,-181.76944)"
     id="g36"
     stroke-width="0.71685"
     fill="#fe3b3b">
    <path
       id="path22"
       fill-opacity="0.00803211"
       d="m 82.243,302.88 c -6.3987,-12.516 -11.634,-23.145 -11.634,-23.62 0,-0.475 5.2553,-10.974 11.678,-23.332 l 11.678,-22.468 23.711,46.106 -9.6841,18.996 c -5.3262,10.448 -10.681,20.814 -11.9,23.035 l -2.216,4.0385 z" />
    <path
       id="path24"
       d="m 82.243,302.88 c -6.3987,-12.516 -11.634,-23.145 -11.634,-23.62 0,-0.475 5.2553,-10.974 11.678,-23.332 l 11.678,-22.468 23.711,46.106 -9.6841,18.996 c -5.3262,10.448 -10.681,20.814 -11.9,23.035 l -2.216,4.0385 z" />
    <path
       id="path26"
       d="M 82.596,302.52 C 76.3976,290.165 71.332,279.624 71.34,279.096 c 0.02045,-1.4057 21.732,-43.491 22.505,-43.622 0.36018,-0.0611 5.7769,9.8297 12.037,21.98 l 11.382,22.091 -7.5227,14.708 c -4.1375,8.0894 -9.4021,18.313 -11.699,22.72 l -4.1765,8.0121 z" />
    <path
       id="path28"
       d="m 82.584,302.62 c -6.2052,-12.284 -11.271,-22.819 -11.257,-23.41 0.03513,-1.5278 21.819,-43.87 22.565,-43.861 0.33941,0.004 5.7626,9.9525 12.052,22.108 l 11.434,22.1 -8.83,17.21 c -4.8565,9.4655 -10.146,19.68 -11.756,22.699 l -2.9256,5.4889 z" />
    <path
       id="path30"
       d="m 82.557,302.65 c -6.2121,-12.302 -11.275,-22.851 -11.25,-23.442 0.0653,-1.579 21.837,-43.879 22.579,-43.867 0.34648,0.006 5.7895,9.9496 12.096,22.098 l 11.466,22.088 -9.4108,18.3 c -5.1759,10.065 -10.485,20.3 -11.797,22.745 l -2.3867,4.4456 z" />
    <path
       id="path32"
       d="m 82.575,302.87 c -6.1867,-12.238 -11.243,-22.808 -11.236,-23.49 0.01833,-1.7732 21.866,-44.29 22.641,-44.059 0.35418,0.10528 5.7889,10.097 12.077,22.205 l 11.433,22.013 -8.2074,16.018 c -4.5141,8.8102 -9.8391,19.066 -11.833,22.791 l -3.626,6.7724 z" />
    <path
       id="path34"
       d="M 82.549,302.93 C 76.3762,290.672 71.332,280.079 71.34,279.389 c 0.01871,-1.6951 21.805,-44.293 22.583,-44.157 0.33878,0.0594 5.7824,10.047 12.097,22.195 l 11.481,22.087 -8.9298,17.459 c -4.9114,9.6025 -10.25,19.885 -11.864,22.851 l -2.9344,5.3919 z" />
  </g>
</svg>
