<?xml version="1.0" encoding="utf-8"?>
<!-- Generator: Adobe Illustrator 18.0.0, SVG Export Plug-In . SVG Version: 6.00 Build 0)  -->
<!DOCTYPE svg PUBLIC "-//W3C//DTD SVG 1.1//EN" "http://www.w3.org/Graphics/SVG/1.1/DTD/svg11.dtd">
<svg version="1.1" id="Layer_1" xmlns="http://www.w3.org/2000/svg" xmlns:xlink="http://www.w3.org/1999/xlink" x="0px" y="0px"
	 viewBox="0 0 600 600" enable-background="new 0 0 600 600" xml:space="preserve">
<g>
	<g>
		<path fill="#FFFFFF" d="M178.4,293.4H161v-18.1h17.5V293.4z M178.2,375.3h-17v-69.8h17V375.3z"/>
		<path fill="#FFFFFF" d="M245.1,312.9l-9,14.7c-1.6-1.8-3.4-3.5-5.4-4.9c-2-1.4-4-2.1-6-2.1c-1.1,0-2.3,0.3-3.5,0.8
			c-1.3,0.5-2.5,1.4-3.6,2.6c-1.1,1.2-2.1,2.8-2.9,4.8c-0.8,2-1.2,4.4-1.2,7.3v39.3h-16.8v-69.7h16.8v7.5c2-3,4.2-5.3,6.7-6.9
			c2.4-1.6,5.2-2.4,8.2-2.4c2.9,0,5.8,0.8,8.7,2.5C240,307.9,242.6,310.1,245.1,312.9z"/>
		<path fill="#FFFFFF" d="M309.5,295.6h-25.7v79.7h-18.3v-79.7h-25.7V279h69.7V295.6z"/>
		<path fill="#FFFFFF" d="M356.8,312.9l-9,14.7c-1.6-1.8-3.4-3.5-5.4-4.9c-2-1.4-4-2.1-6-2.1c-1.1,0-2.3,0.3-3.5,0.8
			c-1.3,0.5-2.5,1.4-3.6,2.6c-1.1,1.2-2.1,2.8-2.9,4.8c-0.8,2-1.2,4.4-1.2,7.3v39.3h-16.8v-69.7h16.8v7.5c2-3,4.2-5.3,6.7-6.9
			c2.4-1.6,5.2-2.4,8.2-2.4c2.9,0,5.8,0.8,8.7,2.5C351.6,307.9,354.3,310.1,356.8,312.9z"/>
		<path fill="#FFFFFF" d="M419.9,375.3h-16.8v-3.7c-2.9,2.1-6.1,3.5-9.4,4.3c-3.3,0.8-6.7,1.2-10.2,1.2c-3.3,0-6.2-0.5-8.8-1.5
			c-2.6-1-4.9-2.5-6.9-4.3c-1.9-1.9-3.4-4.1-4.5-6.7c-1-2.6-1.6-5.4-1.6-8.6c0-3.9,0.8-7.4,2.5-10.3c1.7-2.9,3.9-5.4,6.8-7.4
			c2.9-2,6.2-3.4,10.1-4.4c3.8-1,8-1.4,12.4-1.4h9.7c0-4.1-1.3-7.4-3.8-9.8c-2.6-2.4-6.2-3.6-11.1-3.6c-2.3,0-4.7,0.4-7.2,1.3
			c-2.5,0.9-5,2.5-7.4,4.8l-9.9-10.4c3.6-3.5,7.7-6.3,12.4-8.2c4.7-1.9,9.5-2.9,14.5-2.9c4.7,0,8.8,0.8,12.4,2.3
			c3.6,1.5,6.6,3.5,8.8,5.9c2.9,3.1,5,6.5,6.2,10.2c1.2,3.8,1.8,8.6,1.8,14.5V375.3z M403.1,357.9V345h-7.7c-2.3,0-4.5,0.2-6.6,0.5
			c-2.1,0.3-3.8,0.9-5.4,1.6c-1.5,0.8-2.7,1.7-3.6,3c-0.9,1.2-1.3,2.7-1.3,4.3c0,2.4,0.9,4.4,2.7,5.9c1.8,1.5,4.2,2.3,7,2.3
			c2.5,0,4.9-0.4,7.4-1.2C398.2,360.6,400.6,359.5,403.1,357.9z"/>
		<path fill="#FFFFFF" d="M499.1,375.3H482v-3.6c-2.2,1.8-4.5,3.2-7.1,4c-2.6,0.8-5.3,1.3-8.1,1.3c-4.7,0-9.1-1-13-3
			c-4-2-7.4-4.6-10.2-8c-2.9-3.3-5.1-7.2-6.7-11.6c-1.6-4.4-2.4-9.1-2.4-14c0-5.2,0.9-10.1,2.7-14.5c1.8-4.5,4.2-8.3,7.3-11.6
			c3-3.3,6.5-5.9,10.4-7.8c3.9-1.9,7.9-2.8,12-2.8c2.9,0,5.7,0.4,8.4,1.2c2.7,0.8,5,1.9,7,3.4v-33h17V375.3z M482.2,356.6v-33.5
			c-0.8-0.6-1.7-1.1-2.7-1.6c-1-0.5-2.1-1-3.2-1.3c-1.1-0.4-2.2-0.6-3.3-0.8c-1.1-0.2-2.1-0.3-2.9-0.3c-2.8,0-5.4,0.5-7.7,1.5
			c-2.3,1-4.3,2.5-6,4.3c-1.7,1.9-3,4.2-4,6.8c-0.9,2.7-1.4,5.6-1.4,8.8c0,3.1,0.5,6,1.4,8.6c0.9,2.6,2.2,4.9,3.9,6.8
			c1.6,1.9,3.6,3.4,5.9,4.4c2.3,1,4.8,1.6,7.5,1.6C474.3,361.8,478.4,360.1,482.2,356.6z"/>
		<path fill="#FFFFFF" d="M582.5,340.3c0,1.1-0.1,2.3-0.2,3.5c-0.1,1.2-0.3,2.5-0.4,3.7h-53.8c0.6,2,1.5,3.9,2.6,5.7
			c1.1,1.8,2.5,3.4,4.1,4.7c1.6,1.3,3.5,2.4,5.5,3.1c2.1,0.8,4.3,1.1,6.8,1.1c3,0,6.1-0.5,9.1-1.6c3-1.1,5.5-2.6,7.6-4.4l10.6,11
			c-4.7,3.6-9.2,6.2-13.7,7.7c-4.5,1.5-9.2,2.2-14.1,2.2c-5,0-9.8-1-14.1-2.9c-4.4-1.9-8.2-4.5-11.4-7.8c-3.2-3.3-5.8-7.2-7.6-11.6
			c-1.9-4.5-2.8-9.2-2.8-14.3s0.9-9.8,2.8-14.3c1.9-4.5,4.4-8.3,7.7-11.6c3.3-3.3,7.1-5.9,11.4-7.8c4.3-1.9,9-2.9,14-2.9
			c4.7,0,9.3,0.9,13.6,2.7c4.3,1.8,8.2,4.3,11.5,7.5c3.3,3.2,6,7.1,7.9,11.5C581.6,330,582.5,335,582.5,340.3z M565,333.6
			c-1.3-4.4-3.7-8-7-10.7c-3.4-2.7-7.2-4-11.5-4c-4.2,0-8,1.3-11.3,4c-3.3,2.7-5.7,6.3-7,10.7H565z"/>
	</g>
	<g>
		<polygon fill="#FFFFFF" points="93.2,375.2 21.5,234.6 56.5,234.6 70.3,261.3 65.8,270.4 51.4,243.1 35.2,243.1 93.3,356.8 
			152.6,243.9 136.3,243.6 122.6,269.9 117.9,261.2 131,235.5 166.6,235.5 		"/>
	</g>
	<polygon fill="#E7AA0F" points="94,232.6 69.7,279.3 94,326.7 118.1,279.6 	"/>
</g>
</svg>
