<?xml version="1.0" encoding="UTF-8" standalone="no"?>
<!DOCTYPE svg PUBLIC "-//W3C//DTD SVG 1.1//EN" "http://www.w3.org/Graphics/SVG/1.1/DTD/svg11.dtd">
<svg version="1.1" xmlns="http://www.w3.org/2000/svg" xmlns:xlink="http://www.w3.org/1999/xlink" preserveAspectRatio="xMidYMid meet" viewBox="0 0 640 640" width="640" height="640"><defs><path d="M626.89 421.4C644.37 438.88 644.37 467.21 626.89 484.68C609.42 502.15 581.08 502.15 563.61 484.68C547.4 468.47 466.37 387.43 320.51 241.57C174.65 387.43 93.62 468.47 77.41 484.68C59.93 502.15 31.6 502.15 14.13 484.68C-3.35 467.21 -3.35 438.87 14.13 421.39C41.61 393.92 261.4 174.11 288.88 146.64C297.62 137.91 309.06 133.54 320.51 133.54C331.96 133.54 343.41 137.92 352.14 146.65C407.09 201.6 599.41 393.93 626.89 421.4Z" id="b6uoM2gVp"></path></defs><g><g><g><use xlink:href="#b6uoM2gVp" opacity="1" fill="#141115" fill-opacity="1"></use><g><use xlink:href="#b6uoM2gVp" opacity="1" fill-opacity="0" stroke="#000000" stroke-width="1" stroke-opacity="0"></use></g></g></g></g></svg>