<?xml version="1.0" encoding="UTF-8" standalone="no"?>
<!DOCTYPE svg PUBLIC "-//W3C//DTD SVG 1.1//EN" "http://www.w3.org/Graphics/SVG/1.1/DTD/svg11.dtd">
<svg version="1.1" xmlns="http://www.w3.org/2000/svg" xmlns:xlink="http://www.w3.org/1999/xlink" preserveAspectRatio="xMidYMid meet" viewBox="0 0 640 640" width="640" height="640"><defs><path d="M0 320C0 496.46 143.54 640 320 640C496.46 640 640 496.46 640 320C640 143.54 496.46 0 320 0C143.54 0 0 143.54 0 320Z" id="a2xIh1PFmK"></path><path d="M308.85 425.52C303.65 430.72 296.83 433.33 290 433.33C283.17 433.33 276.35 430.72 271.15 425.52C262.48 416.85 193.15 347.52 184.48 338.85C174.05 328.43 174.05 311.57 184.48 301.15C194.91 290.72 211.76 290.72 222.19 301.15C226.71 305.67 249.31 328.27 290 368.96C382.69 276.27 434.18 224.78 444.48 214.48C454.91 204.05 471.76 204.05 482.19 214.48C492.61 224.91 492.61 241.76 482.19 252.19C447.52 286.85 326.19 408.18 308.85 425.52Z" id="bdBtBZ8j0"></path></defs><g><g><g><use xlink:href="#a2xIh1PFmK" opacity="1" fill="#fe3b3b" fill-opacity="1"></use><g><use xlink:href="#a2xIh1PFmK" opacity="1" fill-opacity="0" stroke="#000000" stroke-width="1" stroke-opacity="0"></use></g></g><g><use xlink:href="#bdBtBZ8j0" opacity="1" fill="#fafafa" fill-opacity="1"></use><g><use xlink:href="#bdBtBZ8j0" opacity="1" fill-opacity="0" stroke="#000000" stroke-width="1" stroke-opacity="0"></use></g></g></g></g></svg>