<?xml version="1.0" encoding="UTF-8" standalone="no"?>
<!DOCTYPE svg PUBLIC "-//W3C//DTD SVG 1.1//EN" "http://www.w3.org/Graphics/SVG/1.1/DTD/svg11.dtd">
<svg version="1.1" xmlns="http://www.w3.org/2000/svg" xmlns:xlink="http://www.w3.org/1999/xlink" preserveAspectRatio="xMidYMid meet" viewBox="0 0 379.73 444.98" width="379.73" height="444.98"><defs><path d="M345.66 0C370.54 0 379.73 9.4 379.73 34.87C379.73 65.61 379.73 311.53 379.73 342.27C379.73 345.16 379.73 365.1 360.19 375.63C347.15 382.66 296.18 404.26 207.26 440.44C199.41 444.13 195.61 445.08 189.87 444.97C183.41 444.97 180.99 444.1 172.39 440.44C83.53 403.09 32.59 381.48 19.55 375.63C0 366.85 0.93 355.87 0.36 350.31C0.11 347.64 -0.01 344.95 0 342.27C0 311.53 0 65.61 0 34.87C0 9.4 9.19 0 34.08 0C34.08 0 314.5 0 345.66 0ZM319.34 312.56L319.34 310.92L319.28 310.17L319.2 309.48L318.93 308.11L318.79 307.5L318.59 306.88L318.37 306.26L318.1 305.72L317.75 305.09L317.4 304.55L316.98 303.94L316.57 303.39L316.08 302.91L315.59 302.36L315.04 301.88L314.49 301.4L313.93 301.06L313.38 300.64L312.82 300.3L312.2 299.96L311.57 299.62L310.88 299.27L310.18 299L309.49 298.65L308.73 298.39L308.1 298.18L307.48 297.97L306.78 297.78L306.16 297.57L305.47 297.36L304.78 297.15L304.08 297.02L303.31 296.81L302.62 296.61L301.86 296.47L301.1 296.27L300.33 296.06L299.57 295.85L298.88 295.72L298.25 295.51L297.63 295.37L297.07 295.16L296.52 295.03L295.68 294.76L294.92 294.48L294.23 294.21L293.68 293.87L293.04 293.52L292.56 293.05L292.28 292.64L291.94 291.88L291.86 290.99L291.86 290.85L291.94 290.17L292.21 289.55L292.63 288.93L293.25 288.39L293.74 288.11L294.29 287.84L294.92 287.7L295.62 287.56L296.37 287.43L297.9 287.43L298.53 287.5L299.23 287.56L299.92 287.63L300.61 287.77L301.3 287.91L302 288.04L302.69 288.25L303.39 288.45L304.15 288.66L304.71 288.93L305.33 289.14L305.88 289.41L306.51 289.68L307.06 289.96L307.69 290.24L308.24 290.58L308.87 290.85L309.43 291.26L309.98 291.61L310.6 291.95L311.16 292.36L311.57 291.82L311.92 291.26L312.34 290.72L312.75 290.17L313.17 289.55L313.51 289.01L313.93 288.45L314.35 287.91L314.69 287.36L315.11 286.81L315.53 286.26L315.88 285.72L316.29 285.1L316.71 284.55L317.12 284L317.47 283.45L317.89 282.9L317.33 282.49L316.78 282.08L316.22 281.67L315.67 281.33L315.04 280.92L314.49 280.57L313.86 280.23L313.24 279.89L312.69 279.61L312.06 279.28L311.36 279L310.74 278.73L310.11 278.46L309.49 278.25L308.79 277.97L308.17 277.83L307.55 277.63L306.85 277.42L306.23 277.29L305.54 277.15L304.85 277.01L304.22 276.88L303.52 276.74L302.76 276.67L302.07 276.53L301.3 276.47L300.61 276.47L299.84 276.4L299.08 276.32L296.1 276.32L294.72 276.47L294.02 276.53L293.33 276.6L292.7 276.74L292.01 276.88L291.38 277.01L290.76 277.15L290.21 277.29L289.57 277.49L288.88 277.77L288.19 277.97L287.57 278.25L286.94 278.59L286.31 278.86L285.69 279.21L285.14 279.55L284.58 279.96L284.02 280.37L283.54 280.72L282.98 281.19L282.5 281.74L282.02 282.22L281.53 282.77L281.11 283.31L280.7 283.87L280.35 284.48L280.01 285.1L279.73 285.72L279.45 286.33L279.17 286.95L279.03 287.56L278.82 288.18L278.55 289.41L278.47 290.1L278.41 290.72L278.34 291.4L278.34 292.98L278.41 293.73L278.47 294.42L278.55 295.1L278.69 295.72L278.82 296.4L279.03 296.95L279.24 297.57L279.45 298.11L279.73 298.59L280.07 299.2L280.42 299.76L280.76 300.23L281.18 300.71L281.6 301.19L282.08 301.67L282.57 302.15L283.06 302.57L283.61 302.91L284.17 303.32L284.79 303.66L285.35 304L286.04 304.35L286.66 304.69L287.35 304.96L288.05 305.24L288.74 305.51L289.51 305.78L290.13 305.99L290.76 306.19L291.38 306.4L292.08 306.54L292.7 306.75L293.39 306.95L294.08 307.08L294.78 307.29L295.47 307.42L296.24 307.63L296.94 307.77L297.69 307.98L298.39 308.11L299.08 308.32L299.71 308.46L300.33 308.66L300.88 308.8L301.37 308.94L302.2 309.28L302.9 309.56L303.52 309.83L304.08 310.1L304.63 310.51L305.12 310.92L305.47 311.4L305.74 312.09L305.82 312.91L305.82 313.04L305.74 313.73L305.54 314.34L305.26 314.89L304.84 315.37L304.29 315.79L303.8 316.06L303.24 316.27L302.62 316.4L302 316.54L301.3 316.67L300.54 316.75L299.02 316.75L298.25 316.67L297.56 316.67L296.86 316.54L296.1 316.47L295.41 316.33L294.72 316.19L294.02 316.06L293.39 315.85L292.7 315.65L292.01 315.44L291.38 315.17L290.76 314.96L290.13 314.69L289.51 314.42L288.88 314.14L288.33 313.8L287.7 313.53L287.15 313.18L286.53 312.77L285.97 312.43L285.35 312.02L284.79 311.61L284.17 311.19L283.61 310.78L283.19 311.33L282.71 311.81L282.29 312.36L281.81 312.91L281.39 313.38L280.98 313.94L280.49 314.48L280.07 314.96L279.59 315.51L279.17 316L278.69 316.54L278.27 317.09L277.86 317.57L277.37 318.12L276.95 318.66L276.47 319.14L276.05 319.69L276.61 320.17L277.09 320.58L277.65 320.99L278.2 321.41L278.76 321.81L279.31 322.23L279.86 322.57L280.42 322.92L281.05 323.26L281.6 323.59L282.22 323.94L282.85 324.22L283.47 324.55L284.1 324.82L284.72 325.1L285.41 325.37L286.04 325.58L286.73 325.79L287.35 326.06L288.05 326.27L288.74 326.47L289.37 326.61L290.06 326.81L290.76 326.95L291.45 327.09L292.84 327.36L293.53 327.43L294.23 327.57L294.98 327.63L295.68 327.7L296.37 327.78L297.14 327.78L297.83 327.84L300.75 327.84L301.44 327.78L302.2 327.7L302.9 327.63L303.52 327.57L304.22 327.5L304.91 327.36L305.54 327.22L306.16 327.09L306.85 326.95L307.48 326.74L308.17 326.54L308.86 326.33L309.55 326.06L310.26 325.79L310.88 325.44L311.5 325.17L312.13 324.82L312.69 324.41L313.24 324.08L313.79 323.66L314.28 323.26L314.83 322.77L315.25 322.36L315.73 321.89L316.15 321.41L316.49 320.85L316.91 320.31L317.61 319.21L317.89 318.6L318.16 318.04L318.44 317.43L318.65 316.74L318.79 316.13L318.99 315.44L319.14 314.76L319.2 314.01L319.28 313.32L319.34 312.56ZM270.61 327.01L271.31 327.01L271.31 315.71L244.11 315.71L244.11 307.22L268.25 307.22L268.25 296.61L244.11 296.61L244.11 288.45L270.96 288.45L270.96 277.14L230.86 277.14L230.86 327.01L270.61 327.01ZM219.92 327.01L220.61 327.01L220.61 277.14L206.39 277.14L206.04 277.69L205.7 278.31L205.28 278.85L204.93 279.47L204.59 280.02L204.24 280.64L203.83 281.18L203.48 281.8L203.13 282.35L202.78 282.89L202.37 283.5L202.02 284.06L201.67 284.67L201.32 285.22L200.91 285.83L200.57 286.38L200.21 286.93L199.87 287.54L199.52 288.09L199.11 288.7L198.76 289.25L198.41 289.86L198.06 290.41L197.65 291.03L197.31 291.57L196.96 292.12L196.61 292.74L196.19 293.29L195.85 293.9L195.5 294.44L195.16 295.07L194.74 295.61L194.39 296.22L194.04 296.77L193.7 296.22L193.35 295.61L192.93 295.07L192.58 294.44L192.24 293.9L191.89 293.29L191.55 292.74L191.12 292.12L190.78 291.57L190.44 291.03L190.09 290.41L189.74 289.86L189.32 289.26L188.98 288.7L188.63 288.09L188.29 287.54L187.94 286.93L187.51 286.38L187.17 285.83L186.83 285.22L186.47 284.67L186.06 284.06L185.71 283.5L185.37 282.89L185.02 282.35L184.67 281.8L184.26 281.18L183.91 280.64L183.57 280.02L183.22 279.47L182.87 278.85L182.45 278.31L182.11 277.69L181.76 277.14L167.54 277.14L167.54 327.01L180.72 327.01L180.72 297.66L181.14 298.21L181.48 298.83L181.9 299.38L182.24 300L182.66 300.55L183.01 301.16L183.43 301.71L183.77 302.33L184.19 302.88L184.54 303.49L184.95 304.04L185.3 304.66L185.71 305.22L186.06 305.83L186.47 306.38L186.82 306.99L187.25 307.55L187.66 308.16L188.01 308.71L188.42 309.33L188.77 309.88L189.19 310.5L189.53 311.05L189.95 311.66L190.3 312.21L190.71 312.82L191.06 313.38L191.47 313.99L191.82 314.55L192.23 315.16L192.58 315.71L193 316.33L193.35 316.88L193.76 317.49L194.04 317.49L194.39 316.95L194.8 316.33L195.15 315.78L195.57 315.23L195.92 314.61L196.33 314.06L196.68 313.51L197.02 312.9L197.44 312.34L197.79 311.8L198.21 311.24L198.55 310.63L198.97 310.08L199.31 309.54L199.66 308.92L200.08 308.37L200.43 307.82L200.84 307.2L201.19 306.65L201.6 306.1L201.95 305.49L202.3 304.93L202.72 304.39L203.06 303.77L203.48 303.22L203.82 302.67L204.24 302.13L204.59 301.5L204.93 300.96L205.35 300.4L205.7 299.79L206.11 299.24L206.46 298.69L206.88 298.07L207.22 297.53L207.22 327.01L219.92 327.01ZM139.69 307.08L127.97 307.08L128.25 306.46L128.46 305.84L128.73 305.15L129.01 304.54L129.22 303.92L129.5 303.3L129.77 302.62L130.05 302L130.26 301.38L130.54 300.77L130.81 300.14L131.03 299.46L131.3 298.85L131.58 298.22L131.79 297.61L132.07 296.99L132.34 296.3L132.62 295.69L132.83 295.07L133.11 294.44L133.38 293.76L133.59 293.15L133.87 292.52L134.15 293.15L134.36 293.76L134.62 294.44L134.91 295.07L135.12 295.69L135.4 296.3L135.67 296.99L135.88 297.61L136.16 298.22L136.44 298.85L136.64 299.46L136.92 300.15L137.13 300.77L137.4 301.38L137.68 302L137.9 302.62L138.17 303.31L138.44 303.92L138.66 304.54L138.93 305.15L139.21 305.85L139.42 306.46L139.69 307.08ZM161.21 327.01L161.9 327.01L161.62 326.4L161.35 325.78L161.07 325.16L160.85 324.47L160.58 323.87L160.31 323.25L160.03 322.63L159.47 321.4L159.2 320.71L158.92 320.1L158.7 319.48L158.43 318.86L158.15 318.25L157.88 317.63L157.6 316.94L157.32 316.33L156.76 315.1L156.56 314.48L156.28 313.86L156 313.17L155.72 312.56L155.45 311.94L154.89 310.71L154.61 310.1L154.41 309.41L154.13 308.79L153.85 308.18L153.57 307.56L153.29 306.94L153.02 306.33L152.74 305.64L152.46 305.03L152.25 304.41L151.98 303.79L151.7 303.17L151.42 302.56L151.14 301.87L150.87 301.26L150.31 300.02L150.1 299.41L149.83 298.79L149.55 298.18L149.28 297.49L148.71 296.26L148.44 295.64L148.16 295.03L147.95 294.41L147.67 293.72L147.4 293.11L147.12 292.49L146.84 291.88L146.56 291.26L146.28 290.65L146.01 289.96L145.8 289.34L145.53 288.72L145.24 288.11L144.97 287.49L144.69 286.87L144.42 286.19L144.14 285.57L143.85 284.95L143.65 284.34L143.38 283.72L143.09 283.1L142.82 282.42L142.54 281.8L142.26 281.19L141.99 280.57L141.71 279.95L141.5 279.34L141.22 278.65L140.95 278.04L140.67 277.42L140.39 276.8L127.56 276.8L127.28 277.42L127 278.04L126.72 278.65L126.52 279.34L126.24 279.95L125.96 280.57L125.68 281.19L125.41 281.8L125.13 282.42L124.85 283.11L124.57 283.72L124.36 284.34L123.81 285.57L123.53 286.19L123.26 286.87L122.97 287.49L122.7 288.11L122.42 288.72L122.2 289.34L121.93 289.96L121.66 290.65L121.1 291.88L120.83 292.49L120.55 293.11L120.27 293.72L120.06 294.41L119.78 295.03L119.51 295.64L119.23 296.26L118.95 296.88L118.67 297.49L118.4 298.18L118.12 298.79L117.91 299.41L117.35 300.64L117.08 301.26L116.8 301.88L116.52 302.56L116.24 303.17L115.97 303.79L115.75 304.41L115.48 305.03L115.2 305.64L114.92 306.33L114.65 306.94L114.37 307.56L114.1 308.18L113.82 308.79L113.61 309.41L113.33 310.1L113.05 310.71L112.78 311.33L112.5 311.94L112.22 312.56L111.94 313.17L111.67 313.86L111.45 314.48L110.9 315.71L110.63 316.33L110.35 316.95L110.07 317.63L109.8 318.25L109.51 318.86L109.31 319.48L109.03 320.1L108.75 320.72L108.47 321.4L108.2 322.02L107.92 322.63L107.36 323.87L107.15 324.47L106.88 325.17L106.32 326.4L106.04 327.01L120.06 327.01L120.34 326.4L120.55 325.78L120.83 325.16L121.1 324.47L121.31 323.87L121.59 323.25L121.87 322.63L122.07 322.02L122.35 321.4L122.63 320.79L122.83 320.16L123.11 319.48L123.4 318.86L123.6 318.25L123.87 317.63L143.79 317.63L144.07 318.25L144.28 318.86L144.55 319.48L144.83 320.17L145.04 320.79L145.32 321.4L145.59 322.02L145.8 322.63L146.36 323.87L146.56 324.47L146.84 325.17L147.12 325.78L147.33 326.4L147.61 327.01L161.21 327.01ZM100.42 320.64L100.91 320.24L100.91 297.97L78.01 297.97L78.01 307.97L88.14 307.97L88.14 314.2L87.59 314.55L87.09 314.83L86.48 315.1L85.92 315.37L85.29 315.65L84.67 315.78L83.98 315.99L83.28 316.12L82.59 316.26L81.89 316.33L81.13 316.4L80.37 316.47L78.77 316.47L78.01 316.4L77.32 316.33L76.62 316.19L75.93 316.06L75.23 315.85L74.54 315.65L73.92 315.37L73.29 315.1L72.67 314.83L72.11 314.48L71.56 314.14L71.01 313.73L70.45 313.32L69.96 312.9L69.54 312.43L69.06 311.94L68.64 311.47L68.23 310.92L67.88 310.37L67.53 309.82L67.18 309.21L66.91 308.59L66.63 307.9L66.42 307.36L66.22 306.74L66.08 306.12L65.8 304.89L65.72 304.2L65.66 303.58L65.59 302.9L65.59 301.32L65.66 300.64L65.72 299.96L65.87 299.2L66.01 298.59L66.15 297.9L66.35 297.22L66.63 296.61L66.84 295.98L67.12 295.37L67.47 294.82L67.81 294.2L68.16 293.65L68.5 293.18L68.92 292.63L69.41 292.15L69.82 291.67L70.31 291.26L70.8 290.84L71.28 290.44L71.84 290.09L72.39 289.75L72.95 289.41L73.57 289.14L74.19 288.86L74.82 288.66L75.44 288.45L76.07 288.32L76.76 288.18L77.38 288.11L78.08 288.04L79.54 288.04L80.3 288.11L81.07 288.18L81.76 288.24L82.45 288.38L83.15 288.52L83.77 288.66L84.39 288.86L85.01 289.07L85.58 289.27L86.13 289.55L86.69 289.82L87.31 290.17L87.86 290.5L88.42 290.85L88.97 291.19L89.52 291.6L90.09 291.95L90.64 292.42L91.19 292.83L91.6 292.29L92.09 291.81L92.51 291.26L92.99 290.71L93.41 290.17L93.83 289.68L94.31 289.14L94.73 288.59L95.22 288.04L95.63 287.56L96.05 287.01L96.54 286.46L96.95 285.99L97.37 285.43L97.85 284.89L98.27 284.34L98.75 283.86L99.17 283.31L98.62 282.9L98.06 282.42L97.5 282.01L96.95 281.6L96.4 281.25L95.85 280.85L95.22 280.5L94.66 280.16L94.04 279.81L93.48 279.47L92.86 279.2L92.24 278.86L91.6 278.58L90.99 278.31L90.36 278.04L89.74 277.83L89.18 277.62L88.56 277.48L87.93 277.29L87.31 277.14L86.69 277.01L86.05 276.87L85.36 276.73L84.67 276.6L84.05 276.53L83.28 276.39L82.59 276.32L81.89 276.32L81.13 276.25L80.37 276.19L77.38 276.19L76.69 276.25L76 276.32L74.61 276.46L73.92 276.6L73.22 276.66L72.53 276.8L71.91 277.01L71.21 277.14L70.58 277.35L69.96 277.48L69.34 277.76L68.64 277.96L68.09 278.17L67.4 278.52L66.77 278.79L66.15 279.06L65.52 279.41L64.9 279.75L64.27 280.1L63.72 280.44L63.16 280.77L62.61 281.19L62.05 281.53L61.5 281.94L61.01 282.35L60.46 282.83L59.97 283.24L59.48 283.72L59 284.2L58.58 284.68L58.1 285.16L57.68 285.64L57.26 286.19L56.85 286.74L56.43 287.28L55.73 288.38L55.39 288.93L55.05 289.48L54.69 290.09L54.42 290.71L53.87 291.95L53.59 292.56L53.3 293.25L53.1 293.86L52.89 294.55L52.69 295.16L52.55 295.85L52.34 296.53L52.2 297.15L52.13 297.84L51.99 298.51L51.92 299.27L51.85 299.96L51.85 300.64L51.79 301.4L51.79 303.65L51.85 304.34L51.92 305.03L51.99 305.72L52.06 306.33L52.2 307.01L52.26 307.63L52.4 308.32L52.62 308.93L52.75 309.62L52.97 310.23L53.1 310.85L53.38 311.46L53.59 312.02L53.87 312.63L54.14 313.25L54.42 313.86L54.69 314.48L55.04 315.02L55.39 315.65L55.74 316.19L56.08 316.74L56.5 317.29L56.85 317.83L57.26 318.31L57.68 318.86L58.1 319.34L58.58 319.82L59.07 320.3L59.55 320.72L60.04 321.19L60.52 321.61L61.01 322.01L61.57 322.43L62.12 322.84L62.68 323.25L63.23 323.59L63.79 323.94L64.41 324.28L64.97 324.62L65.59 324.96L66.22 325.23L66.84 325.51L67.47 325.78L68.16 326.05L68.78 326.26L69.41 326.53L70.03 326.74L70.73 326.88L71.35 327.09L72.05 327.22L72.67 327.36L73.36 327.49L74.05 327.63L74.75 327.7L75.44 327.77L76.13 327.84L76.9 327.91L77.59 327.97L80.58 327.97L81.34 327.91L82.03 327.84L82.8 327.77L83.5 327.7L84.25 327.63L84.95 327.56L85.64 327.43L86.34 327.28L86.96 327.15L87.66 327.01L88.28 326.81L88.97 326.61L89.6 326.4L90.22 326.19L90.85 325.99L91.47 325.71L92.17 325.44L92.79 325.16L93.48 324.89L94.11 324.54L94.73 324.28L95.35 323.93L95.98 323.59L96.6 323.25L97.16 322.91L97.72 322.56L98.27 322.15L98.82 321.81L99.38 321.4L99.86 321.06L100.42 320.64ZM120.83 155.42L120.83 129.56L86.4 129.56L86.4 86.26L120.83 86.26L120.83 60.42L60.42 60.42L60.42 233.03L120.83 233.03L120.83 207.22L86.4 207.22L86.4 155.42L120.83 155.42ZM293.46 200.74C293.46 207.52 290.05 210.67 283.36 210.67C282.86 210.67 278.89 210.67 278.4 210.67C271.45 210.67 267.63 207.52 267.63 200.74C267.63 190.16 267.63 105.54 267.63 94.96C267.63 88.17 271.44 83.64 278.39 83.64C278.84 83.64 282.41 83.64 282.86 83.64C291.01 83.64 293.46 86.39 293.46 94.96C293.46 97.26 293.46 108.76 293.46 129.45L319.34 129.5C319.34 107.19 319.34 94.8 319.34 92.32C319.34 71.24 308.37 60.57 286.79 60.57C285.49 60.57 275.16 60.57 273.87 60.57C252.29 60.57 241.66 73.86 241.66 94.96C241.66 105.66 241.66 191.25 241.66 201.95C241.66 223.04 252.29 233.14 273.87 233.14C275.19 233.14 285.72 233.14 287.03 233.14C308.63 233.14 319.34 223.04 319.34 201.95C319.34 199.42 319.34 186.77 319.34 164.01L293.46 164.01C293.46 183.6 293.46 195.84 293.46 200.74ZM207.14 233.03L233.03 233.03L233.03 60.42L207.14 60.42L207.14 233.03ZM172.6 137.11C172.6 144.01 170.71 146.72 164.45 146.72C163.84 146.72 160.8 146.72 155.33 146.72L155.33 83.6C160.8 83.6 163.84 83.6 164.45 83.6C170.71 83.6 172.6 86.8 172.6 93.7C172.6 102.39 172.6 128.43 172.6 137.11ZM129.46 60.42L129.46 233.03L155.33 233.03L155.33 170.39C163.16 170.39 167.52 170.39 168.39 170.39C188.55 170.39 198.51 159.79 198.51 138.35C198.51 133.76 198.51 97.06 198.51 92.47C198.51 71.01 188.55 60.42 168.39 60.42C163.2 60.42 150.22 60.42 129.46 60.42ZM258.93 388.55L120.83 388.55L189.88 414.3L258.93 388.55Z" id="e4EAa82pSE"></path></defs><g><g><g><use xlink:href="#e4EAa82pSE" opacity="1" fill="#f6f6f6" fill-opacity="1"></use><g><use xlink:href="#e4EAa82pSE" opacity="1" fill-opacity="0" stroke="#000000" stroke-width="4.32" stroke-opacity="0"></use></g></g></g></g></svg>