<?xml version="1.0" encoding="UTF-8" standalone="no"?>
<!DOCTYPE svg PUBLIC "-//W3C//DTD SVG 1.1//EN" "http://www.w3.org/Graphics/SVG/1.1/DTD/svg11.dtd">
<svg version="1.1" xmlns="http://www.w3.org/2000/svg" xmlns:xlink="http://www.w3.org/1999/xlink" preserveAspectRatio="xMidYMid meet" viewBox="0 0 640 640" width="640" height="640"><defs><path d="M86.24 0C38.62 0 0 38.61 0 86.24C0 132.99 0 507 0 553.76C0 601.39 38.61 640 86.24 640C101.62 640 178.47 640 316.82 640L317.21 411.3C281.56 411.3 261.76 411.3 257.8 411.3C250.07 411.3 243.81 405.05 243.78 397.33C243.75 389.96 243.52 330.98 243.49 323.61C243.46 315.85 249.75 309.54 257.51 309.54C261.47 309.54 281.24 309.54 316.82 309.54C316.82 266.8 316.82 243.06 316.82 238.31C316.82 155.64 367.31 110.63 441.05 110.63C447.1 110.63 495.51 110.63 501.56 110.63C509.3 110.63 515.58 116.91 515.58 124.65C515.58 130.87 515.58 180.6 515.58 186.81C515.58 194.55 509.3 200.83 501.57 200.83C497.85 200.83 468.15 200.85 464.43 200.85C424.33 200.85 416.56 219.91 416.56 247.87C416.56 251.98 416.56 272.54 416.56 309.54C469.44 309.54 498.81 309.54 504.68 309.54C513.08 309.54 519.59 316.87 518.6 325.21C517.73 332.58 510.74 391.56 509.87 398.93C509.03 405.98 503.05 411.3 495.95 411.3C490.68 411.3 464.35 411.3 416.96 411.3L416.56 640C498.88 640 544.61 640 553.76 640C601.39 640 640 601.39 640 553.76C640 507.01 640 132.99 640 86.24C640 38.61 601.39 0 553.76 0C460.25 0 133 0 86.24 0Z" id="h7UjpOWBaC"></path></defs><g><g><g><use xlink:href="#h7UjpOWBaC" opacity="1" fill="#f6f6f6" fill-opacity="1"></use><g><use xlink:href="#h7UjpOWBaC" opacity="1" fill-opacity="0" stroke="#000000" stroke-width="1" stroke-opacity="0"></use></g></g></g></g></svg>