<?xml version="1.0" encoding="UTF-8" standalone="no"?>
<!DOCTYPE svg PUBLIC "-//W3C//DTD SVG 1.1//EN" "http://www.w3.org/Graphics/SVG/1.1/DTD/svg11.dtd">
<svg version="1.1" xmlns="http://www.w3.org/2000/svg" xmlns:xlink="http://www.w3.org/1999/xlink" preserveAspectRatio="xMidYMid meet" viewBox="0 0 640 640" width="640" height="640"><defs><path d="M34.71 0C24.64 -0.02 15.42 5.6 10.82 14.56C6.15 23.63 6.97 34.56 12.93 42.84C33.84 72.29 201.06 307.87 221.97 337.32C222.04 337.42 222.11 337.51 222.18 337.61C229.78 347.87 233.89 360.29 233.91 373.05C233.91 397.06 233.91 589.13 233.91 613.13C233.86 620.24 236.66 627.07 241.66 632.12C246.68 637.16 253.49 640 260.6 640C264.21 639.99 267.79 639.28 271.12 637.89C282.87 633.41 376.84 597.58 388.59 593.1C399.11 589.89 406.09 579.96 406.09 568C406.09 548.51 406.09 392.55 406.09 373.05C406.11 360.29 410.22 347.87 417.81 337.61C417.88 337.51 417.96 337.42 418.03 337.32C438.93 307.87 606.16 72.28 627.07 42.84C633.03 34.56 633.85 23.64 629.18 14.56C624.59 5.6 615.36 -0.02 605.29 0C605.29 0 91.77 0 34.71 0Z" id="amHf7oTZO"></path></defs><g><g><g><use xlink:href="#amHf7oTZO" opacity="1" fill="#f6f6f6" fill-opacity="1"></use><g><use xlink:href="#amHf7oTZO" opacity="1" fill-opacity="0" stroke="#000000" stroke-width="1" stroke-opacity="0"></use></g></g></g></g></svg>