<?xml version="1.0" encoding="UTF-8" standalone="no"?>
<!DOCTYPE svg PUBLIC "-//W3C//DTD SVG 1.1//EN" "http://www.w3.org/Graphics/SVG/1.1/DTD/svg11.dtd">
<svg version="1.1" xmlns="http://www.w3.org/2000/svg" xmlns:xlink="http://www.w3.org/1999/xlink" preserveAspectRatio="xMidYMid meet" viewBox="0 0 640 640" width="640" height="640"><defs><path d="M48.59 413.55C16.21 427.34 -0.58 441.73 0.02 454.33C1.82 472.91 22.81 486.71 61.18 496.9C110.96 510.09 161.33 513.09 213.5 505.3C213.5 501.82 213.5 484.43 213.5 453.13L213.5 453.13C188.67 462.48 174.88 467.68 172.12 468.72C128.95 483.71 106.76 471.12 106.76 471.12C100.16 466.92 97.16 456.72 115.15 450.13C116.67 449.57 124.27 446.77 137.94 441.73L213.5 414.75L213.5 354.18L194.31 360.78L70.18 405.15C57.23 410.19 50.03 412.99 48.59 413.55Z" id="b4xtO75vwY"></path><path d="M385.6 349.98C417.99 365.57 446.77 366.77 468.36 350.58C490.55 334.99 502.54 308.01 502.54 267.23C502.54 224.65 494.14 192.27 475.55 170.68C458.76 147.9 428.78 128.71 384.4 113.71C329.23 95.72 282.46 80.13 245.28 72.34C245.28 103.32 245.28 258.23 245.28 537.08L345.43 567.66C345.43 335.95 345.43 207.22 345.43 181.48C344.83 158.09 385.6 159.89 385.6 194.67C385.6 225.73 385.6 334.45 385.6 349.98Z" id="c1dfBLcVFN"></path><path d="M585.89 394.36C547.51 381.77 514.53 375.77 478.55 376.97C445.57 377.57 405.99 388.36 370.61 399.76C370.61 403.71 370.61 423.5 370.61 459.12C428.9 438.61 461.28 427.22 467.76 424.94C467.76 424.94 497.14 414.15 522.33 420.74C541.52 425.54 540.32 436.34 521.13 442.93C519.65 443.53 512.25 446.53 498.94 451.93L370.61 498.1L370.61 558.67L430.58 537.08L574.5 486.11C584.57 481.43 590.17 478.83 591.29 478.31C626.07 465.72 641.66 451.93 639.86 434.54C639.26 418.35 620.07 405.75 585.89 394.36Z" id="b1eZmRefZG"></path></defs><g><g><g><use xlink:href="#b4xtO75vwY" opacity="1" fill="#f6f6f6" fill-opacity="1"></use><g><use xlink:href="#b4xtO75vwY" opacity="1" fill-opacity="0" stroke="#000000" stroke-width="1" stroke-opacity="0"></use></g></g><g><use xlink:href="#c1dfBLcVFN" opacity="1" fill="#f6f6f6" fill-opacity="1"></use><g><use xlink:href="#c1dfBLcVFN" opacity="1" fill-opacity="0" stroke="#000000" stroke-width="1" stroke-opacity="0"></use></g></g><g><use xlink:href="#b1eZmRefZG" opacity="1" fill="#f6f6f6" fill-opacity="1"></use><g><use xlink:href="#b1eZmRefZG" opacity="1" fill-opacity="0" stroke="#000000" stroke-width="1" stroke-opacity="0"></use></g></g></g></g></svg>