<?xml version="1.0" encoding="UTF-8" standalone="no"?>
<!DOCTYPE svg PUBLIC "-//W3C//DTD SVG 1.1//EN" "http://www.w3.org/Graphics/SVG/1.1/DTD/svg11.dtd">
<svg version="1.1" xmlns="http://www.w3.org/2000/svg" xmlns:xlink="http://www.w3.org/1999/xlink" preserveAspectRatio="xMidYMid meet" viewBox="0 0 640 640" width="640" height="640"><defs><path d="M0 320C0 496.45 143.55 640 320 640C496.45 640 640 496.45 640 320C640 143.55 496.45 0 320 0C143.55 0 0 143.55 0 320ZM45.71 320C45.71 168.75 168.75 45.71 320 45.71C471.25 45.71 594.29 168.75 594.29 320C594.29 471.25 471.25 594.29 320 594.29C168.75 594.29 45.71 471.25 45.71 320Z" id="a52kQd2Jl"></path><path d="M297.14 190.48C297.14 216.38 297.14 423.62 297.14 449.52C297.14 462.15 307.38 472.38 320 472.38C332.63 472.38 342.86 462.15 342.86 449.52C342.86 423.62 342.86 216.38 342.86 190.48C342.86 177.85 332.63 167.62 320 167.62C307.38 167.62 297.14 177.85 297.14 190.48Z" id="c1gg0FyRAo"></path><path d="M190.48 297.14C177.85 297.14 167.62 307.38 167.62 320C167.62 332.63 177.85 342.86 190.48 342.86C216.38 342.86 423.62 342.86 449.52 342.86C462.15 342.86 472.38 332.63 472.38 320C472.38 307.38 462.15 297.14 449.52 297.14C397.71 297.14 216.38 297.14 190.48 297.14Z" id="b14wJ7nydO"></path></defs><g><g><g><use xlink:href="#a52kQd2Jl" opacity="1" fill="#2c8e54" fill-opacity="1"></use><g><use xlink:href="#a52kQd2Jl" opacity="1" fill-opacity="0" stroke="#000000" stroke-width="1" stroke-opacity="0"></use></g></g><g><use xlink:href="#c1gg0FyRAo" opacity="1" fill="#2c8e54" fill-opacity="1"></use><g><use xlink:href="#c1gg0FyRAo" opacity="1" fill-opacity="0" stroke="#000000" stroke-width="1" stroke-opacity="0"></use></g></g><g><use xlink:href="#b14wJ7nydO" opacity="1" fill="#2c8e54" fill-opacity="1"></use><g><use xlink:href="#b14wJ7nydO" opacity="1" fill-opacity="0" stroke="#000000" stroke-width="1" stroke-opacity="0"></use></g></g></g></g></svg>