<?xml version="1.0" encoding="UTF-8" standalone="no"?>
<!DOCTYPE svg PUBLIC "-//W3C//DTD SVG 1.1//EN" "http://www.w3.org/Graphics/SVG/1.1/DTD/svg11.dtd">
<svg version="1.1" xmlns="http://www.w3.org/2000/svg" xmlns:xlink="http://www.w3.org/1999/xlink" preserveAspectRatio="xMidYMid meet" viewBox="0 0 640 640" width="640" height="640"><defs><path d="M13.89 320C13.89 488.79 151.21 626.11 320 626.11C488.79 626.11 626.11 488.79 626.11 320C626.11 151.21 488.79 13.89 320 13.89C151.21 13.89 13.89 151.21 13.89 320Z" id="as5qke03O"></path><path d="M109.44 504.86C110.9 503.97 112.38 503 113.83 502.25C162.45 477.29 237.68 447.55 320 447.55C402.32 447.55 477.55 477.29 526.15 502.24C527.61 502.99 529.1 503.96 530.57 504.85C479.1 563.4 403.89 600.6 320 600.6C236.11 600.6 160.9 563.4 109.44 504.86Z" id="b5BBvIW2s"></path><path d="M320 90.42C235.47 90.42 166.94 158.94 166.94 243.47C166.94 328 235.47 396.53 320 396.53C404.53 396.53 473.06 328 473.06 243.47C473.06 158.94 404.53 90.42 320 90.42Z" id="bkMJj3IQ"></path><path d="M320 115.93C249.56 115.93 192.45 173.03 192.45 243.47C192.45 313.91 249.56 371.02 320 371.02C390.44 371.02 447.55 313.91 447.55 243.47C447.55 173.03 390.44 115.93 320 115.93Z" id="a3JdKFiCz4"></path></defs><g><g><g><use xlink:href="#as5qke03O" opacity="1" fill="#f6f6f6" fill-opacity="0"></use><g><use xlink:href="#as5qke03O" opacity="1" fill-opacity="0" stroke="#f6f6f6" stroke-width="25" stroke-opacity="1"></use></g></g><g><use xlink:href="#b5BBvIW2s" opacity="1" fill="#f6f6f6" fill-opacity="1"></use><g><use xlink:href="#b5BBvIW2s" opacity="1" fill-opacity="0" stroke="#000000" stroke-width="1" stroke-opacity="0"></use></g></g><g><use xlink:href="#bkMJj3IQ" opacity="1" fill="#f6f6f6" fill-opacity="1"></use><g><use xlink:href="#bkMJj3IQ" opacity="1" fill-opacity="0" stroke="#000000" stroke-width="1" stroke-opacity="0"></use></g></g><g><use xlink:href="#a3JdKFiCz4" opacity="1" fill="#f6f6f6" fill-opacity="1"></use><g><use xlink:href="#a3JdKFiCz4" opacity="1" fill-opacity="0" stroke="#000000" stroke-width="1" stroke-opacity="0"></use></g></g></g></g></svg>