<?xml version="1.0" encoding="UTF-8" standalone="no"?>
<!DOCTYPE svg PUBLIC "-//W3C//DTD SVG 1.1//EN" "http://www.w3.org/Graphics/SVG/1.1/DTD/svg11.dtd">
<svg version="1.1" xmlns="http://www.w3.org/2000/svg" xmlns:xlink="http://www.w3.org/1999/xlink" preserveAspectRatio="xMidYMid meet" viewBox="0 0 640 640" width="640" height="640"><defs><path d="M151.25 168.75C151.25 261.8 226.95 337.5 320 337.5C413.05 337.5 488.75 261.8 488.75 168.75C488.75 75.7 413.05 0 320 0C226.95 0 151.25 75.7 151.25 168.75Z" id="b3Q6RstJzn"></path><path d="M372.29 377.5C361.83 377.5 278.16 377.5 267.7 377.5C176.77 377.5 92.34 422.67 41.9 498.35C41.69 498.66 40.64 500.24 38.75 503.07L38.75 640L601.25 640L601.25 640L601.25 503.07L598.1 498.35C508.18 417.78 432.91 377.5 372.29 377.5Z" id="akVOMIuSC"></path></defs><g><g><g><use xlink:href="#b3Q6RstJzn" opacity="1" fill="#f6f6f6" fill-opacity="1"></use><g><use xlink:href="#b3Q6RstJzn" opacity="1" fill-opacity="0" stroke="#000000" stroke-width="1" stroke-opacity="0"></use></g></g><g><use xlink:href="#akVOMIuSC" opacity="1" fill="#f6f6f6" fill-opacity="1"></use><g><use xlink:href="#akVOMIuSC" opacity="1" fill-opacity="0" stroke="#000000" stroke-width="1" stroke-opacity="0"></use></g></g></g></g></svg>