<?xml version="1.0" encoding="UTF-8" standalone="no"?>
<!DOCTYPE svg PUBLIC "-//W3C//DTD SVG 1.1//EN" "http://www.w3.org/Graphics/SVG/1.1/DTD/svg11.dtd">
<svg version="1.1" xmlns="http://www.w3.org/2000/svg" xmlns:xlink="http://www.w3.org/1999/xlink" preserveAspectRatio="xMidYMid meet" viewBox="0 0 640 640" width="640" height="640"><defs><path d="M6 319.95C6 493.34 146.56 633.91 319.95 633.91C493.34 633.91 633.91 493.34 633.91 319.95C633.91 146.56 493.34 6 319.95 6C146.56 6 6 146.56 6 319.95ZM320.92 430.75C317.07 472.2 281.61 504.64 238.9 504.64C200.25 504.67 166.75 477.91 158.24 440.21C154.52 438.73 135.9 431.33 102.39 418.02L102.39 314.83C159.01 337.47 190.47 350.05 196.76 352.57C211.49 343.78 228.03 339.84 247.28 341.53C254.17 331.75 309.27 253.52 316.16 243.75C316.61 183.81 366.12 135.26 426.84 135.26C487.9 135.26 537.4 184.38 537.52 244.53C537.52 305.13 487.9 354.03 427.06 354.03C405.83 369.37 331.53 423.07 320.92 430.75Z" id="b4bc4sxixv"></path><path d="M225.76 364.06C228.28 365.07 248.49 373.18 251.02 374.19C275.48 383.71 287.6 411.26 278.08 435.72C278.01 435.9 277.94 436.09 277.87 436.27C267.86 460.92 239.75 472.79 215.1 462.78C215.06 462.77 215.03 462.75 215 462.74C205.14 458.91 195.06 454.74 185.2 451.02C200.58 480.75 237.14 492.38 266.86 477.01C296.59 461.64 308.22 425.08 292.85 395.35C282.42 375.19 261.6 362.54 238.9 362.59C234.48 362.58 230.07 363.07 225.76 364.06Z" id="c6qchzRDys"></path><path d="M352.63 244.65C352.63 285.32 385.94 317.99 426.95 317.99C467.62 318.1 501.04 285.32 500.92 244.65C500.93 204.21 467.62 171.31 426.95 171.31C385.83 171.31 352.63 204.21 352.63 244.65ZM383.21 244.18C383.47 219.85 403.4 200.34 427.72 200.6C451.86 200.86 471.3 220.5 471.3 244.65C471.21 269.06 451.35 288.78 426.93 288.69C426.88 288.69 426.83 288.69 426.78 288.69C402.45 288.43 382.95 268.5 383.21 244.18Z" id="c9LBDdN0r"></path></defs><g><g><g><use xlink:href="#b4bc4sxixv" opacity="1" fill="#f6f6f6" fill-opacity="1"></use><g><use xlink:href="#b4bc4sxixv" opacity="1" fill-opacity="0" stroke="#000000" stroke-width="1" stroke-opacity="0"></use></g></g><g><use xlink:href="#c6qchzRDys" opacity="1" fill="#f6f6f6" fill-opacity="1"></use><g><use xlink:href="#c6qchzRDys" opacity="1" fill-opacity="0" stroke="#000000" stroke-width="1" stroke-opacity="0"></use></g></g><g><use xlink:href="#c9LBDdN0r" opacity="1" fill="#f6f6f6" fill-opacity="1"></use><g><use xlink:href="#c9LBDdN0r" opacity="1" fill-opacity="0" stroke="#000000" stroke-width="1" stroke-opacity="0"></use></g></g></g></g></svg>