<?xml version="1.0" encoding="UTF-8" standalone="no"?>
<!DOCTYPE svg PUBLIC "-//W3C//DTD SVG 1.1//EN" "http://www.w3.org/Graphics/SVG/1.1/DTD/svg11.dtd">
<svg version="1.1" xmlns="http://www.w3.org/2000/svg" xmlns:xlink="http://www.w3.org/1999/xlink" preserveAspectRatio="xMidYMid meet" viewBox="0 0 640 640" width="640" height="640"><defs><path d="M351.25 0L351.25 640C438.25 640 486.58 640 496.25 640C575.51 640 640 575.51 640 496.25C640 461 640 179 640 143.75C640 64.49 575.51 0 496.25 0C476.92 0 428.58 0 351.25 0ZM420 339.38C420 297.68 453.93 263.75 495.63 263.75C537.32 263.75 571.25 297.68 571.25 339.38C571.25 381.07 537.32 415 495.63 415C453.93 415 420 381.07 420 339.38Z" id="b2vox8EMrh"></path><path d="M143.75 640C64.49 640 0 575.51 0 496.25C0 461 0 179 0 143.75C0 64.49 64.49 0 143.75 0C155.08 0 211.75 0 313.75 0L313.75 640C211.75 640 155.08 640 143.75 640ZM37.5 143.75C37.5 179 37.5 461 37.5 496.25C37.5 554.84 85.16 602.5 143.75 602.5C152.58 602.5 196.75 602.5 276.25 602.5L276.25 37.5L143.75 37.5C72.92 69.28 37.5 104.69 37.5 143.75Z" id="gaOUlEvm8"></path><path d="M81.25 188.13C81.25 146.43 115.18 112.5 156.88 112.5C198.57 112.5 232.5 146.43 232.5 188.13C232.5 229.82 198.57 263.75 156.88 263.75C115.18 263.75 81.25 229.82 81.25 188.13Z" id="a75kXrMVM"></path></defs><g><g><g><use xlink:href="#b2vox8EMrh" opacity="1" fill="#f6f6f6" fill-opacity="1"></use><g><use xlink:href="#b2vox8EMrh" opacity="1" fill-opacity="0" stroke="#000000" stroke-width="1" stroke-opacity="0"></use></g></g><g><use xlink:href="#gaOUlEvm8" opacity="1" fill="#f6f6f6" fill-opacity="1"></use><g><use xlink:href="#gaOUlEvm8" opacity="1" fill-opacity="0" stroke="#000000" stroke-width="1" stroke-opacity="0"></use></g></g><g><use xlink:href="#a75kXrMVM" opacity="1" fill="#f6f6f6" fill-opacity="1"></use><g><use xlink:href="#a75kXrMVM" opacity="1" fill-opacity="0" stroke="#000000" stroke-width="1" stroke-opacity="0"></use></g></g></g></g></svg>