<?xml version="1.0" encoding="UTF-8" standalone="no"?>
<!DOCTYPE svg PUBLIC "-//W3C//DTD SVG 1.1//EN" "http://www.w3.org/Graphics/SVG/1.1/DTD/svg11.dtd">
<svg version="1.1" xmlns="http://www.w3.org/2000/svg" xmlns:xlink="http://www.w3.org/1999/xlink" preserveAspectRatio="xMidYMid meet" viewBox="0 0 640 640" width="640" height="640"><defs><path d="M420.13 80.1C420.13 68.09 420.13 61.41 420.13 60.08C420.13 26.9 393.23 0 360.05 0C352.04 0 287.96 0 279.95 0C246.77 0 219.87 26.9 219.87 60.08C219.87 61.41 219.87 68.09 219.87 80.1C153.79 80.1 117.08 80.1 109.74 80.1C82.09 80.1 59.67 102.51 59.67 130.16C59.67 134.17 59.67 166.21 59.67 170.21C59.67 181.27 68.64 190.24 79.7 190.24C127.76 190.24 512.24 190.24 560.3 190.24C571.36 190.24 580.33 181.27 580.33 170.21C580.33 166.21 580.33 134.17 580.33 130.16C580.33 102.51 557.91 80.1 530.26 80.1C515.58 80.1 478.87 80.1 420.13 80.1ZM259.92 60.08C259.92 49.04 268.91 40.05 279.95 40.05C287.96 40.05 352.04 40.05 360.05 40.05C371.09 40.05 380.08 49.04 380.08 60.08C380.08 61.41 380.08 68.09 380.08 80.1L259.92 80.1C259.92 69.42 259.92 62.75 259.92 60.08Z" id="azMo4SD4f"></path><path d="M97.68 230.29C94.1 230.29 91.26 233.27 91.43 236.84C93.08 271.52 106.3 548.91 107.95 583.58C109.47 615.67 135.83 640.8 167.95 640.8C198.36 640.8 441.64 640.8 472.05 640.8C504.17 640.8 530.53 615.67 532.05 583.58C533.7 548.91 546.92 271.52 548.57 236.84C548.74 233.27 545.9 230.29 542.32 230.29C453.39 230.29 186.61 230.29 97.68 230.29ZM400.1 280.35C400.1 269.29 409.06 260.33 420.13 260.33C431.19 260.33 440.15 269.29 440.15 280.35C440.15 306.38 440.15 514.64 440.15 540.68C440.15 551.74 431.19 560.7 420.13 560.7C409.06 560.7 400.1 551.74 400.1 540.68C400.1 488.61 400.1 332.42 400.1 280.35ZM299.97 280.35C299.97 269.29 308.94 260.33 320 260.33C331.06 260.33 340.03 269.29 340.03 280.35C340.03 306.38 340.03 514.64 340.03 540.68C340.03 551.74 331.06 560.7 320 560.7C308.94 560.7 299.97 551.74 299.97 540.68C299.97 488.61 299.97 332.42 299.97 280.35ZM199.85 280.35C199.85 269.29 208.81 260.33 219.87 260.33C230.94 260.33 239.9 269.29 239.9 280.35C239.9 306.38 239.9 514.64 239.9 540.68C239.9 551.74 230.94 560.7 219.87 560.7C208.81 560.7 199.85 551.74 199.85 540.68C199.85 488.61 199.85 332.42 199.85 280.35Z" id="bFjZ5kN9"></path></defs><g><g><g><use xlink:href="#azMo4SD4f" opacity="1" fill="#f6f6f6" fill-opacity="1"></use><g><use xlink:href="#azMo4SD4f" opacity="1" fill-opacity="0" stroke="#000000" stroke-width="1" stroke-opacity="0"></use></g></g><g><use xlink:href="#bFjZ5kN9" opacity="1" fill="#f6f6f6" fill-opacity="1"></use><g><use xlink:href="#bFjZ5kN9" opacity="1" fill-opacity="0" stroke="#000000" stroke-width="1" stroke-opacity="0"></use></g></g></g></g></svg>