<?xml version="1.0" encoding="UTF-8" standalone="no" ?>
<!DOCTYPE svg PUBLIC "-//W3C//DTD SVG 1.1//EN" "http://www.w3.org/Graphics/SVG/1.1/DTD/svg11.dtd">
<svg xmlns="http://www.w3.org/2000/svg" xmlns:xlink="http://www.w3.org/1999/xlink" version="1.1" width="1080" height="1080" viewBox="0 0 1080 1080" xml:space="preserve">
<desc>Created with Fabric.js 4.2.0</desc>
<defs>
</defs>
<g transform="matrix(1 0 0 1 540 540)" id="80dc74b8-a306-4d16-bd42-b85866d6c572"  >
<rect style="stroke: none; stroke-width: 1; stroke-dasharray: none; stroke-linecap: butt; stroke-dashoffset: 0; stroke-linejoin: miter; stroke-miterlimit: 4; fill: rgb(255,255,255); fill-opacity: 0; fill-rule: nonzero; opacity: 1;" vector-effect="non-scaling-stroke"  x="-540" y="-540" rx="0" ry="0" width="1080" height="1080" />
</g>
<g transform="matrix(1 0 0 1 540 540)" id="ce51348a-0254-4064-97d8-b5f8f2a09be0"  >
</g>
<g transform="matrix(0.83 0 0 0.83 540 540)"  >
<g style="" vector-effect="non-scaling-stroke"   >
		<g transform="matrix(1 0 0 1 0 -225.28)"  >
<path style="stroke: none; stroke-width: 1; stroke-dasharray: none; stroke-linecap: butt; stroke-dashoffset: 0; stroke-linejoin: miter; stroke-miterlimit: 4; fill: rgb(73,65,78); fill-rule: nonzero; opacity: 1;" vector-effect="non-scaling-stroke"  transform=" translate(-320, -95.12)" d="M 420.13 80.1 C 420.13 68.09 420.13 61.41 420.13 60.08 C 420.13 26.9 393.23 0 360.05 0 C 352.04 0 287.96 0 279.95 0 C 246.77 0 219.87 26.9 219.87 60.08 C 219.87 61.41 219.87 68.09 219.87 80.1 C 153.79 80.1 117.08 80.1 109.74 80.1 C 82.09 80.1 59.67 102.51 59.67 130.16 C 59.67 134.17 59.67 166.21 59.67 170.21 C 59.67 181.27 68.64 190.24 79.7 190.24 C 127.76 190.24 512.24 190.24 560.3 190.24 C 571.36 190.24 580.33 181.27 580.33 170.21 C 580.33 166.21 580.33 134.17 580.33 130.16 C 580.33 102.51 557.91 80.1 530.26 80.1 C 515.58 80.1 478.87 80.1 420.13 80.1 Z M 259.92 60.08 C 259.92 49.04 268.91 40.05 279.95 40.05 C 287.96 40.05 352.04 40.05 360.05 40.05 C 371.09 40.05 380.08 49.04 380.08 60.08 C 380.08 61.41 380.08 68.09 380.08 80.1 L 259.92 80.1 C 259.92 69.42 259.92 62.75 259.92 60.08 Z" stroke-linecap="round" />
</g>
		<g transform="matrix(1 0 0 1 0 -225.28)"  >
<path style="stroke: rgb(0,0,0); stroke-opacity: 0; stroke-width: 1; stroke-dasharray: none; stroke-linecap: butt; stroke-dashoffset: 0; stroke-linejoin: miter; stroke-miterlimit: 4; fill: rgb(73,65,78); fill-rule: nonzero; opacity: 1;" vector-effect="non-scaling-stroke"  transform=" translate(-320, -95.12)" d="M 420.13 80.1 C 420.13 68.09 420.13 61.41 420.13 60.08 C 420.13 26.9 393.23 0 360.05 0 C 352.04 0 287.96 0 279.95 0 C 246.77 0 219.87 26.9 219.87 60.08 C 219.87 61.41 219.87 68.09 219.87 80.1 C 153.79 80.1 117.08 80.1 109.74 80.1 C 82.09 80.1 59.67 102.51 59.67 130.16 C 59.67 134.17 59.67 166.21 59.67 170.21 C 59.67 181.27 68.64 190.24 79.7 190.24 C 127.76 190.24 512.24 190.24 560.3 190.24 C 571.36 190.24 580.33 181.27 580.33 170.21 C 580.33 166.21 580.33 134.17 580.33 130.16 C 580.33 102.51 557.91 80.1 530.26 80.1 C 515.58 80.1 478.87 80.1 420.13 80.1 Z M 259.92 60.08 C 259.92 49.04 268.91 40.05 279.95 40.05 C 287.96 40.05 352.04 40.05 360.05 40.05 C 371.09 40.05 380.08 49.04 380.08 60.08 C 380.08 61.41 380.08 68.09 380.08 80.1 L 259.92 80.1 C 259.92 69.42 259.92 62.75 259.92 60.08 Z" stroke-linecap="round" />
</g>
		<g transform="matrix(1 0 0 1 0 115.14)"  >
<path style="stroke: none; stroke-width: 1; stroke-dasharray: none; stroke-linecap: butt; stroke-dashoffset: 0; stroke-linejoin: miter; stroke-miterlimit: 4; fill: rgb(73,65,78); fill-rule: nonzero; opacity: 1;" vector-effect="non-scaling-stroke"  transform=" translate(-320, -435.54)" d="M 97.68 230.29 C 94.1 230.29 91.26 233.27 91.43 236.84 C 93.08 271.52 106.3 548.91 107.95 583.58 C 109.47 615.67 135.83 640.8 167.95 640.8 C 198.36 640.8 441.64 640.8 472.05 640.8 C 504.17 640.8 530.53 615.67 532.05 583.58 C 533.7 548.91 546.92 271.52 548.57 236.84 C 548.74 233.27 545.9 230.29 542.32 230.29 C 453.39 230.29 186.61 230.29 97.68 230.29 Z M 400.1 280.35 C 400.1 269.29 409.06 260.33 420.13 260.33 C 431.19 260.33 440.15 269.29 440.15 280.35 C 440.15 306.38 440.15 514.64 440.15 540.68 C 440.15 551.74 431.19 560.7 420.13 560.7 C 409.06 560.7 400.1 551.74 400.1 540.68 C 400.1 488.61 400.1 332.42 400.1 280.35 Z M 299.97 280.35 C 299.97 269.29 308.94 260.33 320 260.33 C 331.06 260.33 340.03 269.29 340.03 280.35 C 340.03 306.38 340.03 514.64 340.03 540.68 C 340.03 551.74 331.06 560.7 320 560.7 C 308.94 560.7 299.97 551.74 299.97 540.68 C 299.97 488.61 299.97 332.42 299.97 280.35 Z M 199.85 280.35 C 199.85 269.29 208.81 260.33 219.87 260.33 C 230.94 260.33 239.9 269.29 239.9 280.35 C 239.9 306.38 239.9 514.64 239.9 540.68 C 239.9 551.74 230.94 560.7 219.87 560.7 C 208.81 560.7 199.85 551.74 199.85 540.68 C 199.85 488.61 199.85 332.42 199.85 280.35 Z" stroke-linecap="round" />
</g>
		<g transform="matrix(1 0 0 1 0 115.14)"  >
<path style="stroke: rgb(0,0,0); stroke-opacity: 0; stroke-width: 1; stroke-dasharray: none; stroke-linecap: butt; stroke-dashoffset: 0; stroke-linejoin: miter; stroke-miterlimit: 4; fill: rgb(73,65,78); fill-rule: nonzero; opacity: 1;" vector-effect="non-scaling-stroke"  transform=" translate(-320, -435.54)" d="M 97.68 230.29 C 94.1 230.29 91.26 233.27 91.43 236.84 C 93.08 271.52 106.3 548.91 107.95 583.58 C 109.47 615.67 135.83 640.8 167.95 640.8 C 198.36 640.8 441.64 640.8 472.05 640.8 C 504.17 640.8 530.53 615.67 532.05 583.58 C 533.7 548.91 546.92 271.52 548.57 236.84 C 548.74 233.27 545.9 230.29 542.32 230.29 C 453.39 230.29 186.61 230.29 97.68 230.29 Z M 400.1 280.35 C 400.1 269.29 409.06 260.33 420.13 260.33 C 431.19 260.33 440.15 269.29 440.15 280.35 C 440.15 306.38 440.15 514.64 440.15 540.68 C 440.15 551.74 431.19 560.7 420.13 560.7 C 409.06 560.7 400.1 551.74 400.1 540.68 C 400.1 488.61 400.1 332.42 400.1 280.35 Z M 299.97 280.35 C 299.97 269.29 308.94 260.33 320 260.33 C 331.06 260.33 340.03 269.29 340.03 280.35 C 340.03 306.38 340.03 514.64 340.03 540.68 C 340.03 551.74 331.06 560.7 320 560.7 C 308.94 560.7 299.97 551.74 299.97 540.68 C 299.97 488.61 299.97 332.42 299.97 280.35 Z M 199.85 280.35 C 199.85 269.29 208.81 260.33 219.87 260.33 C 230.94 260.33 239.9 269.29 239.9 280.35 C 239.9 306.38 239.9 514.64 239.9 540.68 C 239.9 551.74 230.94 560.7 219.87 560.7 C 208.81 560.7 199.85 551.74 199.85 540.68 C 199.85 488.61 199.85 332.42 199.85 280.35 Z" stroke-linecap="round" />
</g>
</g>
</g>
</svg>