<?xml version="1.0" encoding="UTF-8" standalone="no"?>
<!DOCTYPE svg PUBLIC "-//W3C//DTD SVG 1.1//EN" "http://www.w3.org/Graphics/SVG/1.1/DTD/svg11.dtd">
<svg version="1.1" xmlns="http://www.w3.org/2000/svg" xmlns:xlink="http://www.w3.org/1999/xlink" preserveAspectRatio="xMidYMid meet" viewBox="0 0 561 144.5" width="561" height="144.5"><defs><path d="M139.5 60.8L139.5 42.7L157 42.7L157 60.8L156.9 60.8L139.5 60.8ZM139.7 142.7L139.7 72.9L156.7 72.9L156.7 142.7L139.7 142.7Z" id="d6TdKnwjL"></path><path d="M214.6 95C213 93.2 211.2 91.5 209.2 90.1C207.2 88.7 205.2 88 203.2 88C202.1 88 200.9 88.3 199.7 88.8C198.4 89.3 197.2 90.2 196.1 91.4C195 92.6 194 94.2 193.2 96.2C192.4 98.2 192 100.6 192 103.5C192 106.12 192 119.22 192 142.8L175.2 142.8L175.2 73.1L192 73.1C192 77.6 192 80.1 192 80.6C194 77.6 196.2 75.3 198.7 73.7C201.1 72.1 203.9 71.3 206.9 71.3C209.8 71.3 212.7 72.1 215.6 73.8C218.5 75.3 221.1 77.5 223.6 80.3C223.6 80.3 223.6 80.3 223.6 80.3C218.2 89.12 215.2 94.02 214.6 95Z" id="a20yQG7Y5b"></path><path d="M261.2 63.65L261.2 143.35L242.9 143.35L242.9 63.65L217.2 63.65L217.2 47.05L286.9 47.05L286.9 63.65L261.2 63.65Z" id="bhMm1YYM"></path><path d="M326.3 95C324.7 93.2 322.9 91.5 320.9 90.1C318.9 88.7 316.9 88 314.9 88C313.8 88 312.6 88.3 311.4 88.8C310.1 89.3 308.9 90.2 307.8 91.4C306.7 92.6 305.7 94.2 304.9 96.2C304.1 98.2 303.7 100.6 303.7 103.5C303.7 106.12 303.7 119.22 303.7 142.8L286.9 142.8L286.9 73.1L303.7 73.1C303.7 77.6 303.7 80.1 303.7 80.6C305.7 77.6 307.9 75.3 310.4 73.7C312.8 72.1 315.6 71.3 318.6 71.3C321.5 71.3 324.4 72.1 327.3 73.8C330.1 75.3 332.8 77.5 335.3 80.3C335.3 80.3 335.3 80.3 335.3 80.3C329.9 89.12 326.9 94.02 326.3 95Z" id="a1PfIXjjq"></path><path d="M381.6 139C378.7 141.1 375.5 142.5 372.2 143.3C368.9 144.1 365.5 144.5 362 144.5C358.7 144.5 355.8 144 353.2 143C350.6 142 348.3 140.5 346.3 138.7C344.4 136.8 342.9 134.6 341.8 132C340.8 129.4 340.2 126.6 340.2 123.4C340.2 119.5 341 116 342.7 113.1C344.4 110.2 346.6 107.7 349.5 105.7C352.4 103.7 355.7 102.3 359.6 101.3C363.4 100.3 367.6 99.9 372 99.9C372.97 99.9 380.73 99.9 381.7 99.9C381.7 95.8 380.4 92.5 377.9 90.1C375.3 87.7 371.7 86.5 366.8 86.5C364.5 86.5 362.1 86.9 359.6 87.8C357.1 88.7 354.6 90.3 352.2 92.6C351.21 91.56 343.29 83.24 342.3 82.2C345.9 78.7 350 75.9 354.7 74C359.4 72.1 364.2 71.1 369.2 71.1C373.9 71.1 378 71.9 381.6 73.4C385.2 74.9 388.2 76.9 390.4 79.3C393.3 82.4 395.4 85.8 396.6 89.5C397.8 93.3 398.4 98.1 398.4 104C398.4 106.58 398.4 119.48 398.4 142.7L381.6 142.7C381.6 140.48 381.6 139.25 381.6 139ZM373.9 112.4C371.6 112.4 369.4 112.6 367.3 112.9C365.2 113.2 363.5 113.8 361.9 114.5C360.4 115.3 359.2 116.2 358.3 117.5C357.4 118.7 357 120.2 357 121.8C357 124.2 357.9 126.2 359.7 127.7C361.5 129.2 363.9 130 366.7 130C369.2 130 371.6 129.6 374.1 128.8C376.7 128 379.1 126.9 381.6 125.3C381.6 124.44 381.6 120.14 381.6 112.4C376.98 112.4 374.41 112.4 373.9 112.4Z" id="a58fwNDDX"></path><path d="M460.5 139.1C458.3 140.9 456 142.3 453.4 143.1C450.8 143.9 448.1 144.4 445.3 144.4C440.6 144.4 436.2 143.4 432.3 141.4C428.3 139.4 424.9 136.8 422.1 133.4C419.2 130.1 417 126.2 415.4 121.8C413.8 117.4 413 112.7 413 107.8C413 102.6 413.9 97.7 415.7 93.3C417.5 88.8 419.9 85 423 81.7C426 78.4 429.5 75.8 433.4 73.9C437.3 72 441.3 71.1 445.4 71.1C448.3 71.1 451.1 71.5 453.8 72.3C456.5 73.1 458.8 74.2 460.8 75.7C460.8 73.5 460.8 62.5 460.8 42.7L477.8 42.7L477.8 142.7L460.5 142.7C460.5 140.54 460.5 139.34 460.5 139.1ZM460.7 90.5C459.9 89.9 459 89.4 458 88.9C457 88.4 455.9 87.9 454.8 87.6C453.7 87.2 452.6 87 451.5 86.8C450.4 86.6 449.4 86.5 448.6 86.5C445.8 86.5 443.2 87 440.9 88C438.6 89 436.6 90.5 434.9 92.3C433.2 94.2 431.9 96.5 430.9 99.1C430 101.8 429.5 104.7 429.5 107.9C429.5 111 430 113.9 430.9 116.5C431.8 119.1 433.1 121.4 434.8 123.3C436.4 125.2 438.4 126.7 440.7 127.7C443 128.7 445.5 129.3 448.2 129.3C452.8 129.2 456.9 127.5 460.7 124C460.7 117.3 460.7 93.85 460.7 90.5Z" id="aaAWmyrXXF"></path><path d="M560.4 114.9C555.02 114.9 511.98 114.9 506.6 114.9C507.2 116.9 508.1 118.8 509.2 120.6C510.3 122.4 511.7 124 513.3 125.3C514.9 126.6 516.8 127.7 518.8 128.4C520.9 129.2 523.1 129.5 525.6 129.5C528.6 129.5 531.7 129 534.7 127.9C537.7 126.8 540.2 125.3 542.3 123.5C543.36 124.6 551.84 133.4 552.9 134.5C548.2 138.1 543.7 140.7 539.2 142.2C534.7 143.7 530 144.4 525.1 144.4C520.1 144.4 515.3 143.4 511 141.5C506.6 139.6 502.8 137 499.6 133.7C496.4 130.4 493.8 126.5 492 122.1C490.1 117.6 489.2 112.9 489.2 107.8C489.2 102.7 490.1 98 492 93.5C493.9 89 496.4 85.2 499.7 81.9C503 78.6 506.8 76 511.1 74.1C515.4 72.2 520.1 71.2 525.1 71.2C529.8 71.2 534.4 72.1 538.7 73.9C543 75.7 546.9 78.2 550.2 81.4C553.5 84.6 556.2 88.5 558.1 92.9C560.1 97.4 561 102.4 561 107.7C561 108.8 560.9 110 560.8 111.2C560.7 112.4 560.5 113.7 560.4 114.9ZM536.5 90.3C533.1 87.6 529.3 86.3 525 86.3C520.8 86.3 517 87.6 513.7 90.3C510.4 93 508 96.6 506.7 101C509.15 101 521.42 101 543.5 101C541.03 95.67 538.7 92.1 536.5 90.3Z" id="bnQPOJPPc"></path><path d="M0 2L35 2L48.8 28.7L44.3 37.8L29.9 10.5L13.7 10.5L71.8 124.2L131.1 11.3L114.8 11L101.1 37.3L96.4 28.6L109.5 2.9L145.1 2.9L71.7 142.6L0 2Z" id="b6k5P8Rxgc"></path><path d="M48.2 46.7L72.5 94.1L96.6 47L72.5 0L48.2 46.7Z" id="a18vkD8O7"></path><path d="M49.11 46.66C49.11 46.18 54.36 35.69 60.79 23.33C61.57 21.83 65.46 14.34 72.46 0.86L96.18 46.97C90.37 58.36 87.14 64.69 86.49 65.96C81.17 76.41 75.81 86.78 74.59 89C74.44 89.27 73.71 90.62 72.38 93.04L60.74 70.28C52.99 54.85 49.11 46.98 49.11 46.66Z" id="mr4Ee9MsH"></path><path d="M49.11 46.66C49.11 46.18 54.36 35.69 60.79 23.33C61.57 21.83 65.46 14.34 72.46 0.86L96.18 46.97C90.37 58.36 87.14 64.69 86.49 65.96C81.17 76.41 75.81 86.78 74.59 89C74.44 89.27 73.71 90.62 72.38 93.04L60.74 70.28C52.99 54.85 49.11 46.98 49.11 46.66Z" id="a5oLxYZnXr"></path><path d="M49.84 46.5C49.86 45.09 71.57 3.01 72.35 2.87C72.71 2.81 78.12 12.7 84.38 24.85C85.14 26.32 88.93 33.69 95.76 46.95C91.25 55.77 88.74 60.67 88.24 61.65C84.1 69.74 78.84 79.97 76.54 84.37C76.26 84.9 74.87 87.58 72.37 92.39L61.1 69.92C53.59 54.65 49.83 46.85 49.84 46.5Z" id="aqM4Gnyrd"></path><path d="M49.83 46.61C49.86 45.08 71.65 2.74 72.39 2.75C72.73 2.75 78.15 12.7 84.44 24.86C85.2 26.33 89.02 33.7 95.88 46.96C90.58 57.29 87.64 63.02 87.05 64.17C82.19 73.63 76.9 83.85 75.29 86.87C75.1 87.24 74.12 89.06 72.37 92.35L61.08 70.02C53.57 54.81 49.82 47 49.83 46.61Z" id="e3UCvmKMf2"></path><path d="M49.81 46.61C49.87 45.03 71.64 2.73 72.39 2.74C72.73 2.75 78.18 12.69 84.48 24.84C85.24 26.31 89.07 33.68 95.95 46.93C90.3 57.91 87.17 64.01 86.54 65.23C81.36 75.29 76.05 85.53 74.74 87.97C74.58 88.27 73.78 89.75 72.35 92.42L61.06 70.05C53.54 54.82 49.79 47 49.81 46.61Z" id="aGTRCtLCZ"></path><path d="M49.84 46.78C49.86 45.01 71.7 2.49 72.48 2.72C72.83 2.83 78.27 12.82 84.56 24.93C85.32 26.4 89.13 33.73 95.99 46.94C91.06 56.55 88.33 61.89 87.78 62.96C83.27 71.77 77.94 82.02 75.95 85.75C75.71 86.2 74.5 88.46 72.32 92.52L61.08 70.27C53.58 55.06 49.83 47.23 49.84 46.78Z" id="dvfko0QMG"></path><path d="M49.84 46.79C49.86 45.09 71.64 2.5 72.42 2.63C72.76 2.69 78.21 12.68 84.52 24.83C85.29 26.3 89.11 33.66 96 46.91C90.64 57.39 87.67 63.21 87.07 64.37C82.16 73.98 76.82 84.26 75.21 87.22C75.01 87.58 74.03 89.38 72.27 92.62L61.05 70.33C53.57 55.1 49.83 47.25 49.84 46.79Z" id="bnHjcj4Ly"></path></defs><g><g><g><use xlink:href="#d6TdKnwjL" opacity="1" fill="#f6f6f6" fill-opacity="1"></use><g><use xlink:href="#d6TdKnwjL" opacity="1" fill-opacity="0" stroke="#000000" stroke-width="1" stroke-opacity="0"></use></g></g><g><use xlink:href="#a20yQG7Y5b" opacity="1" fill="#f6f6f6" fill-opacity="1"></use><g><use xlink:href="#a20yQG7Y5b" opacity="1" fill-opacity="0" stroke="#000000" stroke-width="1" stroke-opacity="0"></use></g></g><g><use xlink:href="#bhMm1YYM" opacity="1" fill="#f6f6f6" fill-opacity="1"></use><g><use xlink:href="#bhMm1YYM" opacity="1" fill-opacity="0" stroke="#000000" stroke-width="1" stroke-opacity="0"></use></g></g><g><use xlink:href="#a1PfIXjjq" opacity="1" fill="#f6f6f6" fill-opacity="1"></use><g><use xlink:href="#a1PfIXjjq" opacity="1" fill-opacity="0" stroke="#000000" stroke-width="1" stroke-opacity="0"></use></g></g><g><use xlink:href="#a58fwNDDX" opacity="1" fill="#f6f6f6" fill-opacity="1"></use><g><use xlink:href="#a58fwNDDX" opacity="1" fill-opacity="0" stroke="#000000" stroke-width="1" stroke-opacity="0"></use></g></g><g><use xlink:href="#aaAWmyrXXF" opacity="1" fill="#f6f6f6" fill-opacity="1"></use><g><use xlink:href="#aaAWmyrXXF" opacity="1" fill-opacity="0" stroke="#000000" stroke-width="1" stroke-opacity="0"></use></g></g><g><use xlink:href="#bnQPOJPPc" opacity="1" fill="#f6f6f6" fill-opacity="1"></use><g><use xlink:href="#bnQPOJPPc" opacity="1" fill-opacity="0" stroke="#000000" stroke-width="1" stroke-opacity="0"></use></g></g><g><use xlink:href="#b6k5P8Rxgc" opacity="1" fill="#f6f6f6" fill-opacity="1"></use><g><use xlink:href="#b6k5P8Rxgc" opacity="1" fill-opacity="0" stroke="#000000" stroke-width="1" stroke-opacity="0"></use></g></g><g><use xlink:href="#a18vkD8O7" opacity="1" fill="#e7aa0f" fill-opacity="1"></use><g><use xlink:href="#a18vkD8O7" opacity="1" fill-opacity="0" stroke="#000000" stroke-width="1" stroke-opacity="0"></use></g></g><g><use xlink:href="#mr4Ee9MsH" opacity="1" fill="#fe3b3b" fill-opacity="1"></use><g><use xlink:href="#mr4Ee9MsH" opacity="1" fill-opacity="0" stroke="#000000" stroke-width="1" stroke-opacity="0"></use></g></g><g><use xlink:href="#a5oLxYZnXr" opacity="1" fill="#fe3b3b" fill-opacity="1"></use><g><use xlink:href="#a5oLxYZnXr" opacity="1" fill-opacity="0" stroke="#000000" stroke-width="1" stroke-opacity="0"></use></g></g><g><use xlink:href="#aqM4Gnyrd" opacity="1" fill="#fe3b3b" fill-opacity="1"></use><g><use xlink:href="#aqM4Gnyrd" opacity="1" fill-opacity="0" stroke="#000000" stroke-width="1" stroke-opacity="0"></use></g></g><g><use xlink:href="#e3UCvmKMf2" opacity="1" fill="#fe3b3b" fill-opacity="1"></use><g><use xlink:href="#e3UCvmKMf2" opacity="1" fill-opacity="0" stroke="#000000" stroke-width="1" stroke-opacity="0"></use></g></g><g><use xlink:href="#aGTRCtLCZ" opacity="1" fill="#fe3b3b" fill-opacity="1"></use><g><use xlink:href="#aGTRCtLCZ" opacity="1" fill-opacity="0" stroke="#000000" stroke-width="1" stroke-opacity="0"></use></g></g><g><use xlink:href="#dvfko0QMG" opacity="1" fill="#fe3b3b" fill-opacity="1"></use><g><use xlink:href="#dvfko0QMG" opacity="1" fill-opacity="0" stroke="#000000" stroke-width="1" stroke-opacity="0"></use></g></g><g><use xlink:href="#bnHjcj4Ly" opacity="1" fill="#fe3b3b" fill-opacity="1"></use><g><use xlink:href="#bnHjcj4Ly" opacity="1" fill-opacity="0" stroke="#000000" stroke-width="1" stroke-opacity="0"></use></g></g></g></g></svg>