<?xml version="1.0" encoding="UTF-8" standalone="no"?>
<!DOCTYPE svg PUBLIC "-//W3C//DTD SVG 1.1//EN" "http://www.w3.org/Graphics/SVG/1.1/DTD/svg11.dtd">
<svg version="1.1" xmlns="http://www.w3.org/2000/svg" xmlns:xlink="http://www.w3.org/1999/xlink" preserveAspectRatio="xMidYMid meet" viewBox="0 0 640 640" width="640" height="640"><defs><path d="M475.71 565.23C464.81 529.95 458.76 510.35 457.55 506.43C460.24 508.77 613.33 640 613.33 640C613.33 582.6 613.33 123.4 613.33 66C611.52 30.32 580.8 0 542.72 0C498.01 0.01 140.31 0.07 95.6 0.08C57.55 0.08 26.67 30.45 26.67 66.13C26.67 109.44 26.67 455.89 26.67 499.2C26.67 536.83 57.49 565.23 95.47 565.23C95.47 565.23 222.21 565.23 475.71 565.23ZM376.75 151.55L375.87 151.87L376.19 151.55L376.75 151.55ZM267.44 151.52C267.81 151.88 270.73 154.76 271.09 155.12C211.28 169.39 184.16 196.11 184.16 196.11C186.93 195.52 307.71 125.84 454.05 197.87C454.05 197.87 426.88 172.88 370.75 156.88C371.24 156.39 375.21 152.49 375.71 152C383.47 152.03 424.53 153.47 468.48 185.6C468.48 185.6 517.65 269.6 517.65 372.8C516.03 370.83 487.15 417.23 412.83 418.83C412.83 418.83 400.24 404.59 391.28 392.16C434.75 379.68 451.01 354.72 451.01 354.72C366.4 408 292.24 399.68 203.52 363.68C202.69 363.68 202.32 363.31 201.89 362.88C201.89 362.86 201.89 362.74 201.89 362.72C201.47 362.32 201.09 361.92 200.27 361.92C200.11 361.92 198.83 361.92 198.67 361.92C193.23 358.35 189.6 356.59 189.6 356.59C189.6 356.59 205.84 381.55 247.57 394.03C236.61 406.53 225.76 420.75 225.76 420.75C151.47 418.99 124.37 372.59 124.37 372.59C124.37 269.23 173.25 185.39 173.25 185.39C222.13 149.81 248.6 158.29 267.44 151.52Z" id="gIUge3OR2"></path><path d="M415.95 304.83C415.95 285.23 400.59 269.23 381.55 269.23C381.55 269.23 381.55 269.3 381.55 269.31C362.67 269.31 347.2 285.25 347.15 304.99C347.15 324.56 362.59 340.56 381.55 340.56C400.51 340.56 415.95 324.56 415.95 304.83Z" id="b8uOapMTw"></path><path d="M292.8 304.83C292.8 285.23 277.47 269.23 258.51 269.23C258.5 269.23 258.41 269.3 258.4 269.31C239.44 269.31 224 285.25 224 304.99C224 324.56 239.44 340.56 258.4 340.56C277.36 340.56 292.8 324.56 292.8 304.83Z" id="a1cTTEGxKk"></path></defs><g><g><g><use xlink:href="#gIUge3OR2" opacity="1" fill="#f6f6f6" fill-opacity="1"></use><g><use xlink:href="#gIUge3OR2" opacity="1" fill-opacity="0" stroke="#000000" stroke-width="1" stroke-opacity="0"></use></g></g><g><use xlink:href="#b8uOapMTw" opacity="1" fill="#f6f6f6" fill-opacity="1"></use><g><use xlink:href="#b8uOapMTw" opacity="1" fill-opacity="0" stroke="#000000" stroke-width="1" stroke-opacity="0"></use></g></g><g><use xlink:href="#a1cTTEGxKk" opacity="1" fill="#f6f6f6" fill-opacity="1"></use><g><use xlink:href="#a1cTTEGxKk" opacity="1" fill-opacity="0" stroke="#000000" stroke-width="1" stroke-opacity="0"></use></g></g></g></g></svg>