<?xml version="1.0" encoding="UTF-8" standalone="no"?>
<!DOCTYPE svg PUBLIC "-//W3C//DTD SVG 1.1//EN" "http://www.w3.org/Graphics/SVG/1.1/DTD/svg11.dtd">
<svg version="1.1" xmlns="http://www.w3.org/2000/svg" xmlns:xlink="http://www.w3.org/1999/xlink" preserveAspectRatio="xMidYMid meet" viewBox="0 0 640 640" width="640" height="640"><defs><path d="M395.24 107.51C183.96 318.82 66.57 436.21 43.1 459.68C41.33 461.46 40.05 463.7 39.44 466.12C35.53 481.78 4.31 607.11 0.41 622.78C-0.76 627.5 0.62 632.51 4.07 635.95C6.67 638.56 10.22 640 13.85 640C14.96 640 16.1 639.86 17.2 639.58C32.87 635.68 158.2 604.45 173.87 600.55C176.31 599.94 178.53 598.66 180.3 596.89C203.78 573.42 321.17 456.03 532.48 244.75L395.24 107.51Z" id="cbk0X6qGo"></path><path d="M580.52 20.3C554.32 -5.9 508.66 -5.88 482.49 20.3C479.29 23.5 463.28 39.5 434.47 68.31L571.7 205.54C600.51 176.73 616.52 160.73 619.72 157.52C632.81 144.44 640.01 127.03 640.01 108.51C640.01 89.99 632.81 72.58 619.72 59.5C611.88 51.66 584.44 24.22 580.52 20.3Z" id="a1c5A5Ilvp"></path></defs><g><g><g><use xlink:href="#cbk0X6qGo" opacity="1" fill="#f6f6f6" fill-opacity="1"></use><g><use xlink:href="#cbk0X6qGo" opacity="1" fill-opacity="0" stroke="#000000" stroke-width="1" stroke-opacity="0"></use></g></g><g><use xlink:href="#a1c5A5Ilvp" opacity="1" fill="#f6f6f6" fill-opacity="1"></use><g><use xlink:href="#a1c5A5Ilvp" opacity="1" fill-opacity="0" stroke="#000000" stroke-width="1" stroke-opacity="0"></use></g></g></g></g></svg>