<?xml version="1.0" encoding="UTF-8" standalone="no"?>
<!DOCTYPE svg PUBLIC "-//W3C//DTD SVG 1.1//EN" "http://www.w3.org/Graphics/SVG/1.1/DTD/svg11.dtd">
<svg version="1.1" xmlns="http://www.w3.org/2000/svg" xmlns:xlink="http://www.w3.org/1999/xlink" preserveAspectRatio="xMidYMid meet" viewBox="0 0 640 640" width="640" height="640"><defs><path d="M176.61 0C79.23 0 0 79.23 0 176.62C0 205.29 0 434.71 0 463.38C0 560.77 79.23 640 176.61 640C205.29 640 434.7 640 463.38 640C560.77 640 640 560.77 640 463.38C640 434.71 640 205.29 640 176.62C640 79.23 560.77 0 463.38 0C406.03 0 205.29 0 176.61 0ZM463.38 583.22C434.71 583.22 205.29 583.22 176.61 583.22C110.54 583.22 56.78 529.46 56.78 463.38C56.78 434.71 56.78 205.29 56.78 176.62C56.78 110.54 110.54 56.78 176.61 56.78C205.29 56.78 434.7 56.78 463.38 56.78C529.46 56.78 583.22 110.54 583.22 176.62C583.22 195.73 583.22 291.32 583.22 463.38C547.38 543.27 507.43 583.22 463.38 583.22Z" id="b9BxrVmlA"></path><path d="M155.09 320.01C155.09 410.94 229.07 484.91 320 484.91C410.93 484.91 484.91 410.94 484.91 320.01C484.91 229.07 410.93 155.1 320 155.1C229.07 155.1 155.09 229.07 155.09 320.01ZM211.87 320C211.87 260.38 260.38 211.88 320 211.88C379.62 211.88 428.13 260.38 428.13 320C428.13 379.62 379.62 428.12 320 428.12C260.38 428.12 211.87 379.62 211.87 320Z" id="bKo93UqCS"></path><path d="M462.41 119.14C454.65 126.86 450.19 137.61 450.19 148.59C450.19 159.53 454.65 170.28 462.41 178.04C470.14 185.76 480.89 190.23 491.83 190.23C502.81 190.23 513.52 185.76 521.28 178.04C529.04 170.28 533.47 159.53 533.47 148.59C533.47 137.61 529.04 126.86 521.28 119.14C513.56 111.38 502.81 106.95 491.83 106.95C480.89 106.95 470.14 111.38 462.41 119.14Z" id="fF47O8UiI"></path></defs><g><g><g><use xlink:href="#b9BxrVmlA" opacity="1" fill="#f6f6f6" fill-opacity="1"></use><g><use xlink:href="#b9BxrVmlA" opacity="1" fill-opacity="0" stroke="#000000" stroke-width="1" stroke-opacity="0"></use></g></g><g><use xlink:href="#bKo93UqCS" opacity="1" fill="#f6f6f6" fill-opacity="1"></use><g><use xlink:href="#bKo93UqCS" opacity="1" fill-opacity="0" stroke="#000000" stroke-width="1" stroke-opacity="0"></use></g></g><g><use xlink:href="#fF47O8UiI" opacity="1" fill="#f6f6f6" fill-opacity="1"></use><g><use xlink:href="#fF47O8UiI" opacity="1" fill-opacity="0" stroke="#000000" stroke-width="1" stroke-opacity="0"></use></g></g></g></g></svg>