<?xml version="1.0" encoding="UTF-8" standalone="no"?>
<!DOCTYPE svg PUBLIC "-//W3C//DTD SVG 1.1//EN" "http://www.w3.org/Graphics/SVG/1.1/DTD/svg11.dtd">
<svg version="1.1" xmlns="http://www.w3.org/2000/svg" xmlns:xlink="http://www.w3.org/1999/xlink" preserveAspectRatio="xMidYMid meet" viewBox="0 0 640 640" width="640" height="640"><defs><path d="M332.39 368.56C346.01 382.18 454.97 491.15 468.59 504.77C478.77 514.6 494.98 514.32 504.81 504.14C514.4 494.22 514.4 478.48 504.81 468.56C491.19 454.93 382.22 345.97 368.6 332.35C438.38 242.52 422.13 113.14 332.31 43.36C242.48 -26.42 113.1 -10.17 43.32 79.65C-26.46 169.48 -10.21 298.86 79.61 368.64C115.78 396.73 160.27 411.97 206.06 411.95C251.83 411.95 296.28 396.68 332.39 368.56ZM315.51 96.58C375.95 157.02 375.96 255.02 315.51 315.47C255.07 375.91 157.07 375.91 96.62 315.47C96.62 315.47 96.62 315.47 96.62 315.47C36.18 255.46 35.82 157.82 95.83 97.38C96.09 97.11 96.36 96.85 96.62 96.58C157.07 36.14 255.06 36.14 315.51 96.58Z" id="e1teUsd6H"></path></defs><g><g><g><use xlink:href="#e1teUsd6H" opacity="1" fill="#f6f6f6" fill-opacity="1"></use><g><use xlink:href="#e1teUsd6H" opacity="1" fill-opacity="0" stroke="#000000" stroke-width="1" stroke-opacity="0"></use></g></g></g></g></svg>