<svg enable-background="new 0 0 512 512" version="1.1" viewBox="0 0 512 512" xml:space="preserve" xmlns="http://www.w3.org/2000/svg"><g>
<g fill="#312635">
	<g fill="#312635">
		<path d="m256 0c-141.16 0-256 114.84-256 256s114.84 256 256 256 256-114.84 256-256-114.84-256-256-256zm0 74.667c67.635 0 122.67 55.031 122.67 122.67s-55.032 122.67-122.67 122.67-122.67-55.031-122.67-122.67 55.032-122.67 122.67-122.67zm0 394.67c-69.707 0-131.52-33.755-170.47-85.615 42.676-20.534 103.62-42.385 170.47-42.385 66.857 0 127.81 21.854 170.47 42.383-38.953 51.861-100.77 85.617-170.47 85.617z" fill="#312635"/>
	</g>
</g>















<path d="m240.89 469.05c-53.877-4.0429-103.32-27.836-140.82-67.768-5.2367-5.5759-14.958-17.292-14.609-17.607 0.51982-0.46914 7.1198-3.5673 14.389-6.7544 45.422-19.916 88.203-31.241 131.42-34.79 11.027-0.90565 35.946-1.0345 46.626-0.24114 38.981 2.8957 76.672 11.859 116.83 27.784 14.543 5.7666 31.667 13.399 31.667 14.114 0 1.4157-14.503 18.087-21.967 25.251-36.697 35.222-81.818 55.722-131.69 59.828-5.8145 0.47877-26.338 0.59709-31.848 0.18361z" fill="#f6f6f6" stroke-width=".5"/><path d="m243.02 319.45c-33.2-3.7232-62.48-19.883-83.268-45.958-14.111-17.699-23.081-39.429-25.832-62.578-0.70962-5.97-0.8159-19.344-0.2009-25.279 3.861-37.257 23.419-69.841 54.301-90.467 15.166-10.129 32.019-16.611 50.336-19.36 7.4045-1.1114 20.063-1.5037 27.705-0.85864 24.549 2.0719 47.474 11.239 66.939 26.766 5.3199 4.2438 14.527 13.503 18.861 18.967 14.429 18.192 22.998 38.534 26.096 61.948 0.77605 5.8664 0.87947 22.174 0.17713 27.931-3.0648 25.119-12.357 46.788-28.164 65.679-20.644 24.67-50.615 40.387-82.731 43.383-5.2451 0.4893-19.203 0.38981-24.218-0.17262z" fill="#f6f6f6" stroke-width=".35355"/></g></svg>
