<?xml version="1.0" encoding="UTF-8" standalone="no"?>
<!DOCTYPE svg PUBLIC "-//W3C//DTD SVG 1.1//EN" "http://www.w3.org/Graphics/SVG/1.1/DTD/svg11.dtd">
<svg version="1.1" xmlns="http://www.w3.org/2000/svg" xmlns:xlink="http://www.w3.org/1999/xlink" preserveAspectRatio="xMidYMid meet" viewBox="0 0 640 640" width="640" height="640"><defs><path d="M327.93 490C286.51 490 252.93 523.58 252.93 565C252.93 606.42 286.51 640 327.93 640C369.35 640 402.93 606.42 402.93 565C402.93 523.58 369.35 490 327.93 490Z" id="a1BRvW1ZUk"></path><path d="M132.93 195C132.93 196.25 132.93 202.5 132.93 213.75L282.93 213.75C282.93 202.5 282.93 196.25 282.93 195C282.93 170.19 303.11 150 327.93 150C352.74 150 372.93 170.19 372.93 195C372.93 208.22 367.12 220.74 357 229.34C350.06 235.24 315.37 264.73 252.93 317.82L252.93 452.5L402.93 452.5L402.93 387.18C433.66 361.05 450.73 346.53 454.15 343.63C497.86 306.49 522.93 252.32 522.93 195C522.93 87.48 435.45 0 327.93 0C220.4 0 132.93 87.48 132.93 195Z" id="b2YOMf2QnR"></path></defs><g><g><g><use xlink:href="#a1BRvW1ZUk" opacity="1" fill="#f6f6f6" fill-opacity="1"></use><g><use xlink:href="#a1BRvW1ZUk" opacity="1" fill-opacity="0" stroke="#000000" stroke-width="1" stroke-opacity="0"></use></g></g><g><use xlink:href="#b2YOMf2QnR" opacity="1" fill="#f6f6f6" fill-opacity="1"></use><g><use xlink:href="#b2YOMf2QnR" opacity="1" fill-opacity="0" stroke="#000000" stroke-width="1" stroke-opacity="0"></use></g></g></g></g></svg>