<svg id="svg" version="1.1" xmlns="http://www.w3.org/2000/svg" xmlns:xlink="http://www.w3.org/1999/xlink" width="400" height="400" viewBox="0, 0, 400,400"><g id="svgg"><path id="path0" d="M194.700 0.264 C 194.095 0.368,193.600 0.621,193.600 0.827 C 193.600 1.032,193.325 1.200,192.989 1.200 C 192.196 1.200,188.800 4.596,188.800 5.389 C 188.800 5.725,188.620 6.000,188.400 6.000 C 188.180 6.000,188.000 6.360,188.000 6.800 C 188.000 7.240,187.820 7.600,187.600 7.600 C 187.380 7.600,187.200 7.960,187.200 8.400 C 187.200 8.840,187.054 9.200,186.875 9.200 C 186.497 9.200,185.347 11.990,185.510 12.509 C 185.570 12.702,185.435 12.745,185.210 12.606 C 184.847 12.382,184.603 13.213,184.763 14.130 C 184.794 14.311,184.635 14.345,184.410 14.206 C 184.184 14.067,184.000 14.233,184.000 14.576 C 184.000 14.919,183.820 15.200,183.600 15.200 C 183.380 15.200,183.200 15.560,183.200 16.000 C 183.200 16.440,183.020 16.800,182.800 16.800 C 182.580 16.800,182.400 17.160,182.400 17.600 C 182.400 18.040,182.200 18.400,181.956 18.400 C 181.687 18.400,181.575 18.934,181.671 19.755 C 181.793 20.806,181.701 21.060,181.255 20.889 C 180.822 20.723,180.730 20.921,180.878 21.698 C 181.022 22.447,180.929 22.671,180.538 22.521 C 180.192 22.388,180.000 22.616,180.000 23.157 C 180.000 23.621,179.837 24.000,179.637 24.000 C 179.438 24.000,179.369 24.360,179.484 24.800 C 179.630 25.356,179.496 25.600,179.047 25.600 C 178.691 25.600,178.400 25.852,178.400 26.159 C 178.400 26.467,177.952 27.502,177.405 28.459 C 176.857 29.417,176.407 30.616,176.405 31.124 C 176.402 31.632,176.223 31.938,176.006 31.804 C 175.764 31.654,175.701 32.007,175.845 32.723 C 176.014 33.569,175.903 33.951,175.438 34.130 C 175.087 34.265,174.800 34.651,174.800 34.987 C 174.800 35.324,174.620 35.600,174.400 35.600 C 174.180 35.600,174.000 35.960,174.000 36.400 C 174.000 36.840,173.820 37.200,173.600 37.200 C 173.380 37.200,173.200 37.560,173.200 38.000 C 173.200 38.440,173.020 38.800,172.800 38.800 C 172.580 38.800,172.400 39.160,172.400 39.600 C 172.400 40.040,172.220 40.400,172.000 40.400 C 171.780 40.400,171.600 40.760,171.600 41.200 C 171.600 41.640,171.420 42.000,171.200 42.000 C 170.980 42.000,170.800 42.345,170.800 42.767 C 170.800 43.188,170.626 43.593,170.413 43.667 C 170.200 43.740,169.982 44.373,169.930 45.072 C 169.877 45.772,169.691 46.256,169.517 46.149 C 169.343 46.041,169.200 46.334,169.200 46.800 C 169.200 47.266,169.020 47.536,168.800 47.400 C 168.580 47.264,168.400 47.523,168.400 47.976 C 168.400 48.429,168.220 48.800,168.000 48.800 C 167.780 48.800,167.600 49.160,167.600 49.600 C 167.600 50.040,167.420 50.400,167.200 50.400 C 166.980 50.400,166.800 50.760,166.800 51.200 C 166.800 51.640,166.620 52.000,166.400 52.000 C 166.180 52.000,166.000 52.349,166.000 52.776 C 166.000 53.203,165.820 53.664,165.600 53.800 C 165.380 53.936,165.204 54.352,165.209 54.724 C 165.214 55.107,165.498 54.832,165.865 54.089 C 166.220 53.368,166.577 52.843,166.657 52.924 C 166.974 53.240,165.513 55.593,165.142 55.364 C 164.924 55.230,164.647 55.498,164.526 55.960 C 164.406 56.422,164.148 56.800,163.953 56.800 C 163.759 56.800,163.600 57.340,163.600 58.000 C 163.600 58.660,163.426 59.200,163.213 59.200 C 162.999 59.200,162.928 59.468,163.054 59.797 C 163.185 60.137,163.008 60.499,162.644 60.639 C 162.292 60.773,162.112 61.057,162.242 61.269 C 162.373 61.480,162.214 61.866,161.889 62.127 C 161.564 62.387,160.976 63.500,160.583 64.600 C 160.190 65.700,159.732 66.757,159.565 66.949 C 159.399 67.141,159.358 67.546,159.474 67.849 C 159.599 68.174,159.426 68.400,159.053 68.400 C 158.563 68.400,158.474 68.671,158.660 69.600 C 158.848 70.539,158.759 70.800,158.250 70.800 C 157.867 70.800,157.600 71.128,157.600 71.600 C 157.600 72.040,157.420 72.400,157.200 72.400 C 156.980 72.400,156.800 72.760,156.800 73.200 C 156.800 73.640,156.599 74.000,156.353 74.000 C 156.095 74.000,155.986 74.413,156.094 74.980 C 156.197 75.519,156.118 75.924,155.918 75.880 C 155.475 75.782,153.600 78.980,153.600 79.834 C 153.600 80.171,153.420 80.336,153.200 80.200 C 152.980 80.064,152.800 80.323,152.800 80.776 C 152.800 81.229,152.600 81.600,152.356 81.600 C 152.084 81.600,151.976 82.146,152.077 83.013 C 152.193 84.003,152.098 84.370,151.759 84.240 C 151.452 84.122,151.314 84.395,151.379 84.992 C 151.455 85.684,151.325 85.869,150.882 85.699 C 150.418 85.521,150.326 85.702,150.478 86.498 C 150.631 87.296,150.539 87.475,150.072 87.296 C 149.699 87.153,149.572 87.231,149.738 87.500 C 149.886 87.739,149.736 88.207,149.404 88.539 C 149.072 88.871,148.800 89.426,148.800 89.771 C 148.800 90.117,148.620 90.400,148.400 90.400 C 148.180 90.400,148.000 90.760,148.000 91.200 C 148.000 91.640,147.799 92.000,147.553 92.000 C 147.304 92.000,147.199 92.353,147.316 92.800 C 147.440 93.273,147.328 93.600,147.043 93.600 C 146.778 93.600,146.328 94.275,146.045 95.100 C 145.761 95.925,144.917 97.897,144.170 99.483 C 143.423 101.068,142.918 102.643,143.049 102.983 C 143.204 103.388,143.055 103.600,142.616 103.600 C 142.128 103.600,142.015 103.817,142.200 104.400 C 142.380 104.968,142.272 105.200,141.827 105.200 C 141.473 105.200,141.200 105.538,141.200 105.976 C 141.200 106.403,141.020 106.864,140.800 107.000 C 140.580 107.136,140.400 107.777,140.400 108.424 C 140.400 109.071,140.253 109.600,140.074 109.600 C 139.658 109.600,138.000 112.687,138.000 113.461 C 138.000 113.800,137.806 113.928,137.542 113.764 C 137.228 113.570,137.145 113.802,137.280 114.504 C 137.430 115.292,137.338 115.474,136.878 115.298 C 136.418 115.121,136.327 115.305,136.478 116.098 C 136.630 116.891,136.538 117.075,136.078 116.898 C 135.618 116.721,135.527 116.905,135.678 117.698 C 135.831 118.496,135.739 118.675,135.272 118.496 C 134.899 118.353,134.772 118.431,134.938 118.700 C 135.086 118.939,134.936 119.407,134.604 119.739 C 134.272 120.071,134.000 120.791,134.000 121.338 C 134.000 121.885,133.775 122.424,133.500 122.535 C 133.119 122.689,133.125 122.744,133.529 122.768 C 135.267 122.872,132.611 124.000,130.629 124.000 C 129.403 124.000,128.400 124.180,128.400 124.400 C 128.400 124.626,127.252 124.800,125.757 124.800 C 123.487 124.800,123.149 124.891,123.363 125.447 C 123.579 126.012,123.280 126.073,121.005 125.928 C 119.572 125.837,118.400 125.882,118.400 126.030 C 118.400 126.177,116.241 126.426,113.602 126.584 C 110.963 126.741,108.702 127.034,108.578 127.235 C 108.454 127.436,107.204 127.600,105.800 127.600 C 104.396 127.600,103.136 127.780,103.000 128.000 C 102.864 128.220,101.876 128.400,100.805 128.400 C 99.559 128.400,98.628 128.629,98.222 129.035 C 97.747 129.510,96.982 129.636,95.193 129.535 C 93.876 129.461,92.754 129.525,92.699 129.678 C 92.645 129.830,91.558 129.996,90.284 130.047 C 88.824 130.104,88.029 130.298,88.134 130.569 C 88.245 130.858,87.457 130.956,85.750 130.866 C 84.348 130.792,83.200 130.899,83.200 131.103 C 83.200 131.307,81.985 131.513,80.500 131.560 C 79.015 131.607,77.629 131.816,77.420 132.023 C 77.211 132.230,76.131 132.428,75.020 132.463 L 73.000 132.526 75.000 132.800 L 77.000 133.074 75.180 133.137 C 74.179 133.172,73.144 132.984,72.880 132.720 C 72.507 132.347,72.400 132.347,72.400 132.720 C 72.400 133.048,71.511 133.200,69.600 133.200 C 68.000 133.200,66.800 133.371,66.800 133.600 C 66.800 133.820,65.821 134.000,64.624 134.000 C 63.427 134.000,62.336 134.180,62.200 134.400 C 62.064 134.620,60.894 134.800,59.600 134.800 C 58.306 134.800,57.136 134.980,57.000 135.200 C 56.864 135.420,55.698 135.600,54.410 135.600 C 53.121 135.600,52.007 135.770,51.933 135.978 C 51.860 136.186,50.585 136.394,49.100 136.441 C 47.615 136.488,46.400 136.678,46.400 136.863 C 46.400 137.048,45.410 137.200,44.200 137.200 C 42.990 137.200,42.000 137.380,42.000 137.600 C 42.000 137.825,40.875 138.000,39.424 138.000 C 38.007 138.000,36.736 138.180,36.600 138.400 C 36.464 138.620,35.283 138.800,33.976 138.800 C 32.659 138.800,31.600 138.978,31.600 139.200 C 31.600 139.426,30.459 139.600,28.976 139.600 C 27.329 139.600,26.445 139.749,26.600 140.000 C 26.756 140.253,25.737 140.400,23.824 140.400 C 22.075 140.400,20.800 140.569,20.800 140.800 C 20.800 141.020,19.799 141.200,18.576 141.200 C 17.311 141.200,16.452 141.360,16.582 141.571 C 16.935 142.141,15.424 142.468,12.964 142.354 C 11.537 142.288,10.630 142.427,10.435 142.743 C 10.260 143.027,9.483 143.190,8.595 143.130 C 7.662 143.068,6.994 143.218,6.896 143.513 C 6.806 143.781,6.320 144.000,5.816 144.000 C 4.849 144.000,3.822 144.889,4.270 145.337 C 4.415 145.482,4.223 145.600,3.843 145.600 C 3.463 145.600,3.264 145.780,3.400 146.000 C 3.536 146.220,3.361 146.400,3.011 146.400 C 2.661 146.400,2.272 146.669,2.146 146.998 C 2.019 147.326,1.755 147.496,1.558 147.374 C 1.361 147.252,1.200 147.508,1.200 147.943 C 1.200 148.378,0.975 148.808,0.700 148.900 C -0.098 149.165,0.065 162.000,0.867 162.000 C 1.050 162.000,1.200 162.273,1.200 162.608 C 1.200 163.292,15.417 177.600,16.096 177.600 C 16.337 177.600,16.422 177.711,16.286 177.848 C 15.976 178.158,16.985 179.200,17.595 179.200 C 17.844 179.200,17.956 179.347,17.845 179.527 C 17.734 179.707,17.993 180.107,18.421 180.415 C 18.850 180.724,19.200 181.316,19.200 181.731 C 19.200 182.226,19.400 182.409,19.780 182.263 C 20.188 182.107,20.286 182.233,20.110 182.690 C 19.926 183.170,20.030 183.274,20.510 183.090 C 20.990 182.906,21.094 183.010,20.910 183.490 C 20.722 183.981,20.829 184.075,21.351 183.874 C 21.756 183.719,21.942 183.770,21.801 183.998 C 21.523 184.447,24.199 187.268,24.560 186.907 C 24.692 186.775,24.800 186.871,24.800 187.122 C 24.800 187.677,28.770 191.600,29.332 191.600 C 29.553 191.600,29.627 191.706,29.497 191.836 C 29.154 192.179,32.004 194.845,32.431 194.581 C 32.629 194.458,32.672 194.669,32.526 195.049 C 32.318 195.590,32.415 195.680,32.975 195.465 C 33.522 195.255,33.631 195.342,33.440 195.840 C 33.264 196.299,33.362 196.423,33.775 196.265 C 34.188 196.107,34.286 196.231,34.110 196.690 C 33.926 197.170,34.030 197.274,34.510 197.090 C 34.990 196.906,35.094 197.010,34.910 197.490 C 34.726 197.970,34.830 198.074,35.310 197.890 C 35.769 197.714,35.893 197.812,35.735 198.225 C 35.577 198.638,35.701 198.736,36.160 198.560 C 36.640 198.376,36.744 198.480,36.560 198.960 C 36.376 199.440,36.480 199.544,36.960 199.360 C 37.440 199.176,37.544 199.280,37.360 199.760 C 37.169 200.257,37.278 200.345,37.821 200.137 C 38.300 199.953,38.439 200.013,38.248 200.322 C 37.952 200.802,40.599 203.668,40.983 203.284 C 41.102 203.164,41.200 203.262,41.200 203.501 C 41.200 204.068,45.932 208.800,46.499 208.800 C 46.738 208.800,46.836 208.898,46.716 209.017 C 46.332 209.401,49.198 212.048,49.678 211.752 C 49.987 211.561,50.047 211.700,49.863 212.179 C 49.671 212.681,49.750 212.828,50.133 212.681 C 50.530 212.529,50.622 212.749,50.478 213.502 C 50.315 214.356,50.401 214.485,50.985 214.261 C 51.522 214.055,51.630 214.145,51.440 214.640 C 51.264 215.099,51.362 215.223,51.775 215.065 C 52.169 214.914,52.286 215.031,52.135 215.425 C 51.977 215.838,52.101 215.936,52.560 215.760 C 53.040 215.576,53.144 215.680,52.960 216.160 C 52.776 216.640,52.880 216.744,53.360 216.560 C 53.858 216.369,53.945 216.478,53.735 217.025 C 53.523 217.577,53.612 217.681,54.126 217.484 C 54.537 217.326,54.754 217.414,54.695 217.714 C 54.643 217.981,54.819 218.157,55.086 218.105 C 55.386 218.046,55.474 218.263,55.316 218.674 C 55.125 219.173,55.225 219.276,55.718 219.087 C 56.079 218.948,56.498 219.035,56.649 219.279 C 56.815 219.548,56.741 219.611,56.462 219.438 C 56.208 219.281,56.000 219.262,56.000 219.395 C 56.000 219.653,56.556 220.211,60.072 223.479 C 61.302 224.623,62.209 225.658,62.087 225.779 C 61.966 225.901,62.177 226.000,62.557 226.000 C 62.982 226.000,63.136 226.180,62.958 226.468 C 62.765 226.780,62.884 226.853,63.314 226.688 C 63.790 226.506,63.894 226.611,63.710 227.090 C 63.526 227.570,63.630 227.674,64.110 227.490 C 64.590 227.306,64.694 227.410,64.510 227.890 C 64.324 228.374,64.430 228.474,64.926 228.284 C 65.337 228.126,65.554 228.214,65.495 228.514 C 65.443 228.781,65.619 228.957,65.886 228.905 C 66.186 228.846,66.274 229.063,66.116 229.474 C 65.919 229.988,66.023 230.077,66.575 229.865 C 67.122 229.655,67.231 229.742,67.040 230.240 C 66.864 230.699,66.962 230.823,67.375 230.665 C 67.769 230.514,67.886 230.631,67.735 231.025 C 67.571 231.453,67.701 231.536,68.225 231.335 C 68.791 231.118,68.882 231.209,68.665 231.775 C 68.464 232.299,68.547 232.429,68.975 232.265 C 69.369 232.114,69.486 232.231,69.335 232.625 C 69.177 233.038,69.301 233.136,69.760 232.960 C 70.258 232.769,70.345 232.878,70.135 233.425 C 69.923 233.977,70.012 234.081,70.526 233.884 C 70.937 233.726,71.154 233.814,71.095 234.114 C 71.043 234.381,71.219 234.557,71.486 234.505 C 71.786 234.446,71.874 234.663,71.716 235.074 C 71.526 235.570,71.626 235.676,72.110 235.490 C 72.590 235.306,72.694 235.410,72.510 235.890 C 72.326 236.370,72.430 236.474,72.910 236.290 C 73.389 236.106,73.494 236.210,73.312 236.686 C 73.147 237.116,73.220 237.235,73.532 237.042 C 73.820 236.864,74.000 237.018,74.000 237.443 C 74.000 237.823,74.099 238.034,74.221 237.913 C 74.342 237.791,75.377 238.698,76.521 239.928 C 79.789 243.444,80.347 244.000,80.605 244.000 C 80.738 244.000,80.719 243.792,80.562 243.538 C 80.389 243.259,80.452 243.185,80.721 243.351 C 80.965 243.502,81.052 243.921,80.913 244.282 C 80.731 244.757,80.830 244.874,81.268 244.706 C 81.740 244.525,81.831 244.702,81.678 245.502 C 81.520 246.331,81.609 246.482,82.136 246.280 C 82.529 246.129,82.752 246.216,82.695 246.496 C 82.643 246.753,82.780 246.975,83.000 246.988 C 83.788 247.036,84.451 247.691,84.248 248.220 C 84.126 248.538,84.245 248.681,84.540 248.568 C 84.814 248.463,85.480 248.861,86.019 249.453 C 86.559 250.045,86.777 250.401,86.505 250.244 C 86.167 250.049,86.088 250.163,86.256 250.602 C 86.392 250.956,86.741 251.155,87.031 251.043 C 87.386 250.907,87.477 251.054,87.310 251.490 C 87.126 251.970,87.230 252.074,87.710 251.890 C 88.190 251.706,88.294 251.810,88.110 252.290 C 87.926 252.770,88.030 252.874,88.510 252.690 C 88.969 252.514,89.093 252.612,88.935 253.025 C 88.777 253.438,88.901 253.536,89.360 253.360 C 89.858 253.169,89.945 253.278,89.735 253.825 C 89.520 254.385,89.610 254.482,90.151 254.274 C 90.545 254.123,90.741 254.172,90.608 254.387 C 90.480 254.595,90.830 255.063,91.387 255.428 C 92.601 256.223,92.942 260.000,91.800 260.000 C 91.339 260.000,91.200 260.511,91.200 262.200 C 91.200 263.410,91.020 264.400,90.800 264.400 C 90.578 264.400,90.400 265.467,90.400 266.800 C 90.400 268.133,90.222 269.200,90.000 269.200 C 89.778 269.200,89.600 270.267,89.600 271.600 C 89.600 272.920,89.436 274.000,89.236 274.000 C 89.035 274.000,88.765 275.080,88.636 276.400 C 88.506 277.720,88.294 279.881,88.164 281.202 C 88.035 282.522,87.765 283.502,87.564 283.378 C 87.361 283.252,87.200 284.211,87.200 285.553 C 87.200 286.873,87.020 288.064,86.800 288.200 C 86.580 288.336,86.400 289.427,86.400 290.624 C 86.400 291.821,86.220 292.800,86.000 292.800 C 85.774 292.800,85.600 293.933,85.600 295.400 C 85.600 297.003,85.434 298.000,85.166 298.000 C 84.885 298.000,84.779 298.901,84.866 300.550 C 84.967 302.468,84.876 303.052,84.500 302.907 C 84.134 302.766,84.000 303.367,84.000 305.157 C 84.000 306.501,83.836 307.600,83.636 307.600 C 83.435 307.600,83.169 308.635,83.044 309.900 C 82.459 315.808,82.300 316.800,81.935 316.800 C 81.712 316.800,81.585 317.911,81.639 319.400 C 81.691 320.830,81.585 322.135,81.403 322.300 C 81.221 322.465,81.201 322.375,81.359 322.100 C 81.518 321.825,81.457 321.600,81.224 321.600 C 80.973 321.600,80.800 322.578,80.800 324.000 C 80.800 325.333,80.622 326.400,80.400 326.400 C 80.171 326.400,80.000 327.600,80.000 329.200 C 80.000 330.740,79.860 332.000,79.689 332.000 C 79.519 332.000,79.448 332.722,79.532 333.604 C 79.716 335.536,79.324 337.324,78.788 336.993 C 78.556 336.849,78.400 337.612,78.400 338.896 C 78.400 340.075,78.237 341.211,78.037 341.420 C 77.837 341.629,77.571 342.700,77.445 343.800 C 76.497 352.073,76.091 355.428,76.017 355.600 C 75.970 355.710,75.960 356.749,75.995 357.910 C 76.042 359.473,75.922 359.991,75.529 359.910 C 75.149 359.831,74.966 360.448,74.880 362.100 C 74.814 363.365,74.589 364.400,74.380 364.400 C 74.171 364.400,74.000 365.660,74.000 367.200 C 74.000 368.800,73.829 370.000,73.600 370.000 C 73.379 370.000,73.200 371.040,73.200 372.320 C 73.200 373.596,73.001 374.839,72.759 375.081 C 72.512 375.328,72.380 376.400,72.459 377.511 C 72.563 378.981,72.470 379.449,72.100 379.307 C 71.728 379.164,71.598 379.869,71.594 382.057 C 71.590 384.105,71.470 384.817,71.200 384.400 C 70.931 383.984,70.810 384.751,70.806 386.900 C 70.803 388.704,70.967 390.000,71.200 390.000 C 71.420 390.000,71.600 390.540,71.600 391.200 C 71.600 391.860,71.780 392.400,72.000 392.400 C 72.220 392.400,72.400 392.760,72.400 393.200 C 72.400 393.640,72.580 394.000,72.800 394.000 C 73.020 394.000,73.200 394.276,73.200 394.613 C 73.200 395.319,75.751 398.000,76.423 398.000 C 76.670 398.000,77.190 398.392,77.578 398.872 C 78.323 399.792,88.043 400.640,87.484 399.736 C 87.355 399.528,87.853 399.437,88.628 399.527 C 89.462 399.625,90.000 399.514,90.000 399.244 C 90.000 399.000,90.360 398.800,90.800 398.800 C 91.240 398.800,91.600 398.664,91.600 398.498 C 91.600 398.331,92.185 397.946,92.900 397.641 C 93.615 397.336,94.560 396.797,95.000 396.443 C 96.204 395.475,97.517 394.800,98.195 394.800 C 98.528 394.800,98.800 394.620,98.800 394.400 C 98.800 394.180,99.171 394.000,99.624 394.000 C 100.077 394.000,100.336 393.820,100.200 393.600 C 100.064 393.380,100.336 393.200,100.805 393.200 C 101.725 393.200,102.800 392.339,102.800 391.602 C 102.800 391.326,103.120 391.248,103.610 391.403 C 104.166 391.580,104.386 391.494,104.310 391.130 C 104.250 390.839,104.470 390.583,104.800 390.562 C 105.130 390.542,105.940 390.311,106.600 390.051 C 107.260 389.790,108.036 389.493,108.325 389.391 C 108.614 389.289,108.736 389.020,108.596 388.793 C 108.455 388.566,108.579 388.430,108.870 388.490 C 109.162 388.551,109.348 388.354,109.284 388.053 C 109.199 387.648,109.446 387.575,110.235 387.773 C 111.122 387.996,111.258 387.928,111.045 387.372 C 110.841 386.842,110.966 386.750,111.646 386.928 C 112.137 387.056,112.753 386.904,113.085 386.573 C 113.404 386.254,113.830 386.095,114.032 386.220 C 114.235 386.345,114.400 386.257,114.400 386.024 C 114.400 385.791,114.694 385.600,115.053 385.600 C 115.412 385.600,115.997 385.281,116.353 384.891 C 116.709 384.501,118.260 383.557,119.800 382.793 C 121.340 382.029,122.660 381.268,122.733 381.102 C 122.807 380.936,123.172 380.800,123.545 380.800 C 123.918 380.800,124.483 380.440,124.800 380.000 C 125.117 379.560,125.697 379.200,126.088 379.200 C 126.480 379.200,126.800 379.020,126.800 378.800 C 126.800 378.580,127.160 378.400,127.600 378.400 C 128.040 378.400,128.400 378.220,128.400 378.000 C 128.400 377.780,128.760 377.600,129.200 377.600 C 129.640 377.600,130.000 377.420,130.000 377.200 C 130.000 376.980,130.242 376.800,130.538 376.800 C 130.834 376.800,131.402 376.440,131.800 376.000 C 132.198 375.560,132.772 375.200,133.075 375.200 C 133.377 375.200,133.731 374.925,133.860 374.588 C 134.008 374.203,134.373 374.064,134.845 374.214 C 135.411 374.394,135.536 374.298,135.353 373.822 C 135.182 373.377,135.287 373.259,135.709 373.420 C 136.445 373.703,139.200 372.598,139.200 372.020 C 139.200 371.789,139.541 371.600,139.957 371.600 C 140.374 371.600,140.825 371.311,140.961 370.958 C 141.101 370.592,141.463 370.415,141.803 370.546 C 142.132 370.672,142.400 370.601,142.400 370.387 C 142.400 370.174,142.760 370.000,143.200 370.000 C 143.640 370.000,144.000 369.809,144.000 369.576 C 144.000 369.343,143.792 369.281,143.538 369.438 C 143.274 369.602,143.184 369.549,143.329 369.315 C 143.467 369.091,144.065 369.000,144.656 369.113 C 145.520 369.278,145.683 369.193,145.486 368.680 C 145.310 368.222,145.414 368.107,145.850 368.275 C 146.278 368.439,146.421 368.295,146.330 367.796 C 146.259 367.404,146.470 367.006,146.800 366.911 C 147.333 366.758,147.333 366.786,146.800 367.163 C 146.303 367.515,146.355 367.589,147.100 367.594 C 147.595 367.597,148.000 367.420,148.000 367.200 C 148.000 366.980,148.360 366.800,148.800 366.800 C 149.240 366.800,149.600 366.620,149.600 366.400 C 149.600 366.180,149.960 366.000,150.400 366.000 C 150.840 366.000,151.200 365.820,151.200 365.600 C 151.200 365.380,151.571 365.200,152.024 365.200 C 152.477 365.200,152.736 365.020,152.600 364.800 C 152.464 364.580,152.740 364.400,153.214 364.400 C 153.705 364.400,154.155 364.092,154.262 363.683 C 154.365 363.289,154.841 362.937,155.319 362.901 C 155.797 362.865,156.251 362.648,156.327 362.418 C 156.404 362.188,156.812 362.000,157.233 362.000 C 157.655 362.000,158.000 361.820,158.000 361.600 C 158.000 361.380,158.360 361.200,158.800 361.200 C 159.240 361.200,159.600 361.020,159.600 360.800 C 159.600 360.580,159.920 360.400,160.312 360.400 C 160.703 360.400,161.283 360.040,161.600 359.600 C 161.917 359.160,162.497 358.800,162.888 358.800 C 163.280 358.800,163.600 358.518,163.600 358.173 C 163.600 357.728,163.832 357.620,164.400 357.800 C 164.948 357.974,165.200 357.872,165.200 357.477 C 165.200 357.123,165.600 356.900,166.234 356.900 C 166.803 356.900,167.748 356.558,168.334 356.141 C 168.920 355.723,170.300 354.936,171.400 354.391 C 172.500 353.846,173.460 353.265,173.533 353.100 C 173.607 352.935,173.972 352.800,174.345 352.800 C 174.718 352.800,175.283 352.440,175.600 352.000 C 175.917 351.560,176.420 351.200,176.717 351.200 C 177.014 351.200,177.529 350.928,177.861 350.596 C 178.193 350.264,178.630 350.095,178.832 350.220 C 179.035 350.345,179.200 350.257,179.200 350.024 C 179.200 349.791,179.579 349.600,180.043 349.600 C 180.584 349.600,180.812 349.408,180.679 349.062 C 180.531 348.677,180.747 348.577,181.442 348.710 C 182.179 348.851,182.357 348.752,182.183 348.299 C 182.006 347.839,182.189 347.747,182.977 347.898 C 183.765 348.048,184.000 347.929,184.000 347.380 C 184.000 346.988,184.109 346.776,184.243 346.909 C 184.376 347.043,184.860 346.803,185.318 346.376 C 185.776 345.949,186.443 345.600,186.800 345.600 C 187.157 345.600,187.798 345.275,188.225 344.878 C 189.059 344.100,189.283 344.000,190.187 344.000 C 190.547 344.000,190.685 343.766,190.543 343.395 C 190.370 342.945,190.493 342.861,191.025 343.065 C 191.564 343.272,191.680 343.186,191.499 342.715 C 191.321 342.250,191.456 342.142,192.025 342.291 C 192.502 342.415,192.885 342.243,193.043 341.833 C 193.215 341.385,193.553 341.258,194.108 341.434 C 194.761 341.642,194.869 341.556,194.656 341.002 C 194.435 340.427,194.559 340.353,195.395 340.563 C 195.976 340.709,196.400 340.643,196.400 340.408 C 196.400 340.183,196.738 340.000,197.151 340.000 C 197.564 340.000,198.126 339.730,198.400 339.400 C 198.674 339.070,199.394 338.800,200.000 338.800 C 200.606 338.800,201.326 339.070,201.600 339.400 C 201.874 339.730,202.436 340.000,202.849 340.000 C 203.262 340.000,203.600 340.183,203.600 340.408 C 203.600 340.643,204.024 340.709,204.605 340.563 C 205.441 340.353,205.565 340.427,205.344 341.002 C 205.131 341.556,205.239 341.642,205.892 341.434 C 206.447 341.258,206.785 341.385,206.957 341.833 C 207.115 342.243,207.498 342.415,207.975 342.291 C 208.544 342.142,208.679 342.250,208.501 342.715 C 208.324 343.175,208.437 343.271,208.931 343.082 C 209.369 342.914,209.600 343.028,209.600 343.413 C 209.600 343.915,210.163 344.217,210.509 343.900 C 210.570 343.845,211.053 344.205,211.585 344.700 C 212.116 345.195,212.843 345.600,213.200 345.600 C 213.557 345.600,214.203 345.930,214.635 346.332 C 215.068 346.735,215.829 347.035,216.328 346.998 C 216.920 346.954,217.167 347.110,217.038 347.445 C 216.908 347.785,217.060 347.875,217.490 347.710 C 217.988 347.519,218.075 347.628,217.864 348.178 C 217.636 348.771,217.757 348.863,218.558 348.710 C 219.253 348.577,219.469 348.677,219.321 349.062 C 219.188 349.408,219.416 349.600,219.957 349.600 C 220.421 349.600,220.800 349.791,220.800 350.024 C 220.800 350.257,220.965 350.345,221.168 350.220 C 221.370 350.095,221.807 350.264,222.139 350.596 C 222.471 350.928,222.986 351.200,223.283 351.200 C 223.580 351.200,224.083 351.560,224.400 352.000 C 224.717 352.440,225.297 352.800,225.688 352.800 C 226.080 352.800,226.400 353.001,226.400 353.247 C 226.400 353.496,226.753 353.601,227.201 353.484 C 227.641 353.369,227.907 353.427,227.791 353.614 C 227.676 353.801,228.261 354.270,229.091 354.656 C 229.921 355.042,231.080 355.705,231.666 356.129 C 232.252 356.553,233.197 356.900,233.766 356.900 C 234.400 356.900,234.800 357.123,234.800 357.477 C 234.800 357.872,235.052 357.974,235.600 357.800 C 236.168 357.620,236.400 357.728,236.400 358.173 C 236.400 358.518,236.720 358.800,237.112 358.800 C 237.503 358.800,238.083 359.160,238.400 359.600 C 238.717 360.040,239.297 360.400,239.688 360.400 C 240.080 360.400,240.400 360.580,240.400 360.800 C 240.400 361.020,240.760 361.200,241.200 361.200 C 241.640 361.200,242.000 361.380,242.000 361.600 C 242.000 361.820,242.345 362.000,242.767 362.000 C 243.188 362.000,243.596 362.188,243.673 362.418 C 243.749 362.648,244.214 362.866,244.706 362.903 C 245.198 362.940,245.600 363.083,245.600 363.221 C 245.600 363.359,246.060 363.681,246.623 363.937 C 247.185 364.194,247.534 364.583,247.399 364.802 C 247.264 365.021,247.523 365.200,247.976 365.200 C 248.429 365.200,248.800 365.380,248.800 365.600 C 248.800 365.820,249.160 366.000,249.600 366.000 C 250.040 366.000,250.400 366.180,250.400 366.400 C 250.400 366.620,250.760 366.800,251.200 366.800 C 251.640 366.800,252.000 366.980,252.000 367.200 C 252.000 367.420,252.405 367.597,252.900 367.594 C 253.645 367.589,253.697 367.515,253.200 367.163 C 252.667 366.786,252.667 366.758,253.200 366.911 C 253.530 367.006,253.741 367.404,253.670 367.796 C 253.579 368.295,253.722 368.439,254.150 368.275 C 254.586 368.107,254.690 368.222,254.514 368.680 C 254.317 369.193,254.480 369.278,255.344 369.113 C 255.935 369.000,256.533 369.091,256.671 369.315 C 256.816 369.549,256.726 369.602,256.462 369.438 C 256.208 369.281,256.000 369.343,256.000 369.576 C 256.000 369.809,256.360 370.000,256.800 370.000 C 257.240 370.000,257.600 370.174,257.600 370.387 C 257.600 370.601,257.868 370.672,258.197 370.546 C 258.537 370.415,258.899 370.592,259.039 370.958 C 259.175 371.311,259.626 371.600,260.043 371.600 C 260.459 371.600,260.800 371.789,260.800 372.020 C 260.800 372.598,263.555 373.703,264.291 373.420 C 264.713 373.259,264.818 373.377,264.647 373.822 C 264.464 374.298,264.589 374.394,265.155 374.214 C 265.627 374.064,265.992 374.203,266.140 374.588 C 266.269 374.925,266.623 375.200,266.925 375.200 C 267.228 375.200,267.802 375.560,268.200 376.000 C 268.598 376.440,269.166 376.800,269.462 376.800 C 269.758 376.800,270.000 376.980,270.000 377.200 C 270.000 377.420,270.360 377.600,270.800 377.600 C 271.240 377.600,271.600 377.780,271.600 378.000 C 271.600 378.220,271.960 378.400,272.400 378.400 C 272.840 378.400,273.200 378.580,273.200 378.800 C 273.200 379.020,273.520 379.200,273.912 379.200 C 274.303 379.200,274.883 379.560,275.200 380.000 C 275.517 380.440,276.082 380.800,276.455 380.800 C 276.828 380.800,277.193 380.936,277.267 381.102 C 277.340 381.268,278.660 382.029,280.200 382.793 C 281.740 383.557,283.291 384.501,283.647 384.891 C 284.003 385.281,284.588 385.600,284.947 385.600 C 285.306 385.600,285.600 385.791,285.600 386.024 C 285.600 386.257,285.765 386.345,285.968 386.220 C 286.170 386.095,286.596 386.254,286.915 386.573 C 287.247 386.904,287.863 387.056,288.354 386.928 C 289.034 386.750,289.159 386.842,288.955 387.372 C 288.742 387.928,288.878 387.996,289.765 387.773 C 290.554 387.575,290.801 387.648,290.716 388.053 C 290.652 388.354,290.838 388.551,291.130 388.490 C 291.421 388.430,291.545 388.565,291.406 388.791 C 291.266 389.017,291.658 389.387,292.276 389.613 C 292.894 389.839,293.670 390.136,294.000 390.273 C 294.330 390.410,294.870 390.540,295.200 390.561 C 295.530 390.583,295.750 390.839,295.690 391.130 C 295.614 391.494,295.834 391.580,296.390 391.403 C 296.880 391.248,297.200 391.326,297.200 391.602 C 297.200 392.339,298.275 393.200,299.195 393.200 C 299.664 393.200,299.936 393.380,299.800 393.600 C 299.664 393.820,299.923 394.000,300.376 394.000 C 300.829 394.000,301.200 394.180,301.200 394.400 C 301.200 394.620,301.472 394.800,301.805 394.800 C 302.483 394.800,303.796 395.475,305.000 396.443 C 305.440 396.797,306.385 397.336,307.100 397.641 C 307.815 397.946,308.400 398.331,308.400 398.498 C 308.400 398.664,308.760 398.800,309.200 398.800 C 309.640 398.800,310.000 399.000,310.000 399.244 C 310.000 399.514,310.538 399.625,311.372 399.527 C 312.147 399.437,312.645 399.528,312.516 399.736 C 311.957 400.640,321.677 399.792,322.422 398.872 C 322.810 398.392,323.330 398.000,323.577 398.000 C 324.249 398.000,326.800 395.319,326.800 394.613 C 326.800 394.276,326.980 394.000,327.200 394.000 C 327.420 394.000,327.600 393.640,327.600 393.200 C 327.600 392.760,327.780 392.400,328.000 392.400 C 328.220 392.400,328.400 391.860,328.400 391.200 C 328.400 390.540,328.580 390.000,328.800 390.000 C 329.033 390.000,329.197 388.704,329.194 386.900 C 329.190 384.751,329.069 383.984,328.800 384.400 C 328.530 384.817,328.410 384.105,328.406 382.057 C 328.402 379.869,328.272 379.164,327.900 379.307 C 327.530 379.449,327.437 378.981,327.541 377.511 C 327.620 376.400,327.488 375.328,327.241 375.081 C 326.999 374.839,326.800 373.596,326.800 372.320 C 326.800 371.040,326.621 370.000,326.400 370.000 C 326.171 370.000,326.000 368.800,326.000 367.200 C 326.000 365.660,325.829 364.400,325.620 364.400 C 325.411 364.400,325.186 363.365,325.120 362.100 C 325.034 360.448,324.851 359.831,324.471 359.910 C 324.078 359.991,323.958 359.473,324.005 357.910 C 324.040 356.749,324.030 355.710,323.983 355.600 C 323.909 355.428,323.503 352.073,322.555 343.800 C 322.429 342.700,322.163 341.629,321.963 341.420 C 321.763 341.211,321.600 340.075,321.600 338.896 C 321.600 337.612,321.444 336.849,321.212 336.993 C 320.676 337.324,320.284 335.536,320.468 333.604 C 320.552 332.722,320.481 332.000,320.311 332.000 C 320.140 332.000,320.000 330.740,320.000 329.200 C 320.000 327.600,319.829 326.400,319.600 326.400 C 319.378 326.400,319.200 325.333,319.200 324.000 C 319.200 322.578,319.027 321.600,318.776 321.600 C 318.543 321.600,318.482 321.825,318.641 322.100 C 318.799 322.375,318.779 322.465,318.597 322.300 C 318.415 322.135,318.309 320.830,318.361 319.400 C 318.415 317.911,318.288 316.800,318.065 316.800 C 317.700 316.800,317.541 315.808,316.956 309.900 C 316.831 308.635,316.565 307.600,316.364 307.600 C 316.164 307.600,316.000 306.501,316.000 305.157 C 316.000 303.367,315.866 302.766,315.500 302.907 C 315.124 303.052,315.033 302.468,315.134 300.550 C 315.221 298.901,315.115 298.000,314.834 298.000 C 314.566 298.000,314.400 297.003,314.400 295.400 C 314.400 293.933,314.226 292.800,314.000 292.800 C 313.780 292.800,313.600 291.821,313.600 290.624 C 313.600 289.427,313.420 288.336,313.200 288.200 C 312.980 288.064,312.800 286.873,312.800 285.553 C 312.800 284.211,312.639 283.252,312.436 283.378 C 312.235 283.502,311.963 282.477,311.831 281.102 C 311.221 274.760,311.106 274.000,310.764 274.000 C 310.564 274.000,310.400 272.920,310.400 271.600 C 310.400 270.267,310.222 269.200,310.000 269.200 C 309.778 269.200,309.600 268.133,309.600 266.800 C 309.600 265.467,309.422 264.400,309.200 264.400 C 308.980 264.400,308.800 263.410,308.800 262.200 C 308.800 260.511,308.661 260.000,308.200 260.000 C 307.058 260.000,307.399 256.223,308.613 255.428 C 309.170 255.063,309.520 254.595,309.392 254.387 C 309.259 254.172,309.455 254.123,309.849 254.274 C 310.390 254.482,310.480 254.385,310.265 253.825 C 310.055 253.278,310.142 253.169,310.640 253.360 C 311.099 253.536,311.223 253.438,311.065 253.025 C 310.907 252.612,311.031 252.514,311.490 252.690 C 311.970 252.874,312.074 252.770,311.890 252.290 C 311.706 251.810,311.810 251.706,312.290 251.890 C 312.770 252.074,312.874 251.970,312.690 251.490 C 312.523 251.054,312.614 250.907,312.969 251.043 C 313.259 251.155,313.608 250.956,313.744 250.602 C 313.914 250.160,313.836 250.052,313.495 250.256 C 313.145 250.467,313.154 250.363,313.529 249.901 C 313.829 249.531,314.336 249.354,314.699 249.493 C 315.187 249.681,315.274 249.569,315.065 249.025 C 314.864 248.501,314.947 248.371,315.375 248.535 C 315.752 248.680,315.886 248.568,315.752 248.220 C 315.549 247.691,316.212 247.036,317.000 246.988 C 317.220 246.975,317.357 246.753,317.305 246.496 C 317.247 246.213,317.472 246.129,317.874 246.284 C 318.370 246.474,318.476 246.374,318.290 245.890 C 318.107 245.413,318.210 245.306,318.680 245.486 C 319.193 245.683,319.278 245.520,319.113 244.656 C 319.000 244.065,319.091 243.467,319.315 243.329 C 319.549 243.184,319.602 243.274,319.438 243.538 C 319.281 243.792,319.262 244.000,319.395 244.000 C 319.653 244.000,320.211 243.444,323.479 239.928 C 324.623 238.698,325.658 237.791,325.779 237.913 C 325.901 238.034,326.000 237.823,326.000 237.443 C 326.000 237.018,326.180 236.864,326.468 237.042 C 326.780 237.235,326.853 237.116,326.688 236.686 C 326.506 236.210,326.611 236.106,327.090 236.290 C 327.570 236.474,327.674 236.370,327.490 235.890 C 327.306 235.410,327.410 235.306,327.890 235.490 C 328.374 235.676,328.474 235.570,328.284 235.074 C 328.126 234.663,328.214 234.446,328.514 234.505 C 328.781 234.557,328.957 234.381,328.905 234.114 C 328.846 233.814,329.063 233.726,329.474 233.884 C 329.988 234.081,330.077 233.977,329.865 233.425 C 329.655 232.878,329.742 232.769,330.240 232.960 C 330.699 233.136,330.823 233.038,330.665 232.625 C 330.514 232.231,330.631 232.114,331.025 232.265 C 331.453 232.429,331.536 232.299,331.335 231.775 C 331.118 231.209,331.209 231.118,331.775 231.335 C 332.299 231.536,332.429 231.453,332.265 231.025 C 332.114 230.631,332.231 230.514,332.625 230.665 C 333.038 230.823,333.136 230.699,332.960 230.240 C 332.769 229.742,332.878 229.655,333.425 229.865 C 333.977 230.077,334.081 229.988,333.884 229.474 C 333.726 229.063,333.814 228.846,334.114 228.905 C 334.381 228.957,334.557 228.781,334.505 228.514 C 334.446 228.214,334.663 228.126,335.074 228.284 C 335.570 228.474,335.676 228.374,335.490 227.890 C 335.306 227.410,335.410 227.306,335.890 227.490 C 336.370 227.674,336.474 227.570,336.290 227.090 C 336.106 226.611,336.210 226.506,336.686 226.688 C 337.116 226.853,337.235 226.780,337.042 226.468 C 336.864 226.180,337.018 226.000,337.443 226.000 C 337.823 226.000,338.034 225.901,337.913 225.779 C 337.791 225.658,338.698 224.623,339.928 223.479 C 343.444 220.211,344.000 219.653,344.000 219.395 C 344.000 219.262,343.792 219.281,343.538 219.438 C 343.259 219.611,343.185 219.548,343.351 219.279 C 343.502 219.035,343.921 218.948,344.282 219.087 C 344.775 219.276,344.875 219.173,344.684 218.674 C 344.526 218.263,344.614 218.046,344.914 218.105 C 345.181 218.157,345.357 217.981,345.305 217.714 C 345.246 217.414,345.463 217.326,345.874 217.484 C 346.388 217.681,346.477 217.577,346.265 217.025 C 346.055 216.478,346.142 216.369,346.640 216.560 C 347.120 216.744,347.224 216.640,347.040 216.160 C 346.856 215.680,346.960 215.576,347.440 215.760 C 347.899 215.936,348.023 215.838,347.865 215.425 C 347.714 215.031,347.831 214.914,348.225 215.065 C 348.638 215.223,348.736 215.099,348.560 214.640 C 348.369 214.142,348.478 214.055,349.025 214.265 C 349.572 214.475,349.681 214.387,349.490 213.890 C 349.307 213.413,349.410 213.306,349.880 213.486 C 350.391 213.682,350.478 213.521,350.317 212.678 C 350.206 212.098,350.265 211.717,350.448 211.830 C 350.840 212.072,353.601 209.334,353.284 209.017 C 353.164 208.898,353.262 208.800,353.501 208.800 C 354.068 208.800,358.800 204.068,358.800 203.501 C 358.800 203.262,358.898 203.164,359.017 203.284 C 359.401 203.668,362.048 200.802,361.752 200.322 C 361.561 200.013,361.700 199.953,362.179 200.137 C 362.722 200.345,362.831 200.257,362.640 199.760 C 362.456 199.280,362.560 199.176,363.040 199.360 C 363.520 199.544,363.624 199.440,363.440 198.960 C 363.256 198.480,363.360 198.376,363.840 198.560 C 364.299 198.736,364.423 198.638,364.265 198.225 C 364.107 197.812,364.231 197.714,364.690 197.890 C 365.170 198.074,365.274 197.970,365.090 197.490 C 364.906 197.010,365.010 196.906,365.490 197.090 C 365.970 197.274,366.074 197.170,365.890 196.690 C 365.714 196.231,365.812 196.107,366.225 196.265 C 366.638 196.423,366.736 196.299,366.560 195.840 C 366.369 195.342,366.478 195.255,367.025 195.465 C 367.585 195.680,367.682 195.590,367.474 195.049 C 367.328 194.669,367.371 194.458,367.569 194.581 C 367.996 194.845,370.846 192.179,370.503 191.836 C 370.373 191.706,370.447 191.600,370.668 191.600 C 371.230 191.600,375.200 187.677,375.200 187.122 C 375.200 186.871,375.308 186.775,375.440 186.907 C 375.801 187.268,378.477 184.447,378.199 183.998 C 378.058 183.770,378.244 183.719,378.649 183.874 C 379.171 184.075,379.278 183.981,379.090 183.490 C 378.906 183.010,379.010 182.906,379.490 183.090 C 379.970 183.274,380.074 183.170,379.890 182.690 C 379.706 182.210,379.810 182.106,380.290 182.290 C 380.770 182.474,380.874 182.370,380.690 181.890 C 380.514 181.433,380.612 181.307,381.020 181.463 C 381.414 181.614,381.600 181.414,381.600 180.843 C 381.600 180.379,381.791 180.000,382.024 180.000 C 382.257 180.000,382.336 179.820,382.200 179.600 C 382.064 179.380,382.156 179.200,382.405 179.200 C 383.015 179.200,384.024 178.158,383.714 177.848 C 383.578 177.711,383.663 177.600,383.904 177.600 C 384.583 177.600,398.800 163.292,398.800 162.608 C 398.800 162.273,398.950 162.000,399.133 162.000 C 399.935 162.000,400.098 149.165,399.300 148.900 C 399.025 148.808,398.800 148.378,398.800 147.943 C 398.800 147.508,398.639 147.252,398.442 147.374 C 398.245 147.496,397.981 147.326,397.854 146.998 C 397.728 146.669,397.339 146.400,396.989 146.400 C 396.639 146.400,396.464 146.220,396.600 146.000 C 396.736 145.780,396.537 145.600,396.157 145.600 C 395.777 145.600,395.585 145.482,395.730 145.337 C 396.178 144.889,395.151 144.000,394.184 144.000 C 393.680 144.000,393.194 143.781,393.104 143.513 C 393.006 143.218,392.338 143.068,391.405 143.130 C 390.517 143.190,389.740 143.027,389.565 142.743 C 389.370 142.427,388.463 142.288,387.036 142.354 C 384.576 142.468,383.065 142.141,383.418 141.571 C 383.548 141.360,382.689 141.200,381.424 141.200 C 380.201 141.200,379.200 141.020,379.200 140.800 C 379.200 140.569,377.925 140.400,376.176 140.400 C 374.263 140.400,373.244 140.253,373.400 140.000 C 373.553 139.752,372.804 139.600,371.424 139.600 C 370.201 139.600,369.200 139.420,369.200 139.200 C 369.200 138.972,368.008 138.800,366.424 138.800 C 364.897 138.800,363.536 138.620,363.400 138.400 C 363.264 138.180,362.173 138.000,360.976 138.000 C 359.779 138.000,358.800 137.820,358.800 137.600 C 358.800 137.374,357.667 137.200,356.200 137.200 C 354.770 137.200,353.600 137.036,353.600 136.835 C 353.600 136.633,352.428 136.498,350.995 136.535 C 349.055 136.583,348.439 136.472,348.583 136.100 C 348.725 135.730,348.058 135.600,346.011 135.600 C 344.491 135.600,343.136 135.420,343.000 135.200 C 342.864 134.980,341.874 134.800,340.800 134.800 C 339.726 134.800,338.736 134.620,338.600 134.400 C 338.464 134.180,337.193 134.000,335.776 134.000 C 334.325 134.000,333.200 133.825,333.200 133.600 C 333.200 133.371,332.000 133.200,330.400 133.200 C 328.489 133.200,327.600 133.048,327.600 132.720 C 327.600 132.347,327.493 132.347,327.120 132.720 C 326.856 132.984,325.821 133.172,324.820 133.137 L 323.000 133.074 325.000 132.800 L 327.000 132.526 324.980 132.463 C 323.869 132.428,322.789 132.230,322.580 132.023 C 322.371 131.816,320.985 131.607,319.500 131.560 C 318.015 131.513,316.800 131.322,316.800 131.137 C 316.800 130.952,315.799 130.800,314.576 130.800 C 313.353 130.800,312.447 130.648,312.561 130.463 C 312.676 130.277,311.562 130.087,310.085 130.040 C 308.608 129.994,307.355 129.831,307.300 129.678 C 307.245 129.525,306.273 129.464,305.140 129.543 C 303.559 129.652,302.996 129.536,302.720 129.043 C 302.449 128.559,301.740 128.400,299.860 128.400 C 298.485 128.400,297.162 128.202,296.921 127.961 C 296.670 127.710,295.535 127.581,294.273 127.661 C 292.947 127.744,292.092 127.640,292.133 127.400 C 292.172 127.167,290.159 126.856,287.300 126.656 C 284.605 126.466,282.400 126.193,282.400 126.048 C 282.400 125.903,281.048 125.853,279.396 125.936 C 276.762 126.069,276.422 126.008,276.638 125.444 C 276.850 124.892,276.508 124.800,274.243 124.800 C 272.748 124.800,271.600 124.626,271.600 124.400 C 271.600 124.178,270.533 124.000,269.200 124.000 C 266.755 124.000,266.461 123.747,266.753 121.900 C 266.779 121.735,266.620 121.600,266.400 121.600 C 266.180 121.600,266.000 121.317,266.000 120.971 C 266.000 120.626,265.728 120.071,265.396 119.739 C 265.064 119.407,264.914 118.939,265.062 118.700 C 265.228 118.431,265.101 118.353,264.728 118.496 C 264.261 118.675,264.169 118.496,264.322 117.698 C 264.473 116.905,264.382 116.721,263.922 116.898 C 263.462 117.075,263.370 116.891,263.522 116.098 C 263.673 115.305,263.582 115.121,263.122 115.298 C 262.662 115.474,262.570 115.292,262.720 114.504 C 262.855 113.802,262.772 113.570,262.458 113.764 C 262.195 113.927,262.000 113.802,262.000 113.469 C 262.000 112.573,260.956 110.777,260.627 111.106 C 260.466 111.268,260.370 111.220,260.414 111.000 C 260.674 109.711,260.357 108.331,259.845 108.527 C 259.464 108.673,259.350 108.513,259.480 108.015 C 259.584 107.617,259.474 107.169,259.235 107.022 C 258.996 106.874,258.800 106.403,258.800 105.976 C 258.800 105.538,258.527 105.200,258.173 105.200 C 257.728 105.200,257.620 104.968,257.800 104.400 C 257.985 103.817,257.872 103.600,257.384 103.600 C 256.945 103.600,256.796 103.388,256.951 102.983 C 257.082 102.643,256.577 101.068,255.830 99.483 C 255.083 97.897,254.239 95.925,253.955 95.100 C 253.672 94.275,253.222 93.600,252.957 93.600 C 252.672 93.600,252.560 93.273,252.684 92.800 C 252.801 92.353,252.696 92.000,252.447 92.000 C 252.201 92.000,252.000 91.640,252.000 91.200 C 252.000 90.760,251.820 90.400,251.600 90.400 C 251.380 90.400,251.200 90.117,251.200 89.771 C 251.200 89.426,250.928 88.871,250.596 88.539 C 250.264 88.207,250.114 87.739,250.262 87.500 C 250.428 87.231,250.301 87.153,249.928 87.296 C 249.461 87.475,249.369 87.296,249.522 86.498 C 249.674 85.702,249.582 85.521,249.118 85.699 C 248.675 85.869,248.545 85.684,248.621 84.992 C 248.686 84.395,248.548 84.122,248.241 84.240 C 247.902 84.370,247.807 84.003,247.923 83.013 C 248.024 82.146,247.916 81.600,247.644 81.600 C 247.400 81.600,247.200 81.229,247.200 80.776 C 247.200 80.323,247.020 80.064,246.800 80.200 C 246.580 80.336,246.400 80.171,246.400 79.834 C 246.400 78.980,244.525 75.782,244.082 75.880 C 243.882 75.924,243.803 75.519,243.906 74.980 C 244.014 74.413,243.905 74.000,243.647 74.000 C 243.401 74.000,243.200 73.640,243.200 73.200 C 243.200 72.760,243.020 72.400,242.800 72.400 C 242.580 72.400,242.400 71.860,242.400 71.200 C 242.400 70.377,242.203 70.000,241.773 70.000 C 241.328 70.000,241.220 69.768,241.400 69.200 C 241.585 68.617,241.472 68.400,240.984 68.400 C 240.579 68.400,240.398 68.182,240.526 67.849 C 240.642 67.546,240.601 67.141,240.435 66.949 C 240.268 66.757,239.810 65.700,239.417 64.600 C 239.024 63.500,238.436 62.387,238.111 62.127 C 237.786 61.866,237.627 61.480,237.758 61.269 C 237.888 61.057,237.708 60.773,237.356 60.639 C 236.992 60.499,236.815 60.137,236.946 59.797 C 237.072 59.468,237.001 59.200,236.787 59.200 C 236.574 59.200,236.400 58.660,236.400 58.000 C 236.400 57.340,236.241 56.800,236.047 56.800 C 235.852 56.800,235.594 56.422,235.474 55.960 C 235.353 55.498,235.076 55.230,234.858 55.364 C 234.487 55.593,233.026 53.240,233.343 52.924 C 233.423 52.843,233.780 53.368,234.135 54.089 C 234.502 54.832,234.786 55.107,234.791 54.724 C 234.796 54.352,234.620 53.936,234.400 53.800 C 234.180 53.664,234.000 53.203,234.000 52.776 C 234.000 52.349,233.820 52.000,233.600 52.000 C 233.380 52.000,233.200 51.640,233.200 51.200 C 233.200 50.760,233.020 50.400,232.800 50.400 C 232.580 50.400,232.400 50.040,232.400 49.600 C 232.400 49.160,232.220 48.800,232.000 48.800 C 231.780 48.800,231.600 48.429,231.600 47.976 C 231.600 47.523,231.420 47.264,231.200 47.400 C 230.980 47.536,230.800 47.266,230.800 46.800 C 230.800 46.334,230.657 46.041,230.483 46.149 C 230.309 46.256,230.123 45.772,230.070 45.072 C 230.018 44.373,229.800 43.740,229.587 43.667 C 229.374 43.593,229.200 43.188,229.200 42.767 C 229.200 42.345,229.020 42.000,228.800 42.000 C 228.580 42.000,228.400 41.640,228.400 41.200 C 228.400 40.760,228.220 40.400,228.000 40.400 C 227.780 40.400,227.600 40.040,227.600 39.600 C 227.600 39.160,227.420 38.800,227.200 38.800 C 226.980 38.800,226.800 38.440,226.800 38.000 C 226.800 37.560,226.620 37.200,226.400 37.200 C 226.180 37.200,226.000 36.840,226.000 36.400 C 226.000 35.960,225.820 35.600,225.600 35.600 C 225.380 35.600,225.200 35.324,225.200 34.987 C 225.200 34.651,224.913 34.265,224.562 34.130 C 224.097 33.951,223.986 33.569,224.155 32.723 C 224.299 32.007,224.236 31.654,223.994 31.804 C 223.777 31.938,223.600 31.683,223.600 31.237 C 223.600 30.342,222.373 27.477,221.900 27.267 C 221.735 27.193,221.600 26.788,221.600 26.367 C 221.600 25.927,221.324 25.600,220.953 25.600 C 220.504 25.600,220.370 25.356,220.516 24.800 C 220.631 24.360,220.562 24.000,220.363 24.000 C 220.163 24.000,220.000 23.621,220.000 23.157 C 220.000 22.616,219.808 22.388,219.462 22.521 C 219.071 22.671,218.978 22.447,219.122 21.698 C 219.270 20.921,219.178 20.723,218.745 20.889 C 218.299 21.060,218.207 20.806,218.329 19.755 C 218.425 18.934,218.313 18.400,218.044 18.400 C 217.800 18.400,217.600 18.040,217.600 17.600 C 217.600 17.160,217.420 16.800,217.200 16.800 C 216.980 16.800,216.800 16.440,216.800 16.000 C 216.800 15.560,216.620 15.200,216.400 15.200 C 216.180 15.200,216.000 14.919,216.000 14.576 C 216.000 14.233,215.816 14.067,215.590 14.206 C 215.365 14.345,215.206 14.311,215.237 14.130 C 215.397 13.213,215.153 12.382,214.790 12.606 C 214.565 12.745,214.430 12.702,214.490 12.509 C 214.653 11.990,213.503 9.200,213.125 9.200 C 212.946 9.200,212.800 8.840,212.800 8.400 C 212.800 7.960,212.620 7.600,212.400 7.600 C 212.180 7.600,212.000 7.240,212.000 6.800 C 212.000 6.360,211.820 6.000,211.600 6.000 C 211.380 6.000,211.200 5.725,211.200 5.389 C 211.200 4.614,207.813 1.200,207.044 1.200 C 206.726 1.200,206.394 0.983,206.306 0.717 C 206.141 0.222,197.020 -0.134,194.700 0.264 M83.209 314.699 C 83.023 316.926,83.013 316.944,82.883 315.254 C 82.766 313.719,82.952 312.401,83.287 312.399 C 83.349 312.399,83.314 313.434,83.209 314.699 M317.118 315.044 L 316.987 317.000 316.794 314.719 C 316.687 313.464,316.746 312.584,316.924 312.763 C 317.103 312.942,317.190 313.969,317.118 315.044 " stroke="none" fill="#f4f4f4" fill-rule="evenodd"></path><path id="path1" d="M175.135 32.910 C 175.015 33.933,175.110 34.256,175.486 34.112 C 176.073 33.886,176.152 32.859,175.643 32.056 C 175.402 31.676,175.248 31.935,175.135 32.910 M224.243 32.233 C 223.860 33.230,223.957 33.898,224.514 34.112 C 224.888 34.255,224.986 33.939,224.871 32.955 C 224.693 31.435,224.593 31.320,224.243 32.233 M166.252 53.408 C 166.117 53.762,165.869 53.966,165.703 53.864 C 165.536 53.761,165.400 54.109,165.400 54.638 C 165.400 55.167,165.432 55.600,165.471 55.600 C 165.661 55.600,166.783 53.050,166.651 52.918 C 166.567 52.834,166.388 53.055,166.252 53.408 M233.212 52.839 C 233.200 53.082,234.401 55.600,234.529 55.600 C 234.568 55.600,234.600 55.167,234.600 54.638 C 234.600 54.109,234.476 53.753,234.325 53.847 C 234.173 53.940,233.864 53.698,233.637 53.308 C 233.410 52.919,233.219 52.707,233.212 52.839 M159.600 66.000 C 159.600 66.440,159.420 66.800,159.200 66.800 C 158.980 66.800,158.800 67.160,158.800 67.600 C 158.800 68.040,158.999 68.400,159.243 68.400 C 159.486 68.400,159.584 68.136,159.460 67.813 C 159.336 67.490,159.385 67.133,159.569 67.019 C 160.059 66.716,160.387 65.200,159.963 65.200 C 159.763 65.200,159.600 65.560,159.600 66.000 M239.886 66.006 C 240.002 66.450,240.247 66.905,240.431 67.019 C 240.615 67.133,240.664 67.490,240.540 67.813 C 240.416 68.136,240.514 68.400,240.757 68.400 C 241.001 68.400,241.200 68.040,241.200 67.600 C 241.200 67.160,241.020 66.800,240.800 66.800 C 240.580 66.800,240.400 66.440,240.400 66.000 C 240.400 65.560,240.237 65.200,240.037 65.200 C 239.838 65.200,239.770 65.563,239.886 66.006 M142.406 102.700 C 142.403 103.195,142.580 103.600,142.800 103.600 C 143.301 103.600,143.301 103.176,142.800 102.400 C 142.486 101.915,142.411 101.972,142.406 102.700 M257.079 102.557 C 256.915 102.974,256.875 103.409,256.991 103.524 C 257.355 103.889,257.676 103.291,257.524 102.531 C 257.383 101.835,257.362 101.836,257.079 102.557 M118.800 125.600 C 119.609 126.123,123.723 126.123,123.400 125.600 C 123.264 125.380,122.038 125.203,120.676 125.206 C 118.930 125.210,118.377 125.327,118.800 125.600 M276.600 125.600 C 276.276 126.124,281.189 126.124,282.000 125.600 C 282.418 125.330,281.728 125.210,279.724 125.206 C 278.142 125.203,276.736 125.380,276.600 125.600 M112.800 126.300 C 112.800 126.465,113.745 126.548,114.900 126.484 C 118.421 126.291,118.754 126.112,115.700 126.054 C 114.105 126.025,112.800 126.135,112.800 126.300 M282.800 126.227 C 284.163 126.532,287.200 126.584,287.200 126.303 C 287.200 126.136,286.075 126.021,284.700 126.046 C 283.325 126.072,282.470 126.153,282.800 126.227 M94.300 129.489 C 95.015 129.578,96.185 129.578,96.900 129.489 C 97.615 129.401,97.030 129.328,95.600 129.328 C 94.170 129.328,93.585 129.401,94.300 129.489 M303.700 129.487 C 304.305 129.578,305.295 129.578,305.900 129.487 C 306.505 129.395,306.010 129.320,304.800 129.320 C 303.590 129.320,303.095 129.395,303.700 129.487 M73.165 132.926 C 73.344 133.105,74.281 133.191,75.246 133.118 L 77.000 132.985 74.919 132.793 C 73.775 132.687,72.985 132.747,73.165 132.926 M325.000 132.800 L 323.000 133.074 324.876 133.137 C 325.908 133.172,326.864 133.020,327.000 132.800 C 327.136 132.580,327.192 132.428,327.124 132.463 C 327.056 132.497,326.100 132.649,325.000 132.800 M13.600 141.521 C 12.170 141.588,10.829 141.813,10.620 142.021 C 10.411 142.230,9.676 142.400,8.987 142.400 C 8.224 142.400,7.733 142.604,7.733 142.921 C 7.733 143.536,10.045 143.330,10.466 142.677 C 10.612 142.450,11.872 142.298,13.266 142.340 C 14.660 142.381,16.044 142.255,16.343 142.058 C 17.157 141.521,16.475 141.387,13.600 141.521 M383.355 141.671 C 383.062 142.148,384.744 142.461,387.036 142.354 C 388.266 142.297,389.381 142.439,389.530 142.670 C 389.953 143.328,392.267 143.540,392.267 142.921 C 392.267 142.604,391.776 142.400,391.013 142.400 C 390.324 142.400,389.589 142.235,389.380 142.032 C 388.930 141.597,383.597 141.278,383.355 141.671 M9.600 171.767 C 9.600 172.188,10.805 173.328,11.021 173.112 C 11.122 173.011,10.844 172.602,10.402 172.202 C 9.961 171.803,9.600 171.607,9.600 171.767 M389.402 172.398 C 389.003 172.839,388.807 173.200,388.967 173.200 C 389.388 173.200,390.528 171.995,390.312 171.779 C 390.211 171.678,389.802 171.956,389.402 172.398 M26.000 189.029 C 26.000 189.298,26.690 189.970,27.802 190.785 C 28.241 191.106,28.071 190.791,27.425 190.085 C 26.240 188.789,26.000 188.611,26.000 189.029 M372.571 190.089 C 371.927 190.793,371.759 191.106,372.198 190.785 C 373.453 189.866,374.111 189.178,373.918 188.985 C 373.821 188.888,373.215 189.385,372.571 190.089 M42.400 205.343 C 42.400 205.756,44.412 207.722,44.620 207.513 C 44.714 207.419,44.254 206.826,43.596 206.196 C 42.938 205.566,42.400 205.182,42.400 205.343 M356.196 206.404 C 355.566 207.062,355.182 207.600,355.343 207.600 C 355.756 207.600,357.722 205.588,357.513 205.380 C 357.419 205.286,356.826 205.746,356.196 206.404 M59.800 223.600 C 60.659 224.480,61.452 225.200,61.562 225.200 C 61.672 225.200,61.059 224.480,60.200 223.600 C 59.341 222.720,58.548 222.000,58.438 222.000 C 58.328 222.000,58.941 222.720,59.800 223.600 M339.781 223.700 L 338.200 225.400 339.900 223.819 C 341.481 222.348,341.784 222.000,341.481 222.000 C 341.416 222.000,340.651 222.765,339.781 223.700 M76.200 240.000 C 77.059 240.880,77.852 241.600,77.962 241.600 C 78.072 241.600,77.459 240.880,76.600 240.000 C 75.741 239.120,74.948 238.400,74.838 238.400 C 74.728 238.400,75.341 239.120,76.200 240.000 M323.381 240.100 L 321.800 241.800 323.500 240.219 C 324.435 239.349,325.200 238.584,325.200 238.519 C 325.200 238.216,324.852 238.519,323.381 240.100 M83.759 247.666 C 84.138 248.253,84.707 248.832,85.024 248.954 C 85.341 249.075,85.600 249.421,85.600 249.721 C 85.600 250.021,85.870 250.267,86.200 250.267 C 86.957 250.267,87.096 250.473,84.935 248.394 C 83.706 247.212,83.305 246.964,83.759 247.666 M315.675 247.800 C 315.197 248.350,314.963 248.800,315.157 248.800 C 315.350 248.800,315.803 248.350,316.163 247.800 C 316.524 247.250,316.757 246.800,316.681 246.800 C 316.606 246.800,316.153 247.250,315.675 247.800 M91.400 257.800 C 91.400 259.340,91.556 260.000,91.921 260.000 C 92.297 260.000,92.408 259.426,92.321 257.931 C 92.156 255.116,91.400 255.008,91.400 257.800 M307.867 255.867 C 307.365 256.369,307.570 260.000,308.100 260.000 C 308.439 260.000,308.600 259.293,308.600 257.800 C 308.600 255.689,308.447 255.286,307.867 255.867 M82.689 314.000 C 82.938 317.141,83.070 317.316,83.246 314.737 C 83.331 313.493,83.280 312.549,83.134 312.640 C 82.988 312.731,82.789 312.579,82.692 312.302 C 82.594 312.026,82.593 312.790,82.689 314.000 M317.200 312.357 C 317.200 312.627,317.065 312.763,316.900 312.661 C 316.735 312.558,316.681 313.493,316.780 314.737 L 316.961 317.000 317.211 314.600 C 317.349 313.280,317.403 312.125,317.331 312.033 C 317.259 311.942,317.200 312.087,317.200 312.357 M79.272 334.300 C 79.232 335.466,79.012 336.400,78.776 336.400 C 78.543 336.400,78.478 336.603,78.632 336.851 C 79.145 337.682,79.650 336.069,79.494 334.097 L 79.344 332.200 79.272 334.300 M320.480 334.200 C 320.409 336.284,320.872 337.654,321.374 336.843 C 321.524 336.599,321.466 336.400,321.245 336.400 C 321.023 336.400,320.776 335.455,320.695 334.300 L 320.548 332.200 320.480 334.200 M194.600 340.800 C 194.736 341.020,195.242 341.197,195.724 341.194 C 196.436 341.189,196.488 341.115,196.000 340.800 C 195.212 340.291,194.285 340.291,194.600 340.800 M204.000 340.800 C 203.512 341.115,203.564 341.189,204.276 341.194 C 204.758 341.197,205.264 341.020,205.400 340.800 C 205.715 340.291,204.788 340.291,204.000 340.800 M76.074 352.700 C 76.033 354.075,75.836 355.200,75.636 355.200 C 75.435 355.200,75.210 356.250,75.136 357.534 C 75.035 359.265,75.136 359.868,75.526 359.868 C 75.901 359.867,76.031 359.284,75.977 357.833 C 75.937 356.715,76.025 355.509,76.174 355.152 C 76.323 354.796,76.379 353.536,76.297 352.352 L 76.148 350.200 76.074 352.700 M323.677 352.633 C 323.635 353.972,323.723 355.189,323.873 355.339 C 324.023 355.489,324.101 356.569,324.047 357.739 C 323.975 359.280,324.093 359.867,324.474 359.868 C 324.864 359.868,324.965 359.265,324.864 357.534 C 324.790 356.250,324.574 355.200,324.384 355.200 C 324.194 355.200,323.974 354.075,323.896 352.700 L 323.754 350.200 323.677 352.633 M165.200 357.225 C 165.200 357.431,165.560 357.600,166.000 357.600 C 166.440 357.600,166.800 357.458,166.800 357.285 C 166.800 357.112,166.440 356.943,166.000 356.910 C 165.560 356.877,165.200 357.019,165.200 357.225 M233.200 357.285 C 233.200 357.458,233.560 357.600,234.000 357.600 C 234.440 357.600,234.800 357.431,234.800 357.225 C 234.800 357.019,234.440 356.877,234.000 356.910 C 233.560 356.943,233.200 357.112,233.200 357.285 M135.200 373.700 C 135.200 373.865,135.650 374.000,136.200 374.000 C 136.750 374.000,137.200 373.865,137.200 373.700 C 137.200 373.535,136.750 373.400,136.200 373.400 C 135.650 373.400,135.200 373.535,135.200 373.700 M262.800 373.700 C 262.800 373.865,263.250 374.000,263.800 374.000 C 264.350 374.000,264.800 373.865,264.800 373.700 C 264.800 373.535,264.350 373.400,263.800 373.400 C 263.250 373.400,262.800 373.535,262.800 373.700 M133.879 374.538 C 133.730 374.926,133.950 375.022,134.673 374.884 C 135.408 374.743,135.531 374.602,135.137 374.352 C 134.387 373.877,134.117 373.917,133.879 374.538 M264.863 374.352 C 264.469 374.602,264.592 374.743,265.327 374.884 C 266.050 375.022,266.270 374.926,266.121 374.538 C 265.883 373.917,265.613 373.877,264.863 374.352 M106.390 390.132 C 105.834 390.422,105.175 390.592,104.926 390.509 C 104.677 390.426,104.356 390.547,104.213 390.779 C 104.070 391.010,104.206 391.200,104.515 391.200 C 105.121 391.200,107.600 390.052,107.600 389.771 C 107.600 389.522,107.504 389.551,106.390 390.132 M292.400 389.808 C 292.400 390.061,294.924 391.200,295.485 391.200 C 295.794 391.200,295.928 391.008,295.783 390.773 C 295.638 390.538,295.273 390.440,294.972 390.555 C 294.672 390.671,294.333 390.615,294.219 390.431 C 294.016 390.102,292.400 389.549,292.400 389.808 " stroke="none" fill="#f8f4f4" fill-rule="evenodd"></path><path id="path2" d="M175.135 32.910 C 175.015 33.933,175.110 34.256,175.486 34.112 C 176.073 33.886,176.152 32.859,175.643 32.056 C 175.402 31.676,175.248 31.935,175.135 32.910 M224.243 32.233 C 223.860 33.230,223.957 33.898,224.514 34.112 C 224.888 34.255,224.986 33.939,224.871 32.955 C 224.693 31.435,224.593 31.320,224.243 32.233 M166.252 53.408 C 166.117 53.762,165.869 53.966,165.703 53.864 C 165.536 53.761,165.400 54.109,165.400 54.638 C 165.400 55.167,165.432 55.600,165.471 55.600 C 165.661 55.600,166.783 53.050,166.651 52.918 C 166.567 52.834,166.388 53.055,166.252 53.408 M233.212 52.839 C 233.200 53.082,234.401 55.600,234.529 55.600 C 234.568 55.600,234.600 55.167,234.600 54.638 C 234.600 54.109,234.476 53.753,234.325 53.847 C 234.173 53.940,233.864 53.698,233.637 53.308 C 233.410 52.919,233.219 52.707,233.212 52.839 M159.600 66.000 C 159.600 66.440,159.420 66.800,159.200 66.800 C 158.980 66.800,158.800 67.160,158.800 67.600 C 158.800 68.040,158.999 68.400,159.243 68.400 C 159.486 68.400,159.584 68.136,159.460 67.813 C 159.336 67.490,159.385 67.133,159.569 67.019 C 160.059 66.716,160.387 65.200,159.963 65.200 C 159.763 65.200,159.600 65.560,159.600 66.000 M239.886 66.006 C 240.002 66.450,240.247 66.905,240.431 67.019 C 240.615 67.133,240.664 67.490,240.540 67.813 C 240.416 68.136,240.514 68.400,240.757 68.400 C 241.001 68.400,241.200 68.040,241.200 67.600 C 241.200 67.160,241.020 66.800,240.800 66.800 C 240.580 66.800,240.400 66.440,240.400 66.000 C 240.400 65.560,240.237 65.200,240.037 65.200 C 239.838 65.200,239.770 65.563,239.886 66.006 M142.406 102.700 C 142.403 103.195,142.580 103.600,142.800 103.600 C 143.301 103.600,143.301 103.176,142.800 102.400 C 142.486 101.915,142.411 101.972,142.406 102.700 M257.079 102.557 C 256.915 102.974,256.875 103.409,256.991 103.524 C 257.355 103.889,257.676 103.291,257.524 102.531 C 257.383 101.835,257.362 101.836,257.079 102.557 M118.800 125.600 C 119.609 126.123,123.723 126.123,123.400 125.600 C 123.264 125.380,122.038 125.203,120.676 125.206 C 118.930 125.210,118.377 125.327,118.800 125.600 M276.600 125.600 C 276.276 126.124,281.189 126.124,282.000 125.600 C 282.418 125.330,281.728 125.210,279.724 125.206 C 278.142 125.203,276.736 125.380,276.600 125.600 M112.800 126.300 C 112.800 126.465,113.745 126.548,114.900 126.484 C 118.421 126.291,118.754 126.112,115.700 126.054 C 114.105 126.025,112.800 126.135,112.800 126.300 M282.800 126.227 C 284.163 126.532,287.200 126.584,287.200 126.303 C 287.200 126.136,286.075 126.021,284.700 126.046 C 283.325 126.072,282.470 126.153,282.800 126.227 M94.300 129.489 C 95.015 129.578,96.185 129.578,96.900 129.489 C 97.615 129.401,97.030 129.328,95.600 129.328 C 94.170 129.328,93.585 129.401,94.300 129.489 M303.700 129.487 C 304.305 129.578,305.295 129.578,305.900 129.487 C 306.505 129.395,306.010 129.320,304.800 129.320 C 303.590 129.320,303.095 129.395,303.700 129.487 M73.165 132.926 C 73.344 133.105,74.281 133.191,75.246 133.118 L 77.000 132.985 74.919 132.793 C 73.775 132.687,72.985 132.747,73.165 132.926 M325.000 132.800 L 323.000 133.074 324.876 133.137 C 325.908 133.172,326.864 133.020,327.000 132.800 C 327.136 132.580,327.192 132.428,327.124 132.463 C 327.056 132.497,326.100 132.649,325.000 132.800 M13.600 141.521 C 12.170 141.588,10.829 141.813,10.620 142.021 C 10.411 142.230,9.676 142.400,8.987 142.400 C 8.224 142.400,7.733 142.604,7.733 142.921 C 7.733 143.536,10.045 143.330,10.466 142.677 C 10.612 142.450,11.872 142.298,13.266 142.340 C 14.660 142.381,16.044 142.255,16.343 142.058 C 17.157 141.521,16.475 141.387,13.600 141.521 M383.355 141.671 C 383.062 142.148,384.744 142.461,387.036 142.354 C 388.266 142.297,389.381 142.439,389.530 142.670 C 389.953 143.328,392.267 143.540,392.267 142.921 C 392.267 142.604,391.776 142.400,391.013 142.400 C 390.324 142.400,389.589 142.235,389.380 142.032 C 388.930 141.597,383.597 141.278,383.355 141.671 M9.600 171.767 C 9.600 172.188,10.805 173.328,11.021 173.112 C 11.122 173.011,10.844 172.602,10.402 172.202 C 9.961 171.803,9.600 171.607,9.600 171.767 M389.402 172.398 C 389.003 172.839,388.807 173.200,388.967 173.200 C 389.388 173.200,390.528 171.995,390.312 171.779 C 390.211 171.678,389.802 171.956,389.402 172.398 M26.000 189.029 C 26.000 189.298,26.690 189.970,27.802 190.785 C 28.241 191.106,28.071 190.791,27.425 190.085 C 26.240 188.789,26.000 188.611,26.000 189.029 M372.571 190.089 C 371.927 190.793,371.759 191.106,372.198 190.785 C 373.453 189.866,374.111 189.178,373.918 188.985 C 373.821 188.888,373.215 189.385,372.571 190.089 M42.400 205.343 C 42.400 205.756,44.412 207.722,44.620 207.513 C 44.714 207.419,44.254 206.826,43.596 206.196 C 42.938 205.566,42.400 205.182,42.400 205.343 M356.196 206.404 C 355.566 207.062,355.182 207.600,355.343 207.600 C 355.756 207.600,357.722 205.588,357.513 205.380 C 357.419 205.286,356.826 205.746,356.196 206.404 M59.800 223.600 C 60.659 224.480,61.452 225.200,61.562 225.200 C 61.672 225.200,61.059 224.480,60.200 223.600 C 59.341 222.720,58.548 222.000,58.438 222.000 C 58.328 222.000,58.941 222.720,59.800 223.600 M339.781 223.700 L 338.200 225.400 339.900 223.819 C 341.481 222.348,341.784 222.000,341.481 222.000 C 341.416 222.000,340.651 222.765,339.781 223.700 M76.200 240.000 C 77.059 240.880,77.852 241.600,77.962 241.600 C 78.072 241.600,77.459 240.880,76.600 240.000 C 75.741 239.120,74.948 238.400,74.838 238.400 C 74.728 238.400,75.341 239.120,76.200 240.000 M323.381 240.100 L 321.800 241.800 323.500 240.219 C 324.435 239.349,325.200 238.584,325.200 238.519 C 325.200 238.216,324.852 238.519,323.381 240.100 M83.759 247.666 C 84.138 248.253,84.707 248.832,85.024 248.954 C 85.341 249.075,85.600 249.421,85.600 249.721 C 85.600 250.021,85.870 250.267,86.200 250.267 C 86.957 250.267,87.096 250.473,84.935 248.394 C 83.706 247.212,83.305 246.964,83.759 247.666 M315.675 247.800 C 315.197 248.350,314.963 248.800,315.157 248.800 C 315.350 248.800,315.803 248.350,316.163 247.800 C 316.524 247.250,316.757 246.800,316.681 246.800 C 316.606 246.800,316.153 247.250,315.675 247.800 M91.400 257.800 C 91.400 259.340,91.556 260.000,91.921 260.000 C 92.297 260.000,92.408 259.426,92.321 257.931 C 92.156 255.116,91.400 255.008,91.400 257.800 M307.867 255.867 C 307.365 256.369,307.570 260.000,308.100 260.000 C 308.439 260.000,308.600 259.293,308.600 257.800 C 308.600 255.689,308.447 255.286,307.867 255.867 M82.689 314.000 C 82.938 317.141,83.070 317.316,83.246 314.737 C 83.331 313.493,83.280 312.549,83.134 312.640 C 82.988 312.731,82.789 312.579,82.692 312.302 C 82.594 312.026,82.593 312.790,82.689 314.000 M317.200 312.357 C 317.200 312.627,317.065 312.763,316.900 312.661 C 316.735 312.558,316.681 313.493,316.780 314.737 L 316.961 317.000 317.211 314.600 C 317.349 313.280,317.403 312.125,317.331 312.033 C 317.259 311.942,317.200 312.087,317.200 312.357 M79.272 334.300 C 79.232 335.466,79.012 336.400,78.776 336.400 C 78.543 336.400,78.478 336.603,78.632 336.851 C 79.145 337.682,79.650 336.069,79.494 334.097 L 79.344 332.200 79.272 334.300 M320.480 334.200 C 320.409 336.284,320.872 337.654,321.374 336.843 C 321.524 336.599,321.466 336.400,321.245 336.400 C 321.023 336.400,320.776 335.455,320.695 334.300 L 320.548 332.200 320.480 334.200 M194.600 340.800 C 194.736 341.020,195.242 341.197,195.724 341.194 C 196.436 341.189,196.488 341.115,196.000 340.800 C 195.212 340.291,194.285 340.291,194.600 340.800 M204.000 340.800 C 203.512 341.115,203.564 341.189,204.276 341.194 C 204.758 341.197,205.264 341.020,205.400 340.800 C 205.715 340.291,204.788 340.291,204.000 340.800 M76.074 352.700 C 76.033 354.075,75.836 355.200,75.636 355.200 C 75.435 355.200,75.210 356.250,75.136 357.534 C 75.035 359.265,75.136 359.868,75.526 359.868 C 75.901 359.867,76.031 359.284,75.977 357.833 C 75.937 356.715,76.025 355.509,76.174 355.152 C 76.323 354.796,76.379 353.536,76.297 352.352 L 76.148 350.200 76.074 352.700 M323.677 352.633 C 323.635 353.972,323.723 355.189,323.873 355.339 C 324.023 355.489,324.101 356.569,324.047 357.739 C 323.975 359.280,324.093 359.867,324.474 359.868 C 324.864 359.868,324.965 359.265,324.864 357.534 C 324.790 356.250,324.574 355.200,324.384 355.200 C 324.194 355.200,323.974 354.075,323.896 352.700 L 323.754 350.200 323.677 352.633 M165.200 357.225 C 165.200 357.431,165.560 357.600,166.000 357.600 C 166.440 357.600,166.800 357.458,166.800 357.285 C 166.800 357.112,166.440 356.943,166.000 356.910 C 165.560 356.877,165.200 357.019,165.200 357.225 M233.200 357.285 C 233.200 357.458,233.560 357.600,234.000 357.600 C 234.440 357.600,234.800 357.431,234.800 357.225 C 234.800 357.019,234.440 356.877,234.000 356.910 C 233.560 356.943,233.200 357.112,233.200 357.285 M135.200 373.700 C 135.200 373.865,135.650 374.000,136.200 374.000 C 136.750 374.000,137.200 373.865,137.200 373.700 C 137.200 373.535,136.750 373.400,136.200 373.400 C 135.650 373.400,135.200 373.535,135.200 373.700 M262.800 373.700 C 262.800 373.865,263.250 374.000,263.800 374.000 C 264.350 374.000,264.800 373.865,264.800 373.700 C 264.800 373.535,264.350 373.400,263.800 373.400 C 263.250 373.400,262.800 373.535,262.800 373.700 M133.879 374.538 C 133.730 374.926,133.950 375.022,134.673 374.884 C 135.408 374.743,135.531 374.602,135.137 374.352 C 134.387 373.877,134.117 373.917,133.879 374.538 M264.863 374.352 C 264.469 374.602,264.592 374.743,265.327 374.884 C 266.050 375.022,266.270 374.926,266.121 374.538 C 265.883 373.917,265.613 373.877,264.863 374.352 M106.390 390.132 C 105.834 390.422,105.175 390.592,104.926 390.509 C 104.677 390.426,104.356 390.547,104.213 390.779 C 104.070 391.010,104.206 391.200,104.515 391.200 C 105.121 391.200,107.600 390.052,107.600 389.771 C 107.600 389.522,107.504 389.551,106.390 390.132 M292.400 389.808 C 292.400 390.061,294.924 391.200,295.485 391.200 C 295.794 391.200,295.928 391.008,295.783 390.773 C 295.638 390.538,295.273 390.440,294.972 390.555 C 294.672 390.671,294.333 390.615,294.219 390.431 C 294.016 390.102,292.400 389.549,292.400 389.808 " stroke="none" fill="#f8f4f4" fill-rule="evenodd"></path><path id="path3" d="M175.135 32.910 C 175.015 33.933,175.110 34.256,175.486 34.112 C 176.073 33.886,176.152 32.859,175.643 32.056 C 175.402 31.676,175.248 31.935,175.135 32.910 M224.243 32.233 C 223.860 33.230,223.957 33.898,224.514 34.112 C 224.888 34.255,224.986 33.939,224.871 32.955 C 224.693 31.435,224.593 31.320,224.243 32.233 M166.252 53.408 C 166.117 53.762,165.869 53.966,165.703 53.864 C 165.536 53.761,165.400 54.109,165.400 54.638 C 165.400 55.167,165.432 55.600,165.471 55.600 C 165.661 55.600,166.783 53.050,166.651 52.918 C 166.567 52.834,166.388 53.055,166.252 53.408 M233.212 52.839 C 233.200 53.082,234.401 55.600,234.529 55.600 C 234.568 55.600,234.600 55.167,234.600 54.638 C 234.600 54.109,234.476 53.753,234.325 53.847 C 234.173 53.940,233.864 53.698,233.637 53.308 C 233.410 52.919,233.219 52.707,233.212 52.839 M159.600 66.000 C 159.600 66.440,159.420 66.800,159.200 66.800 C 158.980 66.800,158.800 67.160,158.800 67.600 C 158.800 68.040,158.999 68.400,159.243 68.400 C 159.486 68.400,159.584 68.136,159.460 67.813 C 159.336 67.490,159.385 67.133,159.569 67.019 C 160.059 66.716,160.387 65.200,159.963 65.200 C 159.763 65.200,159.600 65.560,159.600 66.000 M239.886 66.006 C 240.002 66.450,240.247 66.905,240.431 67.019 C 240.615 67.133,240.664 67.490,240.540 67.813 C 240.416 68.136,240.514 68.400,240.757 68.400 C 241.001 68.400,241.200 68.040,241.200 67.600 C 241.200 67.160,241.020 66.800,240.800 66.800 C 240.580 66.800,240.400 66.440,240.400 66.000 C 240.400 65.560,240.237 65.200,240.037 65.200 C 239.838 65.200,239.770 65.563,239.886 66.006 M142.406 102.700 C 142.403 103.195,142.580 103.600,142.800 103.600 C 143.301 103.600,143.301 103.176,142.800 102.400 C 142.486 101.915,142.411 101.972,142.406 102.700 M257.079 102.557 C 256.915 102.974,256.875 103.409,256.991 103.524 C 257.355 103.889,257.676 103.291,257.524 102.531 C 257.383 101.835,257.362 101.836,257.079 102.557 M118.800 125.600 C 119.609 126.123,123.723 126.123,123.400 125.600 C 123.264 125.380,122.038 125.203,120.676 125.206 C 118.930 125.210,118.377 125.327,118.800 125.600 M276.600 125.600 C 276.276 126.124,281.189 126.124,282.000 125.600 C 282.418 125.330,281.728 125.210,279.724 125.206 C 278.142 125.203,276.736 125.380,276.600 125.600 M112.800 126.300 C 112.800 126.465,113.745 126.548,114.900 126.484 C 118.421 126.291,118.754 126.112,115.700 126.054 C 114.105 126.025,112.800 126.135,112.800 126.300 M282.800 126.227 C 284.163 126.532,287.200 126.584,287.200 126.303 C 287.200 126.136,286.075 126.021,284.700 126.046 C 283.325 126.072,282.470 126.153,282.800 126.227 M94.300 129.489 C 95.015 129.578,96.185 129.578,96.900 129.489 C 97.615 129.401,97.030 129.328,95.600 129.328 C 94.170 129.328,93.585 129.401,94.300 129.489 M303.700 129.487 C 304.305 129.578,305.295 129.578,305.900 129.487 C 306.505 129.395,306.010 129.320,304.800 129.320 C 303.590 129.320,303.095 129.395,303.700 129.487 M73.165 132.926 C 73.344 133.105,74.281 133.191,75.246 133.118 L 77.000 132.985 74.919 132.793 C 73.775 132.687,72.985 132.747,73.165 132.926 M325.000 132.800 L 323.000 133.074 324.876 133.137 C 325.908 133.172,326.864 133.020,327.000 132.800 C 327.136 132.580,327.192 132.428,327.124 132.463 C 327.056 132.497,326.100 132.649,325.000 132.800 M13.600 141.521 C 12.170 141.588,10.829 141.813,10.620 142.021 C 10.411 142.230,9.676 142.400,8.987 142.400 C 8.224 142.400,7.733 142.604,7.733 142.921 C 7.733 143.536,10.045 143.330,10.466 142.677 C 10.612 142.450,11.872 142.298,13.266 142.340 C 14.660 142.381,16.044 142.255,16.343 142.058 C 17.157 141.521,16.475 141.387,13.600 141.521 M383.355 141.671 C 383.062 142.148,384.744 142.461,387.036 142.354 C 388.266 142.297,389.381 142.439,389.530 142.670 C 389.953 143.328,392.267 143.540,392.267 142.921 C 392.267 142.604,391.776 142.400,391.013 142.400 C 390.324 142.400,389.589 142.235,389.380 142.032 C 388.930 141.597,383.597 141.278,383.355 141.671 M9.600 171.767 C 9.600 172.188,10.805 173.328,11.021 173.112 C 11.122 173.011,10.844 172.602,10.402 172.202 C 9.961 171.803,9.600 171.607,9.600 171.767 M389.402 172.398 C 389.003 172.839,388.807 173.200,388.967 173.200 C 389.388 173.200,390.528 171.995,390.312 171.779 C 390.211 171.678,389.802 171.956,389.402 172.398 M26.000 189.029 C 26.000 189.298,26.690 189.970,27.802 190.785 C 28.241 191.106,28.071 190.791,27.425 190.085 C 26.240 188.789,26.000 188.611,26.000 189.029 M372.571 190.089 C 371.927 190.793,371.759 191.106,372.198 190.785 C 373.453 189.866,374.111 189.178,373.918 188.985 C 373.821 188.888,373.215 189.385,372.571 190.089 M42.400 205.343 C 42.400 205.756,44.412 207.722,44.620 207.513 C 44.714 207.419,44.254 206.826,43.596 206.196 C 42.938 205.566,42.400 205.182,42.400 205.343 M356.196 206.404 C 355.566 207.062,355.182 207.600,355.343 207.600 C 355.756 207.600,357.722 205.588,357.513 205.380 C 357.419 205.286,356.826 205.746,356.196 206.404 M59.800 223.600 C 60.659 224.480,61.452 225.200,61.562 225.200 C 61.672 225.200,61.059 224.480,60.200 223.600 C 59.341 222.720,58.548 222.000,58.438 222.000 C 58.328 222.000,58.941 222.720,59.800 223.600 M339.781 223.700 L 338.200 225.400 339.900 223.819 C 341.481 222.348,341.784 222.000,341.481 222.000 C 341.416 222.000,340.651 222.765,339.781 223.700 M76.200 240.000 C 77.059 240.880,77.852 241.600,77.962 241.600 C 78.072 241.600,77.459 240.880,76.600 240.000 C 75.741 239.120,74.948 238.400,74.838 238.400 C 74.728 238.400,75.341 239.120,76.200 240.000 M323.381 240.100 L 321.800 241.800 323.500 240.219 C 324.435 239.349,325.200 238.584,325.200 238.519 C 325.200 238.216,324.852 238.519,323.381 240.100 M83.759 247.666 C 84.138 248.253,84.707 248.832,85.024 248.954 C 85.341 249.075,85.600 249.421,85.600 249.721 C 85.600 250.021,85.870 250.267,86.200 250.267 C 86.957 250.267,87.096 250.473,84.935 248.394 C 83.706 247.212,83.305 246.964,83.759 247.666 M315.675 247.800 C 315.197 248.350,314.963 248.800,315.157 248.800 C 315.350 248.800,315.803 248.350,316.163 247.800 C 316.524 247.250,316.757 246.800,316.681 246.800 C 316.606 246.800,316.153 247.250,315.675 247.800 M91.400 257.800 C 91.400 259.340,91.556 260.000,91.921 260.000 C 92.297 260.000,92.408 259.426,92.321 257.931 C 92.156 255.116,91.400 255.008,91.400 257.800 M307.867 255.867 C 307.365 256.369,307.570 260.000,308.100 260.000 C 308.439 260.000,308.600 259.293,308.600 257.800 C 308.600 255.689,308.447 255.286,307.867 255.867 M82.689 314.000 C 82.938 317.141,83.070 317.316,83.246 314.737 C 83.331 313.493,83.280 312.549,83.134 312.640 C 82.988 312.731,82.789 312.579,82.692 312.302 C 82.594 312.026,82.593 312.790,82.689 314.000 M317.200 312.357 C 317.200 312.627,317.065 312.763,316.900 312.661 C 316.735 312.558,316.681 313.493,316.780 314.737 L 316.961 317.000 317.211 314.600 C 317.349 313.280,317.403 312.125,317.331 312.033 C 317.259 311.942,317.200 312.087,317.200 312.357 M79.272 334.300 C 79.232 335.466,79.012 336.400,78.776 336.400 C 78.543 336.400,78.478 336.603,78.632 336.851 C 79.145 337.682,79.650 336.069,79.494 334.097 L 79.344 332.200 79.272 334.300 M320.480 334.200 C 320.409 336.284,320.872 337.654,321.374 336.843 C 321.524 336.599,321.466 336.400,321.245 336.400 C 321.023 336.400,320.776 335.455,320.695 334.300 L 320.548 332.200 320.480 334.200 M194.600 340.800 C 194.736 341.020,195.242 341.197,195.724 341.194 C 196.436 341.189,196.488 341.115,196.000 340.800 C 195.212 340.291,194.285 340.291,194.600 340.800 M204.000 340.800 C 203.512 341.115,203.564 341.189,204.276 341.194 C 204.758 341.197,205.264 341.020,205.400 340.800 C 205.715 340.291,204.788 340.291,204.000 340.800 M76.074 352.700 C 76.033 354.075,75.836 355.200,75.636 355.200 C 75.435 355.200,75.210 356.250,75.136 357.534 C 75.035 359.265,75.136 359.868,75.526 359.868 C 75.901 359.867,76.031 359.284,75.977 357.833 C 75.937 356.715,76.025 355.509,76.174 355.152 C 76.323 354.796,76.379 353.536,76.297 352.352 L 76.148 350.200 76.074 352.700 M323.677 352.633 C 323.635 353.972,323.723 355.189,323.873 355.339 C 324.023 355.489,324.101 356.569,324.047 357.739 C 323.975 359.280,324.093 359.867,324.474 359.868 C 324.864 359.868,324.965 359.265,324.864 357.534 C 324.790 356.250,324.574 355.200,324.384 355.200 C 324.194 355.200,323.974 354.075,323.896 352.700 L 323.754 350.200 323.677 352.633 M165.200 357.225 C 165.200 357.431,165.560 357.600,166.000 357.600 C 166.440 357.600,166.800 357.458,166.800 357.285 C 166.800 357.112,166.440 356.943,166.000 356.910 C 165.560 356.877,165.200 357.019,165.200 357.225 M233.200 357.285 C 233.200 357.458,233.560 357.600,234.000 357.600 C 234.440 357.600,234.800 357.431,234.800 357.225 C 234.800 357.019,234.440 356.877,234.000 356.910 C 233.560 356.943,233.200 357.112,233.200 357.285 M135.200 373.700 C 135.200 373.865,135.650 374.000,136.200 374.000 C 136.750 374.000,137.200 373.865,137.200 373.700 C 137.200 373.535,136.750 373.400,136.200 373.400 C 135.650 373.400,135.200 373.535,135.200 373.700 M262.800 373.700 C 262.800 373.865,263.250 374.000,263.800 374.000 C 264.350 374.000,264.800 373.865,264.800 373.700 C 264.800 373.535,264.350 373.400,263.800 373.400 C 263.250 373.400,262.800 373.535,262.800 373.700 M133.879 374.538 C 133.730 374.926,133.950 375.022,134.673 374.884 C 135.408 374.743,135.531 374.602,135.137 374.352 C 134.387 373.877,134.117 373.917,133.879 374.538 M264.863 374.352 C 264.469 374.602,264.592 374.743,265.327 374.884 C 266.050 375.022,266.270 374.926,266.121 374.538 C 265.883 373.917,265.613 373.877,264.863 374.352 M106.390 390.132 C 105.834 390.422,105.175 390.592,104.926 390.509 C 104.677 390.426,104.356 390.547,104.213 390.779 C 104.070 391.010,104.206 391.200,104.515 391.200 C 105.121 391.200,107.600 390.052,107.600 389.771 C 107.600 389.522,107.504 389.551,106.390 390.132 M292.400 389.808 C 292.400 390.061,294.924 391.200,295.485 391.200 C 295.794 391.200,295.928 391.008,295.783 390.773 C 295.638 390.538,295.273 390.440,294.972 390.555 C 294.672 390.671,294.333 390.615,294.219 390.431 C 294.016 390.102,292.400 389.549,292.400 389.808 " stroke="none" fill="#f8f4f4" fill-rule="evenodd"></path><path id="path4" d="M175.135 32.910 C 175.015 33.933,175.110 34.256,175.486 34.112 C 176.073 33.886,176.152 32.859,175.643 32.056 C 175.402 31.676,175.248 31.935,175.135 32.910 M224.243 32.233 C 223.860 33.230,223.957 33.898,224.514 34.112 C 224.888 34.255,224.986 33.939,224.871 32.955 C 224.693 31.435,224.593 31.320,224.243 32.233 M166.252 53.408 C 166.117 53.762,165.869 53.966,165.703 53.864 C 165.536 53.761,165.400 54.109,165.400 54.638 C 165.400 55.167,165.432 55.600,165.471 55.600 C 165.661 55.600,166.783 53.050,166.651 52.918 C 166.567 52.834,166.388 53.055,166.252 53.408 M233.212 52.839 C 233.200 53.082,234.401 55.600,234.529 55.600 C 234.568 55.600,234.600 55.167,234.600 54.638 C 234.600 54.109,234.476 53.753,234.325 53.847 C 234.173 53.940,233.864 53.698,233.637 53.308 C 233.410 52.919,233.219 52.707,233.212 52.839 M159.600 66.000 C 159.600 66.440,159.420 66.800,159.200 66.800 C 158.980 66.800,158.800 67.160,158.800 67.600 C 158.800 68.040,158.999 68.400,159.243 68.400 C 159.486 68.400,159.584 68.136,159.460 67.813 C 159.336 67.490,159.385 67.133,159.569 67.019 C 160.059 66.716,160.387 65.200,159.963 65.200 C 159.763 65.200,159.600 65.560,159.600 66.000 M239.886 66.006 C 240.002 66.450,240.247 66.905,240.431 67.019 C 240.615 67.133,240.664 67.490,240.540 67.813 C 240.416 68.136,240.514 68.400,240.757 68.400 C 241.001 68.400,241.200 68.040,241.200 67.600 C 241.200 67.160,241.020 66.800,240.800 66.800 C 240.580 66.800,240.400 66.440,240.400 66.000 C 240.400 65.560,240.237 65.200,240.037 65.200 C 239.838 65.200,239.770 65.563,239.886 66.006 M142.406 102.700 C 142.403 103.195,142.580 103.600,142.800 103.600 C 143.301 103.600,143.301 103.176,142.800 102.400 C 142.486 101.915,142.411 101.972,142.406 102.700 M257.079 102.557 C 256.915 102.974,256.875 103.409,256.991 103.524 C 257.355 103.889,257.676 103.291,257.524 102.531 C 257.383 101.835,257.362 101.836,257.079 102.557 M118.800 125.600 C 119.609 126.123,123.723 126.123,123.400 125.600 C 123.264 125.380,122.038 125.203,120.676 125.206 C 118.930 125.210,118.377 125.327,118.800 125.600 M276.600 125.600 C 276.276 126.124,281.189 126.124,282.000 125.600 C 282.418 125.330,281.728 125.210,279.724 125.206 C 278.142 125.203,276.736 125.380,276.600 125.600 M112.800 126.300 C 112.800 126.465,113.745 126.548,114.900 126.484 C 118.421 126.291,118.754 126.112,115.700 126.054 C 114.105 126.025,112.800 126.135,112.800 126.300 M282.800 126.227 C 284.163 126.532,287.200 126.584,287.200 126.303 C 287.200 126.136,286.075 126.021,284.700 126.046 C 283.325 126.072,282.470 126.153,282.800 126.227 M94.300 129.489 C 95.015 129.578,96.185 129.578,96.900 129.489 C 97.615 129.401,97.030 129.328,95.600 129.328 C 94.170 129.328,93.585 129.401,94.300 129.489 M303.700 129.487 C 304.305 129.578,305.295 129.578,305.900 129.487 C 306.505 129.395,306.010 129.320,304.800 129.320 C 303.590 129.320,303.095 129.395,303.700 129.487 M73.165 132.926 C 73.344 133.105,74.281 133.191,75.246 133.118 L 77.000 132.985 74.919 132.793 C 73.775 132.687,72.985 132.747,73.165 132.926 M325.000 132.800 L 323.000 133.074 324.876 133.137 C 325.908 133.172,326.864 133.020,327.000 132.800 C 327.136 132.580,327.192 132.428,327.124 132.463 C 327.056 132.497,326.100 132.649,325.000 132.800 M13.600 141.521 C 12.170 141.588,10.829 141.813,10.620 142.021 C 10.411 142.230,9.676 142.400,8.987 142.400 C 8.224 142.400,7.733 142.604,7.733 142.921 C 7.733 143.536,10.045 143.330,10.466 142.677 C 10.612 142.450,11.872 142.298,13.266 142.340 C 14.660 142.381,16.044 142.255,16.343 142.058 C 17.157 141.521,16.475 141.387,13.600 141.521 M383.355 141.671 C 383.062 142.148,384.744 142.461,387.036 142.354 C 388.266 142.297,389.381 142.439,389.530 142.670 C 389.953 143.328,392.267 143.540,392.267 142.921 C 392.267 142.604,391.776 142.400,391.013 142.400 C 390.324 142.400,389.589 142.235,389.380 142.032 C 388.930 141.597,383.597 141.278,383.355 141.671 M9.600 171.767 C 9.600 172.188,10.805 173.328,11.021 173.112 C 11.122 173.011,10.844 172.602,10.402 172.202 C 9.961 171.803,9.600 171.607,9.600 171.767 M389.402 172.398 C 389.003 172.839,388.807 173.200,388.967 173.200 C 389.388 173.200,390.528 171.995,390.312 171.779 C 390.211 171.678,389.802 171.956,389.402 172.398 M26.000 189.029 C 26.000 189.298,26.690 189.970,27.802 190.785 C 28.241 191.106,28.071 190.791,27.425 190.085 C 26.240 188.789,26.000 188.611,26.000 189.029 M372.571 190.089 C 371.927 190.793,371.759 191.106,372.198 190.785 C 373.453 189.866,374.111 189.178,373.918 188.985 C 373.821 188.888,373.215 189.385,372.571 190.089 M42.400 205.343 C 42.400 205.756,44.412 207.722,44.620 207.513 C 44.714 207.419,44.254 206.826,43.596 206.196 C 42.938 205.566,42.400 205.182,42.400 205.343 M356.196 206.404 C 355.566 207.062,355.182 207.600,355.343 207.600 C 355.756 207.600,357.722 205.588,357.513 205.380 C 357.419 205.286,356.826 205.746,356.196 206.404 M59.800 223.600 C 60.659 224.480,61.452 225.200,61.562 225.200 C 61.672 225.200,61.059 224.480,60.200 223.600 C 59.341 222.720,58.548 222.000,58.438 222.000 C 58.328 222.000,58.941 222.720,59.800 223.600 M339.781 223.700 L 338.200 225.400 339.900 223.819 C 341.481 222.348,341.784 222.000,341.481 222.000 C 341.416 222.000,340.651 222.765,339.781 223.700 M76.200 240.000 C 77.059 240.880,77.852 241.600,77.962 241.600 C 78.072 241.600,77.459 240.880,76.600 240.000 C 75.741 239.120,74.948 238.400,74.838 238.400 C 74.728 238.400,75.341 239.120,76.200 240.000 M323.381 240.100 L 321.800 241.800 323.500 240.219 C 324.435 239.349,325.200 238.584,325.200 238.519 C 325.200 238.216,324.852 238.519,323.381 240.100 M83.759 247.666 C 84.138 248.253,84.707 248.832,85.024 248.954 C 85.341 249.075,85.600 249.421,85.600 249.721 C 85.600 250.021,85.870 250.267,86.200 250.267 C 86.957 250.267,87.096 250.473,84.935 248.394 C 83.706 247.212,83.305 246.964,83.759 247.666 M315.675 247.800 C 315.197 248.350,314.963 248.800,315.157 248.800 C 315.350 248.800,315.803 248.350,316.163 247.800 C 316.524 247.250,316.757 246.800,316.681 246.800 C 316.606 246.800,316.153 247.250,315.675 247.800 M91.400 257.800 C 91.400 259.340,91.556 260.000,91.921 260.000 C 92.297 260.000,92.408 259.426,92.321 257.931 C 92.156 255.116,91.400 255.008,91.400 257.800 M307.867 255.867 C 307.365 256.369,307.570 260.000,308.100 260.000 C 308.439 260.000,308.600 259.293,308.600 257.800 C 308.600 255.689,308.447 255.286,307.867 255.867 M82.689 314.000 C 82.938 317.141,83.070 317.316,83.246 314.737 C 83.331 313.493,83.280 312.549,83.134 312.640 C 82.988 312.731,82.789 312.579,82.692 312.302 C 82.594 312.026,82.593 312.790,82.689 314.000 M317.200 312.357 C 317.200 312.627,317.065 312.763,316.900 312.661 C 316.735 312.558,316.681 313.493,316.780 314.737 L 316.961 317.000 317.211 314.600 C 317.349 313.280,317.403 312.125,317.331 312.033 C 317.259 311.942,317.200 312.087,317.200 312.357 M79.272 334.300 C 79.232 335.466,79.012 336.400,78.776 336.400 C 78.543 336.400,78.478 336.603,78.632 336.851 C 79.145 337.682,79.650 336.069,79.494 334.097 L 79.344 332.200 79.272 334.300 M320.480 334.200 C 320.409 336.284,320.872 337.654,321.374 336.843 C 321.524 336.599,321.466 336.400,321.245 336.400 C 321.023 336.400,320.776 335.455,320.695 334.300 L 320.548 332.200 320.480 334.200 M194.600 340.800 C 194.736 341.020,195.242 341.197,195.724 341.194 C 196.436 341.189,196.488 341.115,196.000 340.800 C 195.212 340.291,194.285 340.291,194.600 340.800 M204.000 340.800 C 203.512 341.115,203.564 341.189,204.276 341.194 C 204.758 341.197,205.264 341.020,205.400 340.800 C 205.715 340.291,204.788 340.291,204.000 340.800 M76.074 352.700 C 76.033 354.075,75.836 355.200,75.636 355.200 C 75.435 355.200,75.210 356.250,75.136 357.534 C 75.035 359.265,75.136 359.868,75.526 359.868 C 75.901 359.867,76.031 359.284,75.977 357.833 C 75.937 356.715,76.025 355.509,76.174 355.152 C 76.323 354.796,76.379 353.536,76.297 352.352 L 76.148 350.200 76.074 352.700 M323.677 352.633 C 323.635 353.972,323.723 355.189,323.873 355.339 C 324.023 355.489,324.101 356.569,324.047 357.739 C 323.975 359.280,324.093 359.867,324.474 359.868 C 324.864 359.868,324.965 359.265,324.864 357.534 C 324.790 356.250,324.574 355.200,324.384 355.200 C 324.194 355.200,323.974 354.075,323.896 352.700 L 323.754 350.200 323.677 352.633 M165.200 357.225 C 165.200 357.431,165.560 357.600,166.000 357.600 C 166.440 357.600,166.800 357.458,166.800 357.285 C 166.800 357.112,166.440 356.943,166.000 356.910 C 165.560 356.877,165.200 357.019,165.200 357.225 M233.200 357.285 C 233.200 357.458,233.560 357.600,234.000 357.600 C 234.440 357.600,234.800 357.431,234.800 357.225 C 234.800 357.019,234.440 356.877,234.000 356.910 C 233.560 356.943,233.200 357.112,233.200 357.285 M135.200 373.700 C 135.200 373.865,135.650 374.000,136.200 374.000 C 136.750 374.000,137.200 373.865,137.200 373.700 C 137.200 373.535,136.750 373.400,136.200 373.400 C 135.650 373.400,135.200 373.535,135.200 373.700 M262.800 373.700 C 262.800 373.865,263.250 374.000,263.800 374.000 C 264.350 374.000,264.800 373.865,264.800 373.700 C 264.800 373.535,264.350 373.400,263.800 373.400 C 263.250 373.400,262.800 373.535,262.800 373.700 M133.879 374.538 C 133.730 374.926,133.950 375.022,134.673 374.884 C 135.408 374.743,135.531 374.602,135.137 374.352 C 134.387 373.877,134.117 373.917,133.879 374.538 M264.863 374.352 C 264.469 374.602,264.592 374.743,265.327 374.884 C 266.050 375.022,266.270 374.926,266.121 374.538 C 265.883 373.917,265.613 373.877,264.863 374.352 M106.390 390.132 C 105.834 390.422,105.175 390.592,104.926 390.509 C 104.677 390.426,104.356 390.547,104.213 390.779 C 104.070 391.010,104.206 391.200,104.515 391.200 C 105.121 391.200,107.600 390.052,107.600 389.771 C 107.600 389.522,107.504 389.551,106.390 390.132 M292.400 389.808 C 292.400 390.061,294.924 391.200,295.485 391.200 C 295.794 391.200,295.928 391.008,295.783 390.773 C 295.638 390.538,295.273 390.440,294.972 390.555 C 294.672 390.671,294.333 390.615,294.219 390.431 C 294.016 390.102,292.400 389.549,292.400 389.808 " stroke="none" fill="#f8f4f4" fill-rule="evenodd"></path></g></svg>